<svg width="1700" height="1700" viewBox="0 0 1700 1700" fill="none" xmlns="http://www.w3.org/2000/svg">
<path opacity="0.999" d="M0 1399.51V853.472L0.00425578 853.462C0.00202452 852.344 0.00204099 851.226 0.012666 849.997C0.0182973 848.518 0.0182935 847.15 0.021056 845.781L0.0529338 841.669C0.0635588 840.3 0.0847999 838.932 0.10605 837.563L0.169806 833.456C0.191056 832.088 0.233544 830.719 0.265419 829.35C0.301544 827.981 0.333427 826.612 0.375927 825.244C0.417166 823.881 0.459457 822.519 0.501754 821.157L0.502364 821.137C0.543802 819.768 0.596935 818.4 0.65006 817.031L0.650136 817.029C0.703236 815.661 0.756328 814.293 0.820048 812.924C0.879548 811.556 0.943309 810.187 1.00706 808.818C1.07293 807.449 1.14093 806.08 1.21531 804.712L1.23194 804.401C1.29963 803.138 1.3673 801.874 1.44587 800.611C1.52556 799.244 1.60843 797.877 1.69343 796.51C1.7795 795.143 1.86661 793.776 1.96224 792.409L1.98503 792.083C2.07297 790.826 2.16088 789.57 2.25868 788.314C2.3575 786.947 2.4595 785.579 2.56575 784.213C2.67093 782.847 2.77825 781.482 2.88981 780.118C3.0035 778.752 3.12144 777.387 3.2415 776.022C3.35944 774.656 3.4795 773.291 3.60381 771.927C3.73025 770.563 3.86093 769.199 3.99374 767.837C4.12549 766.473 4.26044 765.11 4.39962 763.747C4.53881 762.383 4.68225 761.02 4.82781 759.657C4.97019 758.295 5.11681 756.933 5.26663 755.572C5.41856 754.21 5.57475 752.849 5.73306 751.488C5.89137 750.128 6.05181 748.768 6.2165 747.409C6.38543 746.049 6.55757 744.689 6.73288 743.33C6.90395 741.97 7.07712 740.61 7.25456 739.251C7.42881 737.893 7.60625 736.535 7.78688 735.178C7.97175 733.821 8.15981 732.465 8.35213 731.11C8.54444 729.753 8.741 728.397 8.93969 727.042C9.13731 725.685 9.33813 724.329 9.5432 722.974C9.7472 721.619 9.95331 720.265 10.1637 718.911C10.3762 717.559 10.5929 716.206 10.8118 714.854C11.0275 713.501 11.2475 712.149 11.4706 710.797C11.6958 709.446 11.9253 708.096 12.157 706.746C12.3886 705.395 12.6223 704.044 12.8603 702.694C13.0972 701.345 13.3363 699.996 13.5796 698.648C13.824 697.301 14.0705 695.954 14.3213 694.608C14.572 693.26 14.827 691.914 15.0841 690.567C15.3413 689.222 15.6005 687.877 15.864 686.532C16.1254 685.188 16.391 683.845 16.6598 682.503C16.9308 681.159 17.2049 679.816 17.4833 678.473C17.7574 677.131 18.0358 675.79 18.3173 674.449C18.601 673.109 18.8879 671.769 19.179 670.431C19.4691 669.092 19.7613 667.755 20.0577 666.418C20.352 665.079 20.6506 663.741 20.9523 662.405C21.2551 661.068 21.5601 659.732 21.8693 658.397C22.1774 657.062 22.4887 655.728 22.8032 654.395C23.1177 653.062 23.4365 651.73 23.7584 650.398C24.0814 649.067 24.4065 647.737 24.7359 646.407C25.0631 645.076 25.3946 643.746 25.7293 642.416C26.063 641.089 26.3998 639.762 26.7398 638.436C27.0798 637.109 27.424 635.782 27.7715 634.456C28.1189 633.132 28.4706 631.809 28.8255 630.487C29.179 629.163 29.536 627.84 29.8961 626.518C30.2577 625.195 30.6211 623.874 30.9887 622.554C31.3552 621.234 31.7249 619.914 32.0979 618.596C32.4702 617.277 32.8452 615.96 33.2235 614.643C33.6028 613.327 33.9853 612.011 34.371 610.696C34.7574 609.381 35.1474 608.067 35.5405 606.754C35.9305 605.443 36.3247 604.133 36.721 602.823C37.1203 601.512 37.523 600.202 37.9289 598.893C38.3341 597.583 38.7421 596.275 39.1533 594.968C39.5633 593.66 39.9777 592.353 40.3942 591.048C40.8124 589.744 41.2332 588.441 41.6571 587.139C42.08 585.837 42.5071 584.536 42.9363 583.236C43.3664 581.935 43.801 580.636 44.2377 579.338C44.6735 578.04 45.1134 576.742 45.5554 575.446C45.9971 574.149 46.4412 572.853 46.8896 571.559C47.3385 570.264 47.7911 568.97 48.2459 567.678C48.7005 566.386 49.1574 565.096 49.6185 563.807C50.0802 562.518 50.5456 561.23 51.0131 559.943C51.4807 558.655 51.9503 557.369 52.4241 556.083C52.8989 554.799 53.3759 553.516 53.8572 552.235C54.3377 550.951 54.8201 549.668 55.3067 548.386C55.7921 547.106 56.2808 545.827 56.7728 544.549C57.2662 543.271 57.7613 541.993 58.2607 540.717C58.759 539.441 59.2605 538.165 59.7652 536.891C60.2692 535.618 60.7761 534.346 61.2861 533.075C61.7972 531.804 62.3115 530.534 62.8289 529.265C63.3459 527.996 63.8655 526.728 64.3883 525.461C64.9124 524.195 65.4394 522.931 65.9696 521.667C66.4973 520.403 67.0285 519.141 67.5618 517.88C68.0969 516.619 68.6353 515.36 69.1761 514.102C69.7185 512.844 70.2641 511.587 70.8123 510.331C71.3602 509.074 71.9114 507.819 72.4649 506.565C73.0183 505.312 73.5742 504.06 74.1341 502.81C74.6929 501.559 75.2545 500.309 75.8198 499.061C76.3859 497.813 76.9547 496.567 77.5274 495.322C78.099 494.078 78.6734 492.835 79.2514 491.594C79.8285 490.35 80.4086 489.108 80.9919 487.867C81.5764 486.628 82.1637 485.391 82.7544 484.155C83.3444 482.919 83.9373 481.684 84.5334 480.45C85.1289 479.215 85.7274 477.982 86.3288 476.75C86.9298 475.52 87.534 474.292 88.1407 473.066C88.7491 471.839 89.3604 470.613 89.9745 469.388C90.5885 468.164 91.2055 466.942 91.8249 465.721C92.4442 464.499 93.067 463.278 93.6917 462.059C94.3166 460.841 94.9439 459.624 95.575 458.408C96.2053 457.192 96.8383 455.977 97.4747 454.763C98.1125 453.55 98.7526 452.338 99.3965 451.129C100.04 449.919 100.686 448.712 101.335 447.505C101.983 446.298 102.635 445.092 103.289 443.888C103.943 442.684 104.601 441.482 105.261 440.281C105.922 439.081 106.586 437.882 107.254 436.685C107.919 435.489 108.586 434.294 109.258 433.1C109.93 431.905 110.606 430.712 111.284 429.521C111.962 428.331 112.643 427.144 113.326 425.958C114.01 424.77 114.696 423.585 115.385 422.4C116.074 421.217 116.766 420.035 117.461 418.854C118.155 417.672 118.852 416.492 119.553 415.313C120.254 414.137 120.959 412.962 121.667 411.789C122.372 410.614 123.081 409.441 123.791 408.27C124.504 407.101 125.22 405.933 125.938 404.767C126.656 403.6 127.378 402.434 128.102 401.27C128.823 400.106 129.548 398.944 130.276 397.784C131.005 396.624 131.737 395.466 132.472 394.309C133.207 393.153 133.944 391.998 134.685 390.845C135.425 389.692 136.168 388.541 136.914 387.392C137.66 386.243 138.408 385.096 139.16 383.95C139.911 382.805 140.665 381.661 141.422 380.519C142.179 379.377 142.939 378.237 143.7 377.099C144.463 375.96 145.227 374.824 145.995 373.689C146.763 372.555 147.534 371.422 148.307 370.291C149.08 369.16 149.856 368.031 150.635 366.904C151.414 365.777 152.195 364.651 152.98 363.528C153.764 362.404 154.551 361.282 155.34 360.163C156.13 359.042 156.923 357.924 157.718 356.808C158.513 355.692 159.311 354.578 160.112 353.465C160.911 352.354 161.712 351.245 162.517 350.138C163.323 349.029 164.132 347.922 164.944 346.817C165.755 345.713 166.57 344.611 167.387 343.512C168.202 342.412 169.021 341.314 169.841 340.218C170.664 339.122 171.49 338.027 172.318 336.935C173.144 335.843 173.973 334.752 174.805 333.663C175.637 332.576 176.471 331.491 177.309 330.408C178.146 329.322 178.986 328.239 179.829 327.158C180.672 326.078 181.518 325 182.365 323.924C183.214 322.848 184.065 321.774 184.919 320.702C185.772 319.631 186.629 318.562 187.488 317.496C188.346 316.427 189.206 315.36 190.069 314.295C190.932 313.232 191.798 312.17 192.666 311.111C193.534 310.051 194.406 308.994 195.279 307.938C196.154 306.884 197.031 305.831 197.909 304.781C198.789 303.73 199.671 302.682 200.556 301.635C201.439 300.588 202.325 299.544 203.213 298.501C204.102 297.458 204.994 296.416 205.887 295.377C206.781 294.339 207.679 293.304 208.578 292.27C209.477 291.236 210.38 290.203 211.284 289.174C212.188 288.145 213.094 287.118 214.002 286.094C214.911 285.069 215.823 284.046 216.737 283.025C217.651 282.003 218.568 280.984 219.488 279.967C220.406 278.951 221.326 277.937 222.249 276.926C223.173 275.915 224.099 274.907 225.028 273.901C225.957 272.892 226.888 271.885 227.822 270.882C228.755 269.88 229.69 268.881 230.628 267.884C231.566 266.885 232.507 265.887 233.45 264.892C234.394 263.9 235.34 262.91 236.289 261.922C237.236 260.932 238.186 259.943 239.138 258.958C240.091 257.974 241.047 256.993 242.005 256.015C242.963 255.034 243.923 254.054 244.887 253.078C245.849 252.104 246.814 251.133 247.781 250.163C248.747 249.191 249.715 248.221 250.685 247.253C251.657 246.288 252.631 245.326 253.606 244.366C254.583 243.404 255.562 242.445 256.544 241.489C257.524 240.531 258.507 239.576 259.492 238.623C260.478 237.673 261.467 236.725 262.457 235.78C263.447 234.831 264.439 233.885 265.433 232.941C266.428 232 267.426 231.061 268.426 230.125C269.424 229.187 270.426 228.252 271.429 227.32C272.433 226.388 273.44 225.459 274.449 224.531C275.457 223.603 276.467 222.676 277.48 221.753C278.493 220.83 279.509 219.91 280.527 218.992C281.544 218.074 282.563 217.159 283.585 216.247C284.606 215.333 285.629 214.422 286.654 213.513C287.681 212.606 288.709 211.703 289.74 210.801C290.77 209.898 291.802 208.998 292.837 208.1C293.871 207.201 294.906 206.304 295.944 205.41C296.984 204.518 298.025 203.629 299.069 202.742C300.113 201.854 301.161 200.968 302.209 200.085C303.256 199.202 304.305 198.322 305.355 197.444C306.407 196.565 307.462 195.689 308.518 194.814C309.574 193.943 310.631 193.074 311.692 192.207C312.753 191.339 313.816 190.474 314.882 189.61C315.947 188.747 317.014 187.887 318.083 187.03C319.151 186.173 320.222 185.318 321.295 184.466C322.367 183.616 323.441 182.769 324.518 181.925C325.596 181.077 326.675 180.232 327.757 179.388C328.837 178.549 329.919 177.713 331.002 176.879C332.087 176.044 333.174 175.211 334.264 174.382C335.354 173.552 336.447 172.724 337.542 171.9C338.634 171.074 339.729 170.251 340.825 169.429C341.923 168.611 343.023 167.795 344.125 166.981C345.225 166.166 346.326 165.353 347.43 164.544C348.535 163.734 349.643 162.927 350.752 162.123C351.861 161.318 352.972 160.517 354.085 159.718C355.197 158.919 356.312 158.124 357.429 157.33C358.545 156.537 359.663 155.747 360.783 154.958C361.903 154.171 363.025 153.385 364.149 152.603C365.275 151.821 366.402 151.041 367.531 150.265C368.659 149.49 369.788 148.718 370.919 147.948C372.052 147.177 373.187 146.408 374.323 145.642C375.458 144.876 376.595 144.114 377.733 143.353C378.873 142.595 380.015 141.839 381.159 141.086C382.301 140.329 383.445 139.575 384.591 138.824C385.737 138.075 386.884 137.328 388.033 136.584C389.185 135.84 390.338 135.099 391.493 134.361C392.646 133.622 393.8 132.887 394.957 132.154C396.114 131.421 397.272 130.691 398.433 129.963C399.595 129.237 400.759 128.515 401.925 127.795C403.089 127.073 404.255 126.353 405.422 125.637C406.59 124.921 407.76 124.207 408.931 123.496C410.102 122.787 411.275 122.08 412.45 121.377C413.623 120.674 414.798 119.973 415.975 119.275C417.154 118.576 418.334 117.881 419.517 117.188C420.699 116.496 421.883 115.806 423.069 115.119C424.253 114.432 425.439 113.748 426.627 113.066C427.815 112.384 429.005 111.705 430.196 111.029C431.388 110.353 432.581 109.679 433.776 109.008C434.969 108.338 436.164 107.67 437.361 107.005C438.56 106.341 439.761 105.681 440.963 105.023C442.164 104.365 443.366 103.71 444.57 103.058C445.775 102.405 446.981 101.756 448.189 101.109C449.395 100.462 450.603 99.818 451.812 99.1763C453.024 98.5366 454.238 97.9 455.453 97.2658C456.665 96.6298 457.878 95.9963 459.093 95.3663C460.311 94.7375 461.529 94.1115 462.75 93.4889C463.969 92.8658 465.19 92.2452 466.412 91.6279C467.635 91.0102 468.859 90.3952 470.085 89.7833C471.312 89.1727 472.54 88.5652 473.77 87.9607C474.998 87.3539 476.228 86.7502 477.459 86.1489C478.691 85.5493 479.925 84.9531 481.16 84.3592C482.394 83.7653 483.629 83.1737 484.866 82.5862C486.104 81.9977 487.343 81.4117 488.583 80.8295C489.823 80.2462 491.064 79.6659 492.306 79.0891C493.549 78.5134 494.794 77.9402 496.04 77.3708C497.285 76.8004 498.531 76.2329 499.779 75.6688C501.027 75.1042 502.277 74.5424 503.529 73.9836C504.781 73.4278 506.035 72.875 507.29 72.3258C508.542 71.7719 509.796 71.2215 511.051 70.6733C512.309 70.1305 513.568 69.5901 514.828 69.0536C516.086 68.5126 517.346 67.9751 518.606 67.4397C519.868 66.9058 521.13 66.3757 522.395 65.8477C523.66 65.3207 524.926 64.7981 526.194 64.2775C527.461 63.7563 528.729 63.239 529.999 62.7237C531.268 62.2078 532.538 61.6957 533.81 61.1869C535.082 60.6786 536.356 60.174 537.631 59.6715C538.906 59.1694 540.181 58.669 541.458 58.1729C542.734 57.6755 544.012 57.1815 545.29 56.6907C546.569 56.199 547.848 55.7104 549.128 55.2249C550.41 54.7402 551.693 54.259 552.977 53.7809C554.261 53.3023 555.546 52.8264 556.832 52.3536C558.119 51.8821 559.408 51.4136 560.697 50.9483C561.984 50.4826 563.273 50.0195 564.563 49.5595C565.854 49.1005 567.146 48.6448 568.439 48.1922C569.732 47.7372 571.026 47.2858 572.321 46.8364C573.616 46.3884 574.911 45.9443 576.208 45.5024C577.505 45.0614 578.802 44.6248 580.101 44.1903C581.401 43.7575 582.702 43.3272 584.005 42.9002C585.305 42.4708 586.606 42.0448 587.909 41.6209C589.213 41.1989 590.518 40.7793 591.824 40.3639C593.129 39.9488 594.436 39.5376 595.744 39.1286C597.051 38.7172 598.36 38.3092 599.67 37.9045C600.979 37.5023 602.289 37.1039 603.601 36.7077C604.912 36.309 606.224 35.9138 607.538 35.5218C608.851 35.1326 610.165 34.7459 611.48 34.3635C612.795 33.9778 614.111 33.5954 615.428 33.2162C616.745 32.8375 618.062 32.4625 619.381 32.0907C620.7 31.7201 622.019 31.3515 623.34 30.9872C624.66 30.6216 625.982 30.2593 627.304 29.9003C628.626 29.5417 629.95 29.1869 631.274 28.8353C632.598 28.4826 633.923 28.133 635.249 27.7867C636.575 27.4393 637.902 27.0951 639.23 26.7541C640.556 26.4142 641.883 26.0774 643.21 25.7438C644.54 25.4113 645.871 25.082 647.202 24.7558C648.532 24.4286 649.862 24.1046 651.194 23.7838C652.527 23.464 653.861 23.1475 655.196 22.8341C656.53 22.5207 657.864 22.2094 659.199 21.9013C660.534 21.5943 661.87 21.2905 663.207 20.9898C664.544 20.6892 665.882 20.3907 667.221 20.0953C668.558 19.8021 669.896 19.5111 671.234 19.2232C672.574 18.9342 673.913 18.6495 675.254 18.3669C676.594 18.0854 677.936 17.807 679.278 17.5319C680.621 17.2557 681.964 16.9837 683.308 16.7139C684.653 16.4451 685.998 16.1795 687.344 15.9182C688.689 15.6569 690.034 15.3997 691.38 15.1437C692.726 14.8877 694.073 14.637 695.421 14.3863C696.767 14.1335 698.114 13.8838 699.462 13.6395C700.81 13.3983 702.159 13.1593 703.508 12.9256C704.859 12.6897 706.209 12.4592 707.561 12.2287C708.911 11.9981 710.261 11.7729 711.613 11.5477C712.965 11.3246 714.317 11.1058 715.67 10.8891C717.024 10.6713 718.378 10.4567 719.733 10.2463C721.087 10.036 722.441 9.82777 723.796 9.62592C725.15 9.42408 726.505 9.22435 727.859 9.02781C729.217 8.83022 730.575 8.63689 731.933 8.44567C733.289 8.25551 734.645 8.06853 736.002 7.88581C737.359 7.70096 738.718 7.51929 740.076 7.34188C741.435 7.16447 742.795 6.99132 744.156 6.82028C745.515 6.65137 746.875 6.48351 748.235 6.32097C749.595 6.1563 750.954 5.99481 752.315 5.83758C753.676 5.68036 755.038 5.52525 756.4 5.37653C757.763 5.22461 759.126 5.078 760.49 4.9314C761.851 4.78692 763.213 4.6467 764.575 4.5086C765.938 4.36943 767.302 4.23451 768.666 4.10278C770.031 3.97317 771.396 3.84677 772.762 3.72354C774.125 3.59819 775.488 3.47386 776.852 3.35594L777.41 3.30905C778.589 3.20981 779.768 3.11054 780.948 3.01601C782.315 2.90553 783.682 2.79821 785.05 2.69197L785.404 2.66465C786.651 2.5685 787.898 2.47233 789.146 2.38499C790.513 2.28619 791.88 2.18845 793.247 2.10346L793.253 2.1031C794.618 2.0108 795.983 1.91848 797.349 1.83361C798.717 1.74862 800.087 1.66575 801.456 1.59139C802.481 1.53242 803.507 1.47705 804.532 1.42167L805.557 1.36619C806.926 1.29289 808.295 1.22171 809.664 1.15797C811.033 1.09317 812.402 1.03578 813.771 0.972039C815.137 0.912694 816.502 0.859709 817.868 0.806722L817.878 0.806331C819.247 0.753214 820.616 0.700097 821.985 0.657603C823.32 0.617192 824.656 0.575751 825.991 0.534302L826.092 0.531165C827.46 0.488748 828.829 0.456933 830.197 0.425121L830.205 0.424948C831.573 0.393077 832.943 0.371837 834.312 0.339966C835.682 0.308096 837.053 0.308091 838.424 0.27622C839.793 0.265597 841.162 0.233709 842.531 0.233709C843.902 0.233709 845.273 0.201856 846.643 0.201856C847.763 0.199625 848.889 0.199625 850.009 0.201856L850.041 0V0.0318934H854.148H1399.47L1186.97 212.499H854.637C854.123 212.498 853.608 212.498 853.094 212.499C852.066 212.496 851.037 212.496 850.008 212.499C849.177 212.497 848.346 212.497 847.516 212.499C846.487 212.499 845.458 212.531 844.43 212.531C843.403 212.531 842.376 212.563 841.35 212.563L841.345 212.563C840.318 212.573 839.291 212.584 838.264 212.616C837.237 212.637 836.21 212.648 835.184 212.679C834.157 212.701 833.13 212.722 832.103 212.754L829.023 212.849C827.996 212.884 826.969 212.916 825.943 212.959C824.916 213 823.889 213.043 822.863 213.085C821.848 213.131 820.833 213.173 819.819 213.215L819.783 213.217C818.756 213.268 817.729 213.324 816.702 213.377C815.675 213.433 814.648 213.485 813.622 213.548C812.595 213.602 811.568 213.659 810.542 213.723C809.517 213.786 808.492 213.85 807.467 213.925C806.442 213.992 805.416 214.064 804.392 214.138C803.367 214.211 802.342 214.294 801.318 214.369L801.31 214.369C800.287 214.444 799.266 214.52 798.243 214.604C797.431 214.669 796.62 214.737 795.808 214.804L795.173 214.857C794.15 214.949 793.127 215.047 792.104 215.143C791.079 215.237 790.054 215.329 789.029 215.425C788.008 215.523 786.987 215.625 785.966 215.732L785.463 215.783C784.609 215.871 783.755 215.959 782.902 216.05C781.878 216.16 780.856 216.269 779.833 216.385C778.811 216.496 777.79 216.612 776.769 216.73C775.749 216.848 774.729 216.969 773.711 217.092C772.691 217.215 771.671 217.339 770.652 217.465C769.631 217.594 768.61 217.723 767.589 217.855C766.571 217.989 765.553 218.127 764.536 218.267C763.698 218.379 762.861 218.495 762.024 218.61L761.483 218.685C760.465 218.829 759.447 218.976 758.43 219.125C757.414 219.272 756.399 219.423 755.383 219.575C754.367 219.728 753.351 219.884 752.336 220.042C751.319 220.199 750.304 220.357 749.288 220.52C748.272 220.683 747.257 220.85 746.241 221.019C745.228 221.186 744.216 221.354 743.205 221.525C742.19 221.698 741.176 221.874 740.163 222.051C739.152 222.228 738.142 222.406 737.132 222.589C736.121 222.772 735.111 222.956 734.101 223.144C733.09 223.329 732.08 223.518 731.07 223.709C730.06 223.901 729.049 224.094 728.039 224.291C727.031 224.487 726.023 224.686 725.014 224.889C724.007 225.092 723.001 225.296 721.994 225.504C720.987 225.71 719.981 225.918 718.974 226.13C717.969 226.341 716.964 226.556 715.96 226.773C714.957 226.988 713.953 227.207 712.951 227.426C711.946 227.649 710.941 227.874 709.937 228.102C708.935 228.327 707.934 228.552 706.934 228.783C705.932 229.014 704.931 229.249 703.93 229.485C702.928 229.718 701.928 229.954 700.927 230.193C699.929 230.434 698.931 230.679 697.934 230.923C696.936 231.167 695.939 231.414 694.942 231.665C693.946 231.914 692.951 232.166 691.955 232.422C690.961 232.678 689.967 232.935 688.974 233.197C687.979 233.456 686.986 233.717 685.992 233.982C684.998 234.244 684.004 234.511 683.011 234.777C682.02 235.047 681.03 235.32 680.04 235.595C679.05 235.869 678.059 236.147 677.07 236.425C676.081 236.703 675.093 236.983 674.105 237.265C673.118 237.55 672.132 237.838 671.146 238.127C670.158 238.414 669.172 238.704 668.186 238.995C667.203 239.289 666.219 239.585 665.238 239.884C664.254 240.181 663.271 240.481 662.289 240.784C661.306 241.087 660.323 241.393 659.341 241.701C658.361 242.008 657.382 242.317 656.403 242.628C655.423 242.939 654.444 243.252 653.466 243.567C652.49 243.885 651.514 244.205 650.539 244.528C649.563 244.849 648.587 245.173 647.613 245.5C646.638 245.825 645.665 246.152 644.692 246.482C643.719 246.814 642.747 247.146 641.776 247.482C640.805 247.819 639.835 248.156 638.866 248.497C637.895 248.837 636.925 249.18 635.956 249.524C634.989 249.869 634.023 250.217 633.057 250.567C632.09 250.919 631.124 251.271 630.158 251.627C629.195 251.982 628.232 252.339 627.27 252.698C626.307 253.056 625.344 253.416 624.382 253.779C623.422 254.143 622.463 254.508 621.505 254.877C620.545 255.246 619.586 255.618 618.628 255.991C617.672 256.362 616.716 256.736 615.762 257.111C614.805 257.49 613.85 257.87 612.896 258.253C611.941 258.635 610.988 259.019 610.035 259.406C609.082 259.794 608.131 260.184 607.18 260.576C606.229 260.967 605.279 261.361 604.33 261.756C603.383 262.153 602.437 262.551 601.492 262.953C600.546 263.353 599.602 263.755 598.658 264.16C597.713 264.564 596.769 264.97 595.825 265.379C594.883 265.79 593.942 266.204 593.003 266.62C592.061 267.033 591.12 267.448 590.181 267.866C589.243 268.286 588.306 268.709 587.37 269.134C586.433 269.557 585.498 269.981 584.564 270.408C583.629 270.835 582.697 271.266 581.764 271.698C580.833 272.131 579.903 272.567 578.974 273.004C578.044 273.441 577.114 273.88 576.185 274.322C575.258 274.762 574.332 275.205 573.407 275.65C572.48 276.097 571.554 276.545 570.629 276.996C569.705 277.448 568.783 277.901 567.861 278.357C566.94 278.81 566.019 279.266 565.1 279.724C564.18 280.184 563.261 280.648 562.343 281.113C561.427 281.576 560.512 282.04 559.598 282.507C558.684 282.976 557.77 283.445 556.858 283.918C555.946 284.392 555.034 284.868 554.124 285.346C553.213 285.821 552.303 286.298 551.395 286.778C550.488 287.259 549.582 287.742 548.677 288.228C547.772 288.714 546.868 289.203 545.965 289.693C545.061 290.183 544.159 290.676 543.258 291.17C542.356 291.664 541.455 292.16 540.557 292.658C539.66 293.157 538.765 293.659 537.872 294.162C536.975 294.667 536.08 295.174 535.187 295.683C534.292 296.189 533.399 296.698 532.507 297.209C531.617 297.719 530.727 298.232 529.839 298.746C528.95 299.263 528.062 299.784 527.176 300.305C526.289 300.827 525.402 301.35 524.518 301.875C523.637 302.398 522.756 302.924 521.878 303.451C520.996 303.98 520.115 304.51 519.236 305.043C518.358 305.577 517.482 306.113 516.606 306.651C515.73 307.189 514.855 307.729 513.982 308.271C513.108 308.812 512.234 309.356 511.363 309.902C510.492 310.447 509.623 310.994 508.755 311.543C507.888 312.094 507.022 312.646 506.158 313.201C505.291 313.755 504.426 314.311 503.561 314.87C502.699 315.428 501.839 315.988 500.98 316.55C500.12 317.115 499.262 317.682 498.405 318.252C497.547 318.817 496.691 319.384 495.835 319.954C494.983 320.524 494.132 321.097 493.282 321.672C492.43 322.246 491.579 322.823 490.729 323.401C489.88 323.981 489.033 324.562 488.187 325.147C487.34 325.73 486.495 326.316 485.65 326.903C484.807 327.491 483.965 328.08 483.125 328.671C482.285 329.264 481.447 329.858 480.61 330.456C479.772 331.05 478.936 331.646 478.101 332.245C477.266 332.843 476.433 333.443 475.602 334.046C474.77 334.649 473.939 335.255 473.11 335.863C472.283 336.47 471.458 337.08 470.633 337.691C469.806 338.302 468.981 338.915 468.157 339.53C467.334 340.147 466.512 340.765 465.692 341.386C464.872 342.004 464.055 342.624 463.238 343.247C462.42 343.871 461.604 344.496 460.789 345.124C459.976 345.752 459.166 346.381 458.356 347.013C457.544 347.644 456.734 348.277 455.924 348.912C455.117 349.547 454.311 350.184 453.508 350.823C452.705 351.463 451.903 352.106 451.103 352.75C450.3 353.392 449.498 354.036 448.698 354.682C447.899 355.33 447.101 355.98 446.304 356.631C445.51 357.281 444.717 357.932 443.927 358.585C443.135 359.241 442.344 359.898 441.555 360.556C440.766 361.215 439.979 361.875 439.194 362.538C438.407 363.2 437.622 363.865 436.838 364.531C436.057 365.197 435.277 365.864 434.5 366.535C433.72 367.204 432.943 367.876 432.166 368.549C431.39 369.223 430.616 369.898 429.843 370.575C429.071 371.252 428.301 371.931 427.532 372.612C426.762 373.293 425.993 373.975 425.226 374.659C424.461 375.344 423.698 376.03 422.936 376.718C422.171 377.406 421.409 378.096 420.647 378.788C419.887 379.481 419.13 380.177 418.374 380.874C417.618 381.569 416.864 382.267 416.111 382.966C415.359 383.665 414.609 384.366 413.86 385.068C413.11 385.771 412.362 386.475 411.615 387.182C410.868 387.89 410.124 388.6 409.38 389.312C408.637 390.02 407.896 390.73 407.156 391.442C406.419 392.158 405.683 392.875 404.949 393.594C404.211 394.311 403.476 395.03 402.742 395.752C402.01 396.471 401.28 397.192 400.551 397.915C399.824 398.641 399.1 399.369 398.377 400.099C397.65 400.826 396.925 401.555 396.202 402.284C395.481 403.016 394.762 403.75 394.045 404.486C393.325 405.22 392.608 405.955 391.892 406.693C391.179 407.432 390.466 408.173 389.756 408.916C389.044 409.657 388.335 410.4 387.626 411.145C386.92 411.892 386.214 412.64 385.512 413.39C384.808 414.137 384.105 414.886 383.404 415.636C382.705 416.39 382.008 417.145 381.312 417.903C380.615 418.657 379.919 419.413 379.225 420.17C378.534 420.93 377.844 421.691 377.155 422.454C376.465 423.216 375.777 423.978 375.091 424.743C374.406 425.51 373.724 426.279 373.043 427.049C372.36 427.816 371.679 428.584 371 429.354C370.323 430.127 369.648 430.901 368.974 431.677C368.299 432.453 367.625 433.23 366.954 434.01C366.284 434.79 365.616 435.571 364.95 436.354C364.284 437.136 363.619 437.919 362.957 438.704C362.294 439.489 361.633 440.276 360.975 441.064C360.314 441.851 359.655 442.64 358.998 443.43C358.343 444.221 357.689 445.014 357.038 445.807C356.388 446.602 355.74 447.398 355.094 448.196C354.446 448.996 353.8 449.797 353.156 450.6C352.512 451.4 351.869 452.202 351.229 453.005C350.588 453.808 349.949 454.614 349.312 455.42C348.677 456.228 348.044 457.036 347.413 457.847C346.781 458.658 346.152 459.47 345.524 460.284C344.896 461.095 344.27 461.908 343.646 462.722C343.022 463.538 342.4 464.356 341.779 465.176C341.159 465.996 340.54 466.817 339.923 467.641C339.307 468.462 338.692 469.285 338.079 470.111C337.467 470.935 336.858 471.76 336.25 472.587C335.641 473.416 335.033 474.247 334.427 475.079C333.825 475.91 333.225 476.743 332.626 477.577C332.026 478.41 331.427 479.244 330.831 480.081C330.234 480.919 329.639 481.759 329.047 482.6C328.453 483.439 327.862 484.279 327.273 485.12C326.685 485.964 326.099 486.81 325.516 487.656C324.932 488.501 324.35 489.346 323.77 490.193C323.19 491.042 322.611 491.894 322.035 492.746C321.46 493.595 320.887 494.446 320.316 495.298C319.745 496.154 319.176 497.009 318.609 497.867C318.041 498.723 317.475 499.58 316.912 500.437C316.348 501.297 315.787 502.159 315.227 503.023C314.666 503.883 314.109 504.744 313.552 505.608C312.997 506.474 312.444 507.341 311.894 508.21C311.343 509.076 310.794 509.944 310.247 510.813C309.701 511.684 309.158 512.557 308.616 513.431C308.074 514.303 307.534 515.176 306.996 516.05C306.456 516.925 305.917 517.802 305.382 518.679C304.849 519.558 304.319 520.438 303.79 521.32C303.259 522.199 302.73 523.079 302.203 523.961C301.679 524.845 301.158 525.731 300.638 526.618C300.116 527.502 299.596 528.388 299.079 529.275C298.562 530.163 298.048 531.053 297.536 531.943C297.023 532.833 296.513 533.724 296.004 534.616C295.495 535.51 294.988 536.404 294.483 537.301C293.979 538.196 293.478 539.093 292.979 539.991C292.479 540.888 291.98 541.786 291.485 542.686C290.991 543.587 290.498 544.49 290.008 545.393C289.518 546.296 289.029 547.2 288.542 548.105C288.055 549.009 287.57 549.915 287.087 550.822C286.606 551.731 286.126 552.641 285.648 553.551C285.171 554.461 284.695 555.372 284.221 556.285C283.748 557.195 283.279 558.106 282.81 559.019C282.341 559.934 281.874 560.851 281.41 561.769C280.945 562.685 280.482 563.602 280.021 564.519C279.561 565.439 279.104 566.359 278.648 567.281C278.192 568.2 277.738 569.12 277.286 570.042C276.836 570.967 276.387 571.893 275.941 572.82C275.494 573.745 275.049 574.67 274.607 575.598C274.163 576.525 273.722 577.453 273.284 578.381C272.847 579.312 272.414 580.243 271.982 581.176C271.548 582.106 271.117 583.037 270.687 583.97C270.257 584.904 269.831 585.839 269.407 586.775C268.984 587.711 268.563 588.648 268.144 589.586C267.725 590.524 267.308 591.462 266.893 592.402C266.476 593.344 266.063 594.286 265.652 595.229C265.24 596.171 264.83 597.114 264.422 598.057C264.017 599 263.614 599.944 263.214 600.89C262.813 601.836 262.413 602.785 262.017 603.733C261.619 604.68 261.224 605.628 260.831 606.577C260.439 607.528 260.049 608.479 259.661 609.432C259.274 610.382 258.891 611.334 258.508 612.286C258.125 613.239 257.745 614.192 257.366 615.146C256.988 616.103 256.61 617.06 256.235 618.018C255.861 618.976 255.489 619.934 255.121 620.895C254.752 621.852 254.386 622.812 254.023 623.771C253.658 624.733 253.296 625.695 252.935 626.659C252.574 627.618 252.215 628.579 251.859 629.541C251.504 630.506 251.151 631.473 250.8 632.44C250.449 633.405 250.102 634.371 249.757 635.338C249.412 636.305 249.07 637.273 248.73 638.242C248.388 639.211 248.047 640.181 247.709 641.152C247.371 642.123 247.037 643.095 246.704 644.067C246.373 645.04 246.043 646.013 245.716 646.988C245.388 647.962 245.061 648.937 244.738 649.914C244.418 650.89 244.099 651.867 243.783 652.845C243.464 653.822 243.148 654.798 242.833 655.777C242.522 656.755 242.213 657.734 241.906 658.714C241.598 659.694 241.292 660.675 240.989 661.656C240.684 662.638 240.382 663.621 240.083 664.604C239.785 665.586 239.491 666.569 239.199 667.553C238.903 668.538 238.61 669.524 238.32 670.511C238.031 671.497 237.743 672.483 237.458 673.47C237.173 674.458 236.892 675.446 236.612 676.435C236.334 677.424 236.058 678.414 235.784 679.405C235.506 680.394 235.232 681.385 234.96 682.375C234.691 683.368 234.424 684.362 234.159 685.356C233.893 686.347 233.63 687.339 233.369 688.331C233.108 689.326 232.849 690.321 232.594 691.318C232.339 692.311 232.087 693.304 231.836 694.299C231.587 695.298 231.339 696.297 231.095 697.296C230.847 698.293 230.603 699.291 230.36 700.288C230.119 701.287 229.881 702.286 229.646 703.286C229.41 704.286 229.175 705.287 228.943 706.289C228.712 707.289 228.483 708.29 228.257 709.292C228.031 710.294 227.807 711.296 227.586 712.3C227.364 713.304 227.146 714.309 226.928 715.314C226.709 716.318 226.493 717.323 226.28 718.328C226.069 719.332 225.86 720.337 225.654 721.342C225.444 722.35 225.237 723.357 225.033 724.367C224.833 725.373 224.636 726.379 224.44 727.386C224.242 728.396 224.046 729.406 223.853 730.416C223.66 731.426 223.47 732.436 223.282 733.447C223.095 734.456 222.91 735.467 222.728 736.477C222.544 737.487 222.362 738.497 222.184 739.508C222.005 740.521 221.83 741.534 221.657 742.549C221.581 742.995 221.506 743.442 221.431 743.888H1487.5V513.19L1700 300.723V846.773V850.149L1699.99 850.335C1699.99 851.701 1699.99 853.065 1699.99 854.431L1699.96 858.542C1699.95 859.895 1699.93 861.248 1699.9 862.601L1699.9 862.649C1699.88 864.018 1699.86 865.387 1699.83 866.755C1699.81 868.124 1699.78 869.493 1699.74 870.862C1699.71 872.231 1699.68 873.599 1699.63 874.968C1699.59 876.337 1699.55 877.706 1699.51 879.075C1699.46 880.443 1699.41 881.812 1699.35 883.181C1699.3 884.55 1699.24 885.918 1699.19 887.287C1699.13 888.656 1699.06 890.025 1699 891.394C1698.93 892.762 1698.86 894.131 1698.78 895.5C1698.71 896.867 1698.63 898.234 1698.56 899.601C1698.48 900.968 1698.39 902.335 1698.31 903.702C1698.22 905.069 1698.14 906.436 1698.04 907.803C1697.95 909.17 1697.84 910.537 1697.75 911.904C1697.65 913.271 1697.55 914.638 1697.44 916.005C1697.34 917.37 1697.23 918.735 1697.11 920.1C1697 921.465 1696.89 922.83 1696.77 924.195C1696.65 925.561 1696.53 926.926 1696.4 928.291C1696.27 929.654 1696.15 931.018 1696.01 932.381C1695.88 933.744 1695.75 935.108 1695.61 936.471C1695.49 937.676 1695.36 938.88 1695.23 940.085L1695.18 940.56C1695.03 941.922 1694.89 943.284 1694.74 944.645C1694.58 946.007 1694.43 947.368 1694.27 948.729C1694.11 950.089 1693.95 951.449 1693.78 952.808C1693.62 954.168 1693.45 955.528 1693.28 956.887C1693.1 958.245 1692.93 959.603 1692.75 960.961C1692.57 962.319 1692.39 963.677 1692.2 965.034C1692.02 966.391 1691.83 967.746 1691.64 969.102C1691.45 970.459 1691.25 971.815 1691.06 973.17C1690.86 974.526 1690.66 975.882 1690.45 977.238C1690.25 978.592 1690.04 979.947 1689.83 981.3C1689.62 982.653 1689.4 984.006 1689.18 985.357C1688.97 986.71 1688.74 988.063 1688.52 989.414C1688.3 990.765 1688.07 992.116 1687.84 993.466C1687.61 994.817 1687.38 996.167 1687.14 997.517C1686.9 998.867 1686.66 1000.22 1686.42 1001.56C1686.17 1002.91 1685.93 1004.26 1685.68 1005.6C1685.43 1006.95 1685.17 1008.3 1684.92 1009.64C1684.66 1010.99 1684.4 1012.34 1684.13 1013.68C1683.87 1015.02 1683.61 1016.37 1683.34 1017.71C1683.07 1019.05 1682.8 1020.4 1682.52 1021.74C1682.24 1023.08 1681.96 1024.42 1681.67 1025.76C1681.39 1027.1 1681.11 1028.44 1680.82 1029.78C1680.53 1031.12 1680.24 1032.46 1679.94 1033.79C1679.65 1035.13 1679.35 1036.47 1679.05 1037.81C1678.75 1039.14 1678.44 1040.48 1678.13 1041.81C1677.82 1043.15 1677.51 1044.48 1677.19 1045.82C1676.87 1047.15 1676.56 1048.48 1676.24 1049.81C1675.92 1051.14 1675.59 1052.47 1675.26 1053.8C1674.93 1055.13 1674.6 1056.46 1674.27 1057.79C1673.94 1059.12 1673.6 1060.45 1673.26 1061.78C1672.91 1063.1 1672.57 1064.43 1672.22 1065.76C1671.87 1067.08 1671.52 1068.4 1671.17 1069.73C1670.82 1071.05 1670.46 1072.37 1670.1 1073.69C1669.74 1075.02 1669.37 1076.34 1669.01 1077.66C1668.64 1078.98 1668.27 1080.3 1667.9 1081.62C1667.53 1082.93 1667.15 1084.25 1666.77 1085.57C1666.39 1086.89 1666.01 1088.2 1665.62 1089.52C1665.24 1090.83 1664.85 1092.14 1664.45 1093.46C1664.06 1094.77 1663.67 1096.08 1663.27 1097.39C1662.87 1098.7 1662.47 1100.01 1662.07 1101.32C1661.66 1102.63 1661.25 1103.94 1660.84 1105.24C1660.43 1106.55 1660.02 1107.85 1659.6 1109.16C1659.18 1110.46 1658.76 1111.77 1658.34 1113.07C1657.92 1114.38 1657.49 1115.68 1657.06 1116.98C1656.63 1118.28 1656.19 1119.58 1655.76 1120.87C1655.32 1122.17 1654.88 1123.47 1654.44 1124.77C1654 1126.06 1653.55 1127.36 1653.11 1128.65C1652.66 1129.95 1652.2 1131.24 1651.75 1132.53C1651.29 1133.82 1650.83 1135.11 1650.37 1136.4C1649.91 1137.69 1649.45 1138.98 1648.98 1140.27C1648.51 1141.56 1648.05 1142.84 1647.57 1144.13C1647.1 1145.41 1646.62 1146.7 1646.14 1147.98C1645.72 1149.1 1645.3 1150.22 1644.88 1151.33L1644.69 1151.83C1644.2 1153.11 1643.71 1154.39 1643.22 1155.67C1642.73 1156.95 1642.23 1158.22 1641.73 1159.5C1641.24 1160.78 1640.73 1162.05 1640.23 1163.33C1639.73 1164.6 1639.22 1165.87 1638.71 1167.14C1638.2 1168.41 1637.68 1169.68 1637.17 1170.95C1636.65 1172.22 1636.13 1173.49 1635.61 1174.76C1635.08 1176.02 1634.56 1177.29 1634.03 1178.55C1633.5 1179.81 1632.96 1181.08 1632.43 1182.34C1631.89 1183.6 1631.35 1184.86 1630.81 1186.11C1630.27 1187.37 1629.73 1188.63 1629.18 1189.89C1628.64 1191.14 1628.08 1192.4 1627.53 1193.65C1626.98 1194.91 1626.42 1196.16 1625.86 1197.41C1625.3 1198.66 1624.74 1199.91 1624.17 1201.16C1623.61 1202.4 1623.04 1203.65 1622.47 1204.9C1621.9 1206.14 1621.32 1207.38 1620.74 1208.62C1620.16 1209.86 1619.58 1211.11 1619 1212.34C1618.42 1213.59 1617.83 1214.82 1617.24 1216.06C1616.65 1217.3 1616.06 1218.53 1615.46 1219.77C1614.87 1221 1614.27 1222.23 1613.67 1223.46C1613.07 1224.69 1612.46 1225.92 1611.85 1227.15C1611.39 1228.08 1610.93 1229.02 1610.46 1229.95L1610.02 1230.83C1609.41 1232.06 1608.79 1233.28 1608.17 1234.5C1607.55 1235.72 1606.93 1236.94 1606.3 1238.16C1605.68 1239.38 1605.05 1240.6 1604.42 1241.81C1603.79 1243.03 1603.15 1244.25 1602.52 1245.46C1601.88 1246.67 1601.24 1247.88 1600.6 1249.09C1599.96 1250.3 1599.31 1251.51 1598.66 1252.72C1598.01 1253.92 1597.36 1255.13 1596.71 1256.34C1596.05 1257.54 1595.39 1258.74 1594.73 1259.94C1594.07 1261.14 1593.41 1262.34 1592.74 1263.54C1592.07 1264.73 1591.4 1265.93 1590.73 1267.12C1590.06 1268.32 1589.39 1269.51 1588.71 1270.7C1588.03 1271.89 1587.35 1273.08 1586.67 1274.26C1585.99 1275.45 1585.3 1276.64 1584.61 1277.82C1583.92 1279.01 1583.23 1280.19 1582.53 1281.37C1581.84 1282.55 1581.14 1283.73 1580.44 1284.9C1579.74 1286.08 1579.03 1287.26 1578.33 1288.43C1577.62 1289.61 1576.91 1290.78 1576.2 1291.95C1575.49 1293.12 1574.77 1294.29 1574.06 1295.46C1573.34 1296.62 1572.62 1297.79 1571.89 1298.95C1571.17 1300.12 1570.44 1301.28 1569.71 1302.44C1568.99 1303.6 1568.26 1304.76 1567.52 1305.91C1566.79 1307.07 1566.05 1308.22 1565.31 1309.38C1564.57 1310.53 1563.83 1311.68 1563.08 1312.83C1562.34 1313.98 1561.59 1315.13 1560.84 1316.27C1560.08 1317.42 1559.33 1318.56 1558.57 1319.7C1557.82 1320.85 1557.06 1321.99 1556.29 1323.12C1555.53 1324.26 1554.77 1325.4 1554 1326.53C1553.23 1327.67 1552.46 1328.8 1551.69 1329.93C1550.92 1331.06 1550.14 1332.19 1549.36 1333.32C1548.58 1334.45 1547.8 1335.57 1547.02 1336.7C1546.23 1337.82 1545.44 1338.94 1544.65 1340.06C1543.87 1341.18 1543.07 1342.3 1542.28 1343.41C1541.48 1344.53 1540.68 1345.64 1539.88 1346.75C1539.08 1347.87 1538.28 1348.98 1537.47 1350.08C1536.67 1351.19 1535.86 1352.3 1535.05 1353.41C1534.24 1354.51 1533.43 1355.61 1532.61 1356.71C1531.79 1357.81 1530.97 1358.91 1530.15 1360C1529.33 1361.1 1528.51 1362.2 1527.68 1363.29C1526.85 1364.38 1526.02 1365.47 1525.19 1366.56C1524.36 1367.65 1523.52 1368.73 1522.69 1369.82C1521.85 1370.9 1521.01 1371.98 1520.17 1373.07C1519.32 1374.15 1518.48 1375.22 1517.63 1376.3C1516.78 1377.38 1515.93 1378.45 1515.08 1379.52C1514.22 1380.59 1513.37 1381.66 1512.51 1382.73C1511.65 1383.8 1510.79 1384.86 1509.93 1385.93C1509.06 1386.99 1508.2 1388.05 1507.33 1389.11C1506.46 1390.17 1505.59 1391.23 1504.72 1392.29C1503.84 1393.34 1502.96 1394.39 1502.09 1395.44C1501.21 1396.49 1500.32 1397.54 1499.44 1398.59C1498.56 1399.63 1497.67 1400.68 1496.78 1401.72C1495.89 1402.77 1495 1403.81 1494.11 1404.85C1493.21 1405.88 1492.32 1406.92 1491.42 1407.95C1490.52 1408.99 1489.62 1410.02 1488.71 1411.05C1487.81 1412.08 1486.9 1413.1 1485.99 1414.13C1485.08 1415.15 1484.17 1416.18 1483.26 1417.2C1482.34 1418.22 1481.43 1419.23 1480.51 1420.25C1479.59 1421.27 1478.67 1422.28 1477.75 1423.3C1476.82 1424.31 1475.9 1425.32 1474.97 1426.32C1474.04 1427.33 1473.11 1428.34 1472.17 1429.34C1471.24 1430.34 1470.31 1431.34 1469.37 1432.34C1468.43 1433.34 1467.48 1434.34 1466.54 1435.33C1465.6 1436.32 1464.65 1437.31 1463.71 1438.3C1462.76 1439.29 1461.81 1440.28 1460.86 1441.27C1459.9 1442.25 1458.95 1443.23 1457.99 1444.21C1457.03 1445.19 1456.07 1446.17 1455.11 1447.14C1454.15 1448.12 1453.18 1449.09 1452.21 1450.06C1451.25 1451.03 1450.28 1452 1449.31 1452.96C1448.34 1453.93 1447.36 1454.89 1446.38 1455.86C1445.41 1456.82 1444.43 1457.78 1443.45 1458.73C1442.47 1459.69 1441.49 1460.64 1440.5 1461.59C1439.52 1462.55 1438.53 1463.5 1437.54 1464.44C1436.55 1465.39 1435.56 1466.33 1434.56 1467.28C1433.57 1468.22 1432.57 1469.16 1431.57 1470.1C1430.57 1471.04 1429.57 1471.97 1428.57 1472.9C1427.56 1473.84 1426.56 1474.76 1425.55 1475.69C1424.54 1476.62 1423.53 1477.55 1422.52 1478.47C1421.5 1479.39 1420.49 1480.31 1419.47 1481.23C1418.45 1482.15 1417.43 1483.06 1416.41 1483.98C1415.39 1484.89 1414.37 1485.8 1413.34 1486.7C1412.31 1487.61 1411.29 1488.52 1410.26 1489.42C1409.23 1490.32 1408.19 1491.23 1407.16 1492.12C1406.12 1493.02 1405.09 1493.92 1404.05 1494.81C1403.01 1495.7 1401.96 1496.59 1400.92 1497.48C1399.88 1498.37 1398.83 1499.26 1397.79 1500.14C1396.74 1501.02 1395.69 1501.9 1394.64 1502.77C1393.59 1503.65 1392.53 1504.53 1391.48 1505.4C1390.42 1506.27 1389.36 1507.13 1388.3 1508C1387.24 1508.87 1386.18 1509.73 1385.11 1510.6C1384.05 1511.46 1382.98 1512.32 1381.91 1513.18C1380.84 1514.03 1379.77 1514.89 1378.7 1515.74C1377.63 1516.59 1376.55 1517.44 1375.48 1518.28C1374.4 1519.13 1373.32 1519.97 1372.24 1520.81C1371.16 1521.65 1370.07 1522.49 1368.99 1523.32C1367.9 1524.16 1366.82 1524.99 1365.73 1525.82C1364.64 1526.65 1363.55 1527.48 1362.45 1528.31C1361.36 1529.13 1360.27 1529.95 1359.17 1530.77C1358.07 1531.59 1356.97 1532.41 1355.87 1533.22C1354.77 1534.04 1353.67 1534.85 1352.57 1535.66C1351.46 1536.47 1350.35 1537.28 1349.24 1538.08C1348.13 1538.89 1347.02 1539.69 1345.91 1540.49C1344.8 1541.29 1343.68 1542.08 1342.57 1542.88C1341.45 1543.67 1340.33 1544.46 1339.21 1545.25C1338.09 1546.03 1336.97 1546.82 1335.84 1547.6C1334.72 1548.38 1333.59 1549.16 1332.46 1549.94C1331.34 1550.72 1330.21 1551.49 1329.08 1552.26C1327.94 1553.03 1326.81 1553.8 1325.67 1554.56C1324.54 1555.33 1323.4 1556.1 1322.26 1556.86C1321.12 1557.62 1319.98 1558.37 1318.84 1559.13C1317.69 1559.88 1316.55 1560.64 1315.4 1561.39C1314.26 1562.14 1313.11 1562.88 1311.96 1563.62C1310.81 1564.37 1309.66 1565.11 1308.5 1565.85C1307.35 1566.59 1306.2 1567.33 1305.04 1568.06C1303.88 1568.79 1302.72 1569.52 1301.56 1570.25C1300.4 1570.98 1299.23 1571.7 1298.07 1572.42C1296.91 1573.14 1295.74 1573.86 1294.57 1574.58C1293.41 1575.29 1292.24 1576.01 1291.06 1576.72C1289.89 1577.43 1288.72 1578.14 1287.55 1578.85C1286.37 1579.55 1285.19 1580.25 1284.01 1580.95C1282.84 1581.65 1281.66 1582.35 1280.48 1583.04C1279.3 1583.73 1278.11 1584.42 1276.93 1585.1C1275.74 1585.79 1274.56 1586.48 1273.37 1587.16C1272.18 1587.84 1270.99 1588.52 1269.8 1589.2C1268.61 1589.88 1267.41 1590.55 1266.22 1591.22C1265.02 1591.89 1263.83 1592.55 1262.63 1593.22C1261.43 1593.88 1260.23 1594.54 1259.03 1595.2C1257.83 1595.86 1256.63 1596.52 1255.42 1597.17C1254.22 1597.82 1253.01 1598.47 1251.81 1599.12C1250.6 1599.76 1249.39 1600.41 1248.18 1601.05C1246.97 1601.69 1245.76 1602.33 1244.54 1602.96C1243.33 1603.6 1242.11 1604.23 1240.9 1604.86C1239.68 1605.49 1238.46 1606.12 1237.25 1606.75C1236.02 1607.37 1234.8 1607.99 1233.58 1608.6C1232.36 1609.22 1231.13 1609.83 1229.91 1610.45C1228.68 1611.06 1227.46 1611.66 1226.23 1612.27C1225 1612.87 1223.77 1613.47 1222.54 1614.07C1221.3 1614.67 1220.07 1615.27 1218.84 1615.86C1217.6 1616.46 1216.37 1617.05 1215.13 1617.64C1213.89 1618.23 1212.65 1618.81 1211.41 1619.39C1210.17 1619.98 1208.93 1620.56 1207.69 1621.13C1206.45 1621.71 1205.2 1622.28 1203.96 1622.85C1202.71 1623.41 1201.46 1623.98 1200.21 1624.54C1198.96 1625.11 1197.72 1625.67 1196.47 1626.23C1195.21 1626.78 1193.96 1627.34 1192.71 1627.89C1191.45 1628.44 1190.2 1628.99 1188.94 1629.53C1187.68 1630.08 1186.43 1630.62 1185.17 1631.16C1183.91 1631.7 1182.65 1632.23 1181.38 1632.77C1180.12 1633.3 1178.86 1633.83 1177.6 1634.36C1176.33 1634.89 1175.07 1635.41 1173.8 1635.93C1172.53 1636.46 1171.27 1636.98 1170 1637.49C1168.73 1638.01 1167.46 1638.52 1166.19 1639.03C1164.91 1639.54 1163.64 1640.04 1162.36 1640.55C1161.09 1641.05 1159.81 1641.55 1158.54 1642.04C1157.26 1642.54 1155.98 1643.04 1154.7 1643.53C1153.42 1644.02 1152.14 1644.5 1150.86 1644.99C1149.58 1645.47 1148.3 1645.95 1147.02 1646.43C1145.73 1646.91 1144.45 1647.39 1143.16 1647.86C1141.88 1648.33 1140.59 1648.8 1139.3 1649.26C1138.01 1649.73 1136.72 1650.19 1135.43 1650.65C1134.14 1651.11 1132.85 1651.57 1131.56 1652.02C1130.26 1652.47 1128.97 1652.93 1127.67 1653.38C1126.38 1653.82 1125.08 1654.26 1123.79 1654.7C1122.49 1655.14 1121.19 1655.58 1119.89 1656.02C1118.59 1656.45 1117.29 1656.88 1115.99 1657.31C1114.69 1657.74 1113.39 1658.16 1112.08 1658.59C1110.78 1659.01 1109.48 1659.43 1108.17 1659.85C1106.87 1660.26 1105.56 1660.67 1104.25 1661.08C1102.94 1661.49 1101.64 1661.9 1100.33 1662.31C1099.02 1662.71 1097.71 1663.11 1096.39 1663.5C1095.08 1663.9 1093.77 1664.3 1092.46 1664.69C1091.14 1665.08 1089.83 1665.47 1088.52 1665.85C1087.2 1666.23 1085.88 1666.62 1084.57 1667C1083.25 1667.37 1081.93 1667.75 1080.61 1668.12C1079.3 1668.49 1077.98 1668.86 1076.66 1669.22C1075.34 1669.59 1074.01 1669.95 1072.69 1670.31C1071.37 1670.67 1070.05 1671.03 1068.72 1671.38C1067.4 1671.73 1066.07 1672.08 1064.75 1672.43C1063.42 1672.77 1062.09 1673.12 1060.77 1673.46C1059.44 1673.8 1058.11 1674.13 1056.78 1674.46C1055.45 1674.8 1054.12 1675.13 1052.79 1675.46C1051.46 1675.79 1050.13 1676.11 1048.8 1676.43C1047.46 1676.75 1046.13 1677.07 1044.8 1677.38C1043.47 1677.7 1042.13 1678.01 1040.8 1678.31C1039.46 1678.62 1038.12 1678.92 1036.79 1679.22C1035.45 1679.52 1034.11 1679.82 1032.77 1680.12C1031.44 1680.41 1030.1 1680.7 1028.76 1680.99C1027.42 1681.28 1026.08 1681.56 1024.74 1681.84C1023.4 1682.12 1022.05 1682.41 1020.71 1682.68C1019.37 1682.96 1018.03 1683.23 1016.69 1683.5C1015.34 1683.77 1014 1684.03 1012.65 1684.29C1011.31 1684.55 1009.96 1684.81 1008.62 1685.07C1007.27 1685.32 1005.92 1685.57 1004.57 1685.82C1003.23 1686.07 1001.88 1686.32 1000.53 1686.56C999.185 1686.8 997.837 1687.04 996.487 1687.28C995.137 1687.52 993.786 1687.75 992.435 1687.99C991.083 1688.21 989.731 1688.44 988.377 1688.66C987.025 1688.88 985.673 1689.1 984.32 1689.32C982.968 1689.53 981.615 1689.75 980.262 1689.96C978.908 1690.17 977.554 1690.38 976.199 1690.58C974.844 1690.78 973.487 1690.98 972.131 1691.18C970.775 1691.37 969.419 1691.57 968.062 1691.76C966.706 1691.95 965.35 1692.14 963.994 1692.32C962.636 1692.51 961.278 1692.69 959.919 1692.87C958.562 1693.05 957.204 1693.22 955.845 1693.39C954.486 1693.56 953.126 1693.73 951.766 1693.89C950.404 1694.05 949.043 1694.21 947.681 1694.37C946.32 1694.52 944.958 1694.68 943.596 1694.83C942.234 1694.98 940.873 1695.13 939.511 1695.27C938.148 1695.42 936.784 1695.56 935.42 1695.7C934.057 1695.83 932.694 1695.97 931.33 1696.1C929.967 1696.23 928.603 1696.36 927.239 1696.48C926.096 1696.59 924.953 1696.69 923.81 1696.79L923.143 1696.85C921.778 1696.96 920.413 1697.08 919.047 1697.19C917.682 1697.3 916.317 1697.41 914.951 1697.51L914.29 1697.56C913.144 1697.65 911.997 1697.74 910.85 1697.82C909.485 1697.92 908.119 1698.01 906.754 1698.11C905.387 1698.2 904.02 1698.29 902.652 1698.38C901.285 1698.46 899.918 1698.54 898.551 1698.62C897.184 1698.7 895.817 1698.77 894.449 1698.84C893.08 1698.91 891.711 1698.98 890.342 1699.04C888.973 1699.1 887.604 1699.16 886.235 1699.22C884.866 1699.28 883.497 1699.34 882.128 1699.39C880.759 1699.44 879.39 1699.5 878.021 1699.54C877.123 1699.57 876.224 1699.59 875.325 1699.62L873.914 1699.67C872.544 1699.7 871.173 1699.74 869.802 1699.78C868.433 1699.81 867.064 1699.83 865.695 1699.86C864.324 1699.88 862.953 1699.89 861.582 1699.92C860.212 1699.93 858.841 1699.97 857.47 1699.97C856.101 1699.97 854.732 1700 853.363 1700C852.243 1700 851.117 1700 849.997 1700H300.511L513.015 1487.53H850.003V1487.72C850.845 1487.72 851.687 1487.72 852.529 1487.72C853.555 1487.72 854.583 1487.69 855.609 1487.69C856.638 1487.69 857.666 1487.66 858.695 1487.66C859.721 1487.64 860.748 1487.64 861.775 1487.61C862.802 1487.58 863.829 1487.57 864.855 1487.54L864.89 1487.54C865.907 1487.52 866.924 1487.5 867.941 1487.47L871.021 1487.37C872.048 1487.34 873.075 1487.3 874.101 1487.26C875.128 1487.22 876.155 1487.18 877.182 1487.14L877.219 1487.13C878.233 1487.09 879.248 1487.05 880.262 1487C881.289 1486.95 882.316 1486.9 883.342 1486.84C884.367 1486.79 885.391 1486.74 886.417 1486.67C887.444 1486.62 888.471 1486.56 889.497 1486.49C890.524 1486.43 891.551 1486.36 892.577 1486.3C893.601 1486.23 894.623 1486.16 895.647 1486.08C896.672 1486.01 897.697 1485.93 898.721 1485.85L898.737 1485.85C899.757 1485.77 900.777 1485.69 901.796 1485.61C902.819 1485.53 903.842 1485.44 904.865 1485.35C905.89 1485.26 906.916 1485.17 907.94 1485.08C908.723 1485.01 909.505 1484.93 910.288 1484.86L911.004 1484.79L911.516 1484.74C912.369 1484.66 913.221 1484.58 914.073 1484.49C915.096 1484.39 916.119 1484.28 917.142 1484.17C918.164 1484.06 919.185 1483.96 920.206 1483.84C921.228 1483.73 922.249 1483.61 923.27 1483.5C924.292 1483.38 925.313 1483.26 926.334 1483.13C927.353 1483.01 928.373 1482.89 929.392 1482.76C930.412 1482.63 931.431 1482.5 932.45 1482.37C933.47 1482.23 934.49 1482.1 935.509 1481.96C936.527 1481.82 937.545 1481.68 938.561 1481.54C939.578 1481.39 940.593 1481.25 941.609 1481.1C942.627 1480.95 943.645 1480.8 944.661 1480.65C945.678 1480.5 946.693 1480.34 947.709 1480.19C948.723 1480.03 949.737 1479.87 950.751 1479.7C951.749 1479.54 952.746 1479.38 953.744 1479.22L953.798 1479.21C954.812 1479.04 955.826 1478.87 956.84 1478.7C957.852 1478.52 958.864 1478.35 959.876 1478.17C960.888 1477.99 961.901 1477.82 962.912 1477.63C963.923 1477.45 964.933 1477.27 965.943 1477.08C966.954 1476.9 967.964 1476.71 968.974 1476.51C969.983 1476.32 970.991 1476.13 971.999 1475.93C973.01 1475.73 974.021 1475.53 975.03 1475.33C976.035 1475.13 977.04 1474.93 978.044 1474.72C979.051 1474.52 980.058 1474.31 981.064 1474.1C982.071 1473.88 983.078 1473.67 984.084 1473.45C985.088 1473.23 986.091 1473.02 987.093 1472.8C988.096 1472.57 989.1 1472.35 990.102 1472.12C991.105 1471.9 992.109 1471.67 993.111 1471.44C994.111 1471.21 995.11 1470.97 996.109 1470.74C997.108 1470.5 998.108 1470.27 999.106 1470.03C1000.11 1469.79 1001.11 1469.54 1002.1 1469.3C1003.1 1469.05 1004.1 1468.81 1005.1 1468.56C1006.09 1468.31 1007.09 1468.06 1008.08 1467.8C1009.08 1467.55 1010.08 1467.29 1011.07 1467.03C1012.07 1466.77 1013.06 1466.51 1014.05 1466.24C1015.04 1465.98 1016.04 1465.71 1017.03 1465.44C1018.02 1465.18 1019.01 1464.9 1020 1464.63C1020.99 1464.35 1021.99 1464.08 1022.97 1463.8C1023.96 1463.52 1024.95 1463.24 1025.94 1462.96C1026.93 1462.67 1027.91 1462.39 1028.9 1462.1C1029.88 1461.81 1030.87 1461.52 1031.85 1461.23C1032.84 1460.93 1033.82 1460.64 1034.81 1460.34C1035.79 1460.04 1036.77 1459.74 1037.76 1459.44C1038.74 1459.13 1039.72 1458.83 1040.7 1458.52C1041.68 1458.21 1042.66 1457.91 1043.64 1457.59C1044.62 1457.28 1045.6 1456.97 1046.57 1456.65C1047.55 1456.33 1048.53 1456.02 1049.51 1455.69C1050.48 1455.37 1051.45 1455.05 1052.43 1454.72C1053.4 1454.4 1054.38 1454.07 1055.35 1453.73C1056.33 1453.41 1057.3 1453.08 1058.27 1452.75C1059.24 1452.41 1060.21 1452.07 1061.18 1451.73C1062.15 1451.39 1063.12 1451.04 1064.09 1450.7C1065.05 1450.35 1066.02 1450 1066.98 1449.66C1067.95 1449.31 1068.92 1448.96 1069.88 1448.6C1070.85 1448.25 1071.81 1447.89 1072.77 1447.53C1073.74 1447.17 1074.7 1446.81 1075.66 1446.45C1076.62 1446.08 1077.58 1445.72 1078.54 1445.35C1079.5 1444.98 1080.45 1444.61 1081.41 1444.24C1082.37 1443.86 1083.33 1443.49 1084.28 1443.11C1085.24 1442.73 1086.19 1442.36 1087.15 1441.98C1088.1 1441.59 1089.06 1441.21 1090.01 1440.82C1090.96 1440.43 1091.91 1440.04 1092.86 1439.65C1093.81 1439.26 1094.76 1438.86 1095.71 1438.46C1096.66 1438.07 1097.6 1437.67 1098.55 1437.28C1099.49 1436.87 1100.44 1436.47 1101.39 1436.06C1102.33 1435.66 1103.27 1435.25 1104.21 1434.84C1105.16 1434.43 1106.1 1434.02 1107.04 1433.61C1107.98 1433.19 1108.92 1432.78 1109.86 1432.36C1110.8 1431.94 1111.73 1431.52 1112.67 1431.09C1113.61 1430.67 1114.54 1430.25 1115.48 1429.82C1116.41 1429.39 1117.34 1428.96 1118.28 1428.53C1119.21 1428.09 1120.14 1427.66 1121.07 1427.22C1122 1426.79 1122.93 1426.35 1123.86 1425.91C1124.79 1425.47 1125.71 1425.02 1126.64 1424.58C1127.56 1424.13 1128.49 1423.68 1129.41 1423.23C1130.33 1422.78 1131.26 1422.32 1132.18 1421.87C1133.1 1421.41 1134.02 1420.95 1134.94 1420.49C1135.86 1420.04 1136.78 1419.58 1137.7 1419.12C1138.61 1418.65 1139.53 1418.19 1140.45 1417.72C1141.36 1417.25 1142.27 1416.78 1143.18 1416.31C1144.09 1415.84 1145 1415.36 1145.92 1414.88C1146.83 1414.41 1147.74 1413.93 1148.64 1413.45C1149.55 1412.97 1150.46 1412.49 1151.37 1412C1152.27 1411.51 1153.18 1411.03 1154.08 1410.53C1154.98 1410.04 1155.88 1409.55 1156.78 1409.05C1157.68 1408.56 1158.58 1408.06 1159.48 1407.57C1160.38 1407.07 1161.28 1406.57 1162.17 1406.07C1163.07 1405.56 1163.96 1405.05 1164.86 1404.55C1165.75 1404.04 1166.65 1403.53 1167.54 1403.02C1168.43 1402.51 1169.32 1401.99 1170.21 1401.48C1171.09 1400.96 1171.98 1400.44 1172.87 1399.92C1173.75 1399.4 1174.64 1398.87 1175.52 1398.35C1176.4 1397.82 1177.29 1397.3 1178.17 1396.77C1179.05 1396.24 1179.93 1395.71 1180.81 1395.17C1181.69 1394.64 1182.56 1394.11 1183.44 1393.57C1184.31 1393.03 1185.19 1392.49 1186.06 1391.95C1186.93 1391.41 1187.81 1390.87 1188.68 1390.33C1189.55 1389.78 1190.42 1389.23 1191.29 1388.68C1192.16 1388.13 1193.02 1387.58 1193.89 1387.02C1194.75 1386.47 1195.62 1385.91 1196.48 1385.35C1197.34 1384.8 1198.2 1384.24 1199.06 1383.67C1199.92 1383.11 1200.78 1382.54 1201.63 1381.98C1202.49 1381.41 1203.35 1380.84 1204.2 1380.28C1205.06 1379.7 1205.91 1379.13 1206.76 1378.55C1207.61 1377.98 1208.47 1377.4 1209.32 1376.82C1210.16 1376.24 1211.01 1375.66 1211.86 1375.08C1212.7 1374.49 1213.55 1373.91 1214.39 1373.32C1215.23 1372.73 1216.08 1372.15 1216.92 1371.56C1217.76 1370.96 1218.6 1370.37 1219.43 1369.77C1220.27 1369.18 1221.11 1368.58 1221.94 1367.98C1222.78 1367.39 1223.61 1366.78 1224.44 1366.18C1225.27 1365.58 1226.1 1364.97 1226.93 1364.36C1227.76 1363.75 1228.59 1363.14 1229.41 1362.53C1230.24 1361.92 1231.06 1361.31 1231.89 1360.69C1232.71 1360.08 1233.53 1359.46 1234.35 1358.84C1235.17 1358.22 1235.98 1357.6 1236.8 1356.97C1237.62 1356.35 1238.44 1355.72 1239.25 1355.1C1240.06 1354.47 1240.88 1353.84 1241.69 1353.21C1242.5 1352.58 1243.31 1351.95 1244.11 1351.31C1244.92 1350.68 1245.73 1350.04 1246.54 1349.4C1247.34 1348.76 1248.14 1348.12 1248.94 1347.47C1249.74 1346.83 1250.54 1346.19 1251.34 1345.55C1252.14 1344.9 1252.93 1344.25 1253.73 1343.6C1254.53 1342.95 1255.32 1342.3 1256.12 1341.64C1256.91 1340.98 1257.7 1340.32 1258.49 1339.66C1259.28 1339.01 1260.06 1338.35 1260.84 1337.69C1261.63 1337.03 1262.42 1336.36 1263.2 1335.7C1263.98 1335.03 1264.76 1334.36 1265.54 1333.69C1266.32 1333.02 1267.1 1332.35 1267.88 1331.67C1268.65 1331 1269.43 1330.33 1270.2 1329.65C1270.97 1328.97 1271.74 1328.29 1272.51 1327.61C1273.28 1326.93 1274.05 1326.25 1274.81 1325.57C1275.58 1324.88 1276.35 1324.2 1277.11 1323.51C1277.87 1322.82 1278.63 1322.13 1279.39 1321.44C1280.15 1320.74 1280.91 1320.05 1281.67 1319.35C1282.42 1318.66 1283.18 1317.96 1283.93 1317.26C1284.68 1316.56 1285.44 1315.86 1286.18 1315.16C1286.93 1314.46 1287.68 1313.75 1288.43 1313.04C1289.17 1312.33 1289.92 1311.63 1290.66 1310.92C1291.4 1310.21 1292.14 1309.49 1292.88 1308.78C1293.62 1308.07 1294.36 1307.35 1295.1 1306.63C1295.83 1305.92 1296.57 1305.2 1297.3 1304.48C1298.03 1303.76 1298.76 1303.03 1299.49 1302.31C1300.22 1301.58 1300.94 1300.86 1301.67 1300.13C1302.39 1299.4 1303.11 1298.67 1303.84 1297.94C1304.56 1297.21 1305.28 1296.48 1306 1295.74C1306.72 1295.01 1307.44 1294.27 1308.15 1293.54C1308.87 1292.8 1309.58 1292.06 1310.29 1291.31C1311 1290.57 1311.71 1289.83 1312.41 1289.08C1313.12 1288.34 1313.83 1287.59 1314.53 1286.84C1315.23 1286.09 1315.94 1285.34 1316.64 1284.59C1317.34 1283.84 1318.04 1283.08 1318.73 1282.32C1319.43 1281.57 1320.13 1280.81 1320.82 1280.06C1321.51 1279.3 1322.2 1278.54 1322.89 1277.77C1323.58 1277.01 1324.27 1276.25 1324.95 1275.49C1325.64 1274.72 1326.32 1273.95 1327 1273.17C1327.68 1272.41 1328.36 1271.64 1329.04 1270.87C1329.72 1270.1 1330.39 1269.32 1331.07 1268.55C1331.74 1267.78 1332.42 1267 1333.09 1266.22C1333.76 1265.44 1334.43 1264.66 1335.09 1263.87C1335.76 1263.09 1336.42 1262.31 1337.09 1261.52C1337.75 1260.74 1338.41 1259.95 1339.07 1259.16C1339.73 1258.38 1340.39 1257.59 1341.04 1256.8C1341.7 1256.01 1342.35 1255.21 1343 1254.42C1343.65 1253.63 1344.3 1252.83 1344.95 1252.03C1345.6 1251.23 1346.24 1250.43 1346.89 1249.62C1347.53 1248.82 1348.18 1248.02 1348.82 1247.22C1349.45 1246.42 1350.09 1245.61 1350.73 1244.81C1351.36 1244 1352 1243.19 1352.63 1242.38C1353.26 1241.57 1353.89 1240.75 1354.52 1239.94C1355.15 1239.13 1355.77 1238.32 1356.4 1237.51C1357.02 1236.69 1357.64 1235.87 1358.27 1235.05C1358.89 1234.23 1359.5 1233.41 1360.12 1232.59C1360.74 1231.76 1361.35 1230.94 1361.96 1230.11C1362.57 1229.29 1363.19 1228.47 1363.79 1227.64C1364.4 1226.81 1365.01 1225.98 1365.61 1225.14C1366.22 1224.31 1366.82 1223.48 1367.42 1222.65C1368.02 1221.82 1368.62 1220.98 1369.21 1220.14C1369.81 1219.31 1370.4 1218.47 1371 1217.63C1371.59 1216.79 1372.18 1215.95 1372.77 1215.11C1373.36 1214.26 1373.94 1213.42 1374.53 1212.57C1375.11 1211.72 1375.69 1210.88 1376.27 1210.04C1376.85 1209.19 1377.43 1208.33 1378 1207.48C1378.58 1206.63 1379.16 1205.78 1379.73 1204.93C1380.3 1204.07 1380.87 1203.21 1381.44 1202.36C1382 1201.5 1382.57 1200.65 1383.13 1199.79C1383.7 1198.93 1384.26 1198.07 1384.82 1197.2C1385.38 1196.34 1385.93 1195.48 1386.49 1194.62C1387.04 1193.75 1387.6 1192.89 1388.15 1192.02C1388.7 1191.15 1389.25 1190.28 1389.79 1189.42C1390.34 1188.54 1390.89 1187.67 1391.43 1186.8C1391.97 1185.93 1392.51 1185.05 1393.05 1184.18C1393.59 1183.3 1394.12 1182.42 1394.66 1181.54C1395.19 1180.67 1395.72 1179.79 1396.25 1178.91C1396.78 1178.03 1397.31 1177.15 1397.84 1176.26C1398.36 1175.38 1398.88 1174.5 1399.41 1173.61C1399.93 1172.73 1400.45 1171.84 1400.97 1170.95C1401.48 1170.07 1402 1169.18 1402.51 1168.29C1403.02 1167.39 1403.53 1166.5 1404.04 1165.61C1404.55 1164.71 1405.05 1163.82 1405.56 1162.93C1406.06 1162.03 1406.56 1161.14 1407.06 1160.24C1407.56 1159.34 1408.06 1158.44 1408.55 1157.54C1409.05 1156.64 1409.54 1155.74 1410.04 1154.84C1410.53 1153.93 1411.02 1153.03 1411.5 1152.12C1411.99 1151.22 1412.47 1150.31 1412.95 1149.41C1413.43 1148.5 1413.91 1147.59 1414.39 1146.68C1414.87 1145.77 1415.34 1144.86 1415.82 1143.94C1416.29 1143.03 1416.76 1142.12 1417.23 1141.21C1417.7 1140.29 1418.17 1139.38 1418.63 1138.46C1419.1 1137.54 1419.56 1136.63 1420.02 1135.71C1420.48 1134.79 1420.94 1133.87 1421.4 1132.95C1421.85 1132.02 1422.3 1131.1 1422.75 1130.18C1423.21 1129.25 1423.65 1128.33 1424.1 1127.41C1424.55 1126.48 1425 1125.56 1425.44 1124.63C1425.88 1123.7 1426.32 1122.77 1426.76 1121.84C1427.19 1120.91 1427.63 1119.98 1428.06 1119.05C1428.5 1118.12 1428.93 1117.19 1429.36 1116.26C1429.78 1115.32 1430.21 1114.39 1430.63 1113.45C1431.06 1112.52 1431.48 1111.58 1431.9 1110.64C1432.32 1109.7 1432.74 1108.77 1433.15 1107.83C1433.57 1106.88 1433.98 1105.94 1434.39 1105C1434.8 1104.06 1435.21 1103.11 1435.62 1102.17C1436.02 1101.23 1436.42 1100.28 1436.82 1099.34C1437.23 1098.39 1437.63 1097.44 1438.02 1096.49C1438.42 1095.55 1438.81 1094.6 1439.21 1093.65C1439.6 1092.7 1439.99 1091.75 1440.38 1090.8C1440.77 1089.85 1441.15 1088.89 1441.54 1087.94C1441.92 1086.99 1442.3 1086.04 1442.68 1085.08C1443.06 1084.13 1443.43 1083.17 1443.8 1082.21C1444.18 1081.25 1444.55 1080.29 1444.92 1079.33C1445.29 1078.38 1445.66 1077.42 1446.02 1076.46C1446.39 1075.5 1446.75 1074.53 1447.11 1073.57C1447.47 1072.61 1447.83 1071.65 1448.19 1070.68C1448.54 1069.72 1448.89 1068.75 1449.24 1067.79C1449.59 1066.82 1449.94 1065.86 1450.28 1064.89C1450.63 1063.92 1450.97 1062.95 1451.31 1061.98C1451.66 1061.01 1451.99 1060.05 1452.33 1059.08C1452.67 1058.11 1453 1057.13 1453.33 1056.16C1453.67 1055.19 1454 1054.21 1454.32 1053.24C1454.65 1052.27 1454.97 1051.29 1455.3 1050.31C1455.62 1049.34 1455.94 1048.36 1456.26 1047.38C1456.57 1046.41 1456.89 1045.43 1457.2 1044.45C1457.51 1043.47 1457.83 1042.49 1458.13 1041.51C1458.44 1040.53 1458.75 1039.55 1459.05 1038.57C1459.35 1037.59 1459.65 1036.61 1459.95 1035.62C1460.24 1034.64 1460.54 1033.66 1460.84 1032.68C1461.13 1031.69 1461.42 1030.7 1461.71 1029.71C1462 1028.73 1462.29 1027.74 1462.58 1026.76C1462.86 1025.77 1463.14 1024.78 1463.42 1023.79C1463.7 1022.8 1463.98 1021.81 1464.25 1020.82C1464.53 1019.83 1464.8 1018.84 1465.07 1017.85C1465.34 1016.86 1465.61 1015.87 1465.88 1014.87C1466.14 1013.88 1466.4 1012.89 1466.66 1011.9C1466.92 1010.9 1467.18 1009.91 1467.44 1008.91C1467.69 1007.92 1467.94 1006.92 1468.19 1005.92C1468.44 1004.93 1468.69 1003.93 1468.94 1002.93C1469.19 1001.94 1469.43 1000.94 1469.67 999.94C1469.91 998.941 1470.15 997.942 1470.38 996.943C1470.62 995.94 1470.86 994.938 1471.09 993.934C1471.32 992.936 1471.55 991.937 1471.78 990.937C1472 989.935 1472.23 988.931 1472.45 987.928C1472.67 986.924 1472.89 985.919 1473.11 984.914C1473.32 983.909 1473.54 982.902 1473.75 981.895C1473.96 980.893 1474.17 979.89 1474.38 978.887C1474.59 977.879 1474.79 976.871 1474.99 975.862C1475.19 974.856 1475.4 973.85 1475.59 972.842C1475.79 971.833 1475.99 970.822 1476.18 969.812C1476.37 968.801 1476.56 967.789 1476.75 966.776C1476.94 965.768 1477.12 964.76 1477.31 963.751C1477.49 962.742 1477.67 961.731 1477.85 960.721C1478.02 959.706 1478.2 958.69 1478.37 957.674C1478.45 957.231 1478.52 956.788 1478.6 956.345H212.509L212.487 1187.15L117.84 1281.79L0 1399.51Z" fill="black"/>
</svg>
