<svg width="1920" height="772" viewBox="0 0 1920 772" fill="none" xmlns="http://www.w3.org/2000/svg">
<path d="M1105.5 81.6779L1187.85 0.242616L1004.8 0.240723C948.56 0.241034 877.047 18.4155 877.583 128.889L878.654 379.312L948.56 309.211L944.811 227.545C944.275 216.284 949.095 204.594 958.737 204.057H1032.52C1050.2 203.521 1059.43 203.949 1065.86 196.978C1072.29 190.542 1075.5 180.889 1075.5 168.019C1075.5 155.148 1070.42 150.014 1062.38 143.042C1054.35 136.071 1043.9 138.523 1029.44 137.987H958.737C946.417 137.451 941.597 120.29 942.132 109.028C942.668 90.2584 962.486 80.6054 1001.59 81.1416L1105.5 81.6779Z" fill="black"/>
<path d="M1105.5 437.383L1187.85 355.948L1004.8 355.946C948.56 355.947 877.047 374.121 877.583 484.594L878.654 735.017L948.56 664.917L944.811 583.251C944.275 571.989 949.095 560.299 958.737 559.763H1032.52C1050.2 559.227 1059.43 559.655 1065.86 552.683C1072.29 546.248 1075.5 536.595 1075.5 523.724C1075.5 510.853 1070.42 505.719 1062.38 498.748C1054.35 491.776 1043.9 494.229 1029.44 493.693H958.737C946.417 493.156 941.597 475.995 942.132 464.734C942.668 445.964 962.486 436.311 1001.59 436.847L1105.5 437.383Z" fill="black"/>
<path d="M1163.08 635.65C1163.08 645.62 1161 652.599 1156.85 656.588C1152.69 660.409 1145.3 662.32 1134.66 662.32C1124.86 662.32 1118.21 660.077 1114.72 655.591C1111.23 650.938 1109.49 643.377 1109.49 632.909V571.592C1109.49 565.942 1110.49 561.04 1112.48 556.886C1114.47 552.566 1117.38 549.242 1121.2 546.916C1125.03 544.59 1129.51 543.426 1134.66 543.426C1147.29 543.426 1155.6 547.082 1159.59 554.394C1169.23 547.082 1178.53 543.426 1187.51 543.426C1204.95 543.426 1213.68 551.735 1213.68 568.352C1213.68 574.999 1211.77 580.399 1207.94 584.553C1204.12 588.708 1199.14 590.785 1192.99 590.785C1189.33 590.785 1186.34 590.037 1184.02 588.541C1181.86 587.046 1179.78 585.55 1177.79 584.055C1175.96 582.559 1173.8 581.812 1171.3 581.812C1167.65 581.812 1164.91 583.058 1163.08 585.55V635.65Z" fill="black"/>
<path d="M1305.09 579.818C1302.27 574.999 1298.61 572.589 1294.12 572.589C1289.8 572.589 1286.31 575.746 1283.66 582.061C1281 588.375 1279.67 595.604 1279.67 603.746C1279.67 611.39 1280.91 618.203 1283.41 624.185C1285.9 630.167 1289.39 633.158 1293.88 633.158C1298.53 633.158 1302.27 630.914 1305.09 626.428V579.818ZM1271.19 663.816C1258.07 663.816 1247.18 658.499 1238.54 647.864C1229.9 637.063 1225.58 622.357 1225.58 603.746C1225.58 584.803 1229.82 569.764 1238.29 558.631C1246.93 547.331 1257.9 541.682 1271.19 541.682C1284.65 541.682 1297.12 546.418 1308.58 555.889C1313.07 547.581 1320.3 543.426 1330.27 543.426C1339.24 543.426 1346.22 545.42 1351.2 549.409C1356.19 553.23 1358.68 560.376 1358.68 570.844V635.65C1358.68 645.62 1356.6 652.599 1352.45 656.588C1348.3 660.409 1340.98 662.32 1330.52 662.32C1319.55 662.32 1312.32 659.246 1308.83 653.098C1298.2 660.243 1285.65 663.816 1271.19 663.816Z" fill="black"/>
<path d="M1453.69 595.271C1453.69 585.966 1450.03 581.313 1442.72 581.313C1439.23 581.313 1436.32 582.809 1434 585.8C1431.84 588.624 1430.59 592.446 1430.26 597.265V635.65C1430.26 645.787 1428.18 652.766 1424.03 656.588C1419.87 660.409 1412.56 662.32 1402.09 662.32C1392.29 662.32 1385.56 660.077 1381.9 655.591C1378.41 650.938 1376.67 643.377 1376.67 632.909V571.592C1376.67 563.117 1378.91 556.305 1383.4 551.153C1388.05 546.002 1394.2 543.426 1401.84 543.426C1408.16 543.426 1413.48 544.34 1417.8 546.168C1422.12 547.996 1425.36 551.153 1427.52 555.64C1440.48 547.165 1456.26 542.928 1474.87 542.928C1486.67 542.928 1495.15 547.581 1500.3 556.886C1505.62 566.192 1508.27 581.479 1508.27 602.749C1508.27 613.217 1508.03 621.775 1507.53 628.422C1507.03 634.903 1506.2 640.552 1505.03 645.371C1504.04 650.024 1502.38 653.513 1500.05 655.84C1497.72 658.166 1494.98 659.828 1491.82 660.825C1488.83 661.822 1484.93 662.32 1480.11 662.32C1470.8 662.32 1464.07 660.576 1459.92 657.086C1455.93 653.597 1453.94 648.445 1453.94 641.632L1453.69 595.271Z" fill="black"/>
<path d="M1591.57 626.926H1582.59C1582.59 635.567 1580.1 643.626 1575.12 651.104C1570.13 658.582 1563.48 662.32 1555.18 662.32C1545.87 662.32 1538.97 659.745 1534.49 654.594C1530.17 649.276 1528.01 639.971 1528.01 626.677V524.234C1528.01 517.089 1529.17 511.356 1531.5 507.035C1533.82 502.549 1536.81 499.392 1540.47 497.564C1544.29 495.736 1549.19 494.656 1555.18 494.324C1565.48 494.324 1572.37 497.813 1575.86 504.792C1579.35 511.605 1581.1 523.486 1581.1 540.435C1581.1 553.563 1580.35 565.112 1578.85 575.082C1580.02 578.737 1583.76 580.565 1590.07 580.565C1594.06 580.565 1596.72 579.734 1598.05 578.073C1599.54 576.245 1600.29 572.672 1600.29 567.355C1600.29 559.545 1602.28 553.895 1606.27 550.406C1610.43 546.916 1617.41 545.171 1627.21 545.171C1637.51 545.171 1644.41 547.082 1647.9 550.904C1651.55 554.56 1653.38 561.29 1653.38 571.094C1653.38 581.396 1650.31 589.372 1644.16 595.022C1638.01 600.672 1631.12 603.497 1623.47 603.497C1631.28 603.497 1638.18 605.906 1644.16 610.725C1650.31 615.378 1653.38 622.44 1653.38 631.911C1653.38 644.54 1651.64 652.766 1648.15 656.588C1644.82 660.409 1637.84 662.32 1627.21 662.32C1617.41 662.32 1610.43 660.576 1606.27 657.086C1602.28 653.43 1600.29 647.781 1600.29 640.137C1600.29 636.315 1599.96 633.49 1599.29 631.662C1598.63 629.668 1597.72 628.422 1596.55 627.923C1595.55 627.259 1593.89 626.926 1591.57 626.926Z" fill="black"/>
<path d="M1726.5 635.65C1726.5 645.62 1724.42 652.599 1720.26 656.588C1716.11 660.409 1708.8 662.32 1698.33 662.32C1688.53 662.32 1681.8 660.077 1678.14 655.591C1674.65 650.938 1672.91 643.377 1672.91 632.909V571.592C1672.91 563.117 1675.15 556.305 1679.64 551.153C1684.29 546.002 1690.44 543.426 1698.08 543.426C1707.05 543.426 1714.03 545.42 1719.02 549.409C1724 553.23 1726.5 560.376 1726.5 570.844V635.65ZM1672.41 508.78C1672.41 515.427 1674.98 520.246 1680.13 523.237C1685.29 526.228 1691.77 527.724 1699.58 527.724C1708.38 527.724 1715.11 526.311 1719.77 523.486C1724.42 520.661 1726.75 515.759 1726.75 508.78C1726.75 496.151 1717.69 489.837 1699.58 489.837C1690.94 489.837 1684.21 491.582 1679.39 495.071C1674.73 498.561 1672.41 503.13 1672.41 508.78Z" fill="black"/>
<path d="M1797.2 592.529C1808.67 592.363 1814.9 592.28 1815.9 592.28C1818.39 592.28 1820.22 590.785 1821.38 587.794C1822.21 585.633 1822.62 582.642 1822.62 578.82C1822.62 568.352 1819.47 563.117 1813.15 563.117C1810.83 563.117 1808.5 564.364 1806.17 566.856C1804.01 569.349 1802.1 572.922 1800.44 577.574C1798.78 582.061 1797.7 587.046 1797.2 592.529ZM1814.15 663.816C1793.88 663.816 1777.09 658.582 1763.8 648.113C1750.67 637.644 1744.11 623.354 1744.11 605.241C1744.11 585.633 1750.59 570.18 1763.55 558.88C1776.68 547.415 1793.55 541.682 1814.15 541.682C1833.59 541.682 1847.8 545.171 1856.77 552.15C1865.91 558.963 1870.48 568.352 1870.48 580.316C1870.48 582.642 1870.15 584.886 1869.48 587.046C1868.99 589.206 1868.07 591.366 1866.74 593.526C1865.58 595.52 1863.92 597.431 1861.76 599.259C1859.76 600.921 1857.44 602.5 1854.78 603.995C1852.12 605.324 1848.96 606.405 1845.31 607.235C1841.65 607.9 1837.75 608.232 1833.59 608.232L1798.45 608.482C1800.11 613.799 1803.1 618.036 1807.42 621.194C1811.74 624.185 1817.22 625.68 1823.87 625.68C1831.02 625.68 1838.33 624.766 1845.81 622.938C1848.96 622.108 1852.37 620.778 1856.02 618.95C1859.85 617.122 1862.59 616.209 1864.25 616.209C1867.08 616.209 1869.24 617.039 1870.73 618.701C1872.39 620.363 1873.22 622.44 1873.22 624.932C1873.22 627.923 1871.89 631.579 1869.24 635.9C1866.58 640.054 1862.84 644.291 1858.02 648.611C1853.37 652.766 1847.13 656.338 1839.32 659.329C1831.51 662.32 1823.12 663.816 1814.15 663.816Z" fill="black"/>
<path d="M1163.08 279.945C1163.08 289.915 1161 296.894 1156.85 300.882C1152.69 304.704 1145.38 306.615 1134.91 306.615C1125.11 306.615 1118.38 304.372 1114.72 299.885C1111.23 295.232 1109.49 287.672 1109.49 277.203V215.887C1109.49 207.412 1111.73 200.599 1116.22 195.448C1120.87 190.297 1127.02 187.721 1134.66 187.721C1143.64 187.721 1150.62 189.715 1155.6 193.703C1160.59 197.525 1163.08 204.67 1163.08 215.139V279.945ZM1108.99 153.075C1108.99 159.721 1111.57 164.54 1116.72 167.531C1121.87 170.522 1128.35 172.018 1136.16 172.018C1144.97 172.018 1151.7 170.606 1156.35 167.781C1161 164.956 1163.33 160.054 1163.33 153.075C1163.33 140.446 1154.27 134.131 1136.16 134.131C1127.52 134.131 1120.79 135.876 1115.97 139.366C1111.32 142.855 1108.99 147.425 1108.99 153.075Z" fill="black"/>
<path d="M1235.78 279.945C1235.78 289.915 1233.7 296.894 1229.55 300.882C1225.39 304.704 1218 306.615 1207.36 306.615C1197.56 306.615 1190.91 304.372 1187.42 299.885C1183.93 295.232 1182.19 287.672 1182.19 277.203V215.887C1182.19 210.237 1183.19 205.335 1185.18 201.181C1187.17 196.86 1190.08 193.537 1193.9 191.21C1197.73 188.884 1202.21 187.721 1207.36 187.721C1219.99 187.721 1228.3 191.377 1232.29 198.688C1241.93 191.377 1251.23 187.721 1260.21 187.721C1277.65 187.721 1286.38 196.029 1286.38 212.646C1286.38 219.293 1284.47 224.694 1280.64 228.848C1276.82 233.002 1271.84 235.079 1265.69 235.079C1262.03 235.079 1259.04 234.331 1256.72 232.836C1254.56 231.34 1252.48 229.845 1250.48 228.349C1248.66 226.854 1246.5 226.106 1244 226.106C1240.35 226.106 1237.61 227.352 1235.78 229.845V279.945Z" fill="black"/>
<path d="M1350.62 236.824C1362.09 236.658 1368.32 236.575 1369.32 236.575C1371.81 236.575 1373.64 235.079 1374.8 232.088C1375.63 229.928 1376.05 226.937 1376.05 223.115C1376.05 212.646 1372.89 207.412 1366.57 207.412C1364.25 207.412 1361.92 208.658 1359.59 211.151C1357.43 213.643 1355.52 217.216 1353.86 221.869C1352.2 226.355 1351.12 231.34 1350.62 236.824ZM1367.57 308.11C1347.3 308.11 1330.52 302.876 1317.22 292.407C1304.09 281.939 1297.53 267.648 1297.53 249.536C1297.53 229.928 1304.01 214.474 1316.97 203.175C1330.1 191.709 1346.97 185.976 1367.57 185.976C1387.01 185.976 1401.22 189.466 1410.19 196.445C1419.33 203.258 1423.9 212.646 1423.9 224.61C1423.9 226.937 1423.57 229.18 1422.91 231.34C1422.41 233.5 1421.49 235.661 1420.16 237.821C1419 239.815 1417.34 241.726 1415.18 243.554C1413.18 245.215 1410.86 246.794 1408.2 248.29C1405.54 249.619 1402.38 250.699 1398.73 251.53C1395.07 252.194 1391.17 252.527 1387.01 252.527L1351.87 252.776C1353.53 258.094 1356.52 262.331 1360.84 265.488C1365.16 268.479 1370.65 269.975 1377.29 269.975C1384.44 269.975 1391.75 269.061 1399.23 267.233C1402.38 266.402 1405.79 265.073 1409.45 263.245C1413.27 261.417 1416.01 260.503 1417.67 260.503C1420.5 260.503 1422.66 261.334 1424.15 262.995C1425.81 264.657 1426.64 266.734 1426.64 269.227C1426.64 272.218 1425.31 275.874 1422.66 280.194C1420 284.348 1416.26 288.586 1411.44 292.906C1406.79 297.06 1400.56 300.633 1392.75 303.624C1384.94 306.615 1376.54 308.11 1367.57 308.11Z" fill="black"/>
<path d="M1497.41 268.479C1500.4 274.129 1504.56 276.954 1509.87 276.954C1514.36 276.954 1517.85 274.129 1520.34 268.479C1522.84 262.829 1524.08 256.349 1524.08 249.037C1524.08 245.049 1523.75 241.144 1523.08 237.322C1522.42 233.5 1521.51 230.094 1520.34 227.103C1519.18 223.946 1517.68 221.453 1515.86 219.625C1514.03 217.631 1511.95 216.634 1509.62 216.634C1504.47 216.634 1500.4 219.708 1497.41 225.857C1497.41 228.017 1497.41 234.248 1497.41 244.551C1497.41 254.687 1497.41 262.663 1497.41 268.479ZM1497.16 197.94C1508.13 189.798 1520.01 185.727 1532.81 185.727C1545.77 185.727 1556.57 191.21 1565.21 202.178C1573.85 213.145 1578.17 227.02 1578.17 243.803C1578.17 264.076 1571.61 279.945 1558.48 291.41C1545.35 302.71 1528.32 308.36 1507.38 308.36C1494.59 308.36 1483.37 306.532 1473.73 302.876C1464.26 299.22 1456.78 293.737 1451.3 286.425C1445.98 279.114 1443.24 270.307 1443.07 260.004L1442.58 166.036C1442.58 155.733 1445.07 148.173 1450.05 143.354C1455.04 138.535 1461.68 136.125 1469.99 136.125C1479.3 136.125 1486.11 138.369 1490.43 142.855C1494.92 147.176 1497.16 154.155 1497.16 163.793V197.94Z" fill="black"/>
<path d="M1651.2 279.945C1651.2 289.915 1649.12 296.894 1644.97 300.882C1640.82 304.704 1633.5 306.615 1623.04 306.615C1613.23 306.615 1606.5 304.372 1602.85 299.885C1599.36 295.232 1597.61 287.672 1597.61 277.203V215.887C1597.61 207.412 1599.85 200.599 1604.34 195.448C1608.99 190.297 1615.14 187.721 1622.79 187.721C1631.76 187.721 1638.74 189.715 1643.72 193.703C1648.71 197.525 1651.2 204.67 1651.2 215.139V279.945ZM1597.11 153.075C1597.11 159.721 1599.69 164.54 1604.84 167.531C1609.99 170.522 1616.47 172.018 1624.28 172.018C1633.09 172.018 1639.82 170.606 1644.47 167.781C1649.12 164.956 1651.45 160.054 1651.45 153.075C1651.45 140.446 1642.39 134.131 1624.28 134.131C1615.64 134.131 1608.91 135.876 1604.09 139.366C1599.44 142.855 1597.11 147.425 1597.11 153.075Z" fill="black"/>
<path d="M1723.9 279.945C1723.9 289.915 1721.82 296.894 1717.67 300.882C1713.51 304.704 1706.12 306.615 1695.48 306.615C1685.68 306.615 1679.03 304.372 1675.54 299.885C1672.05 295.232 1670.31 287.672 1670.31 277.203V215.887C1670.31 210.237 1671.31 205.335 1673.3 201.181C1675.3 196.86 1678.2 193.537 1682.03 191.21C1685.85 188.884 1690.33 187.721 1695.48 187.721C1708.11 187.721 1716.42 191.377 1720.41 198.688C1730.05 191.377 1739.35 187.721 1748.33 187.721C1765.77 187.721 1774.5 196.029 1774.5 212.646C1774.5 219.293 1772.59 224.694 1768.77 228.848C1764.94 233.002 1759.96 235.079 1753.81 235.079C1750.15 235.079 1747.16 234.331 1744.84 232.836C1742.68 231.34 1740.6 229.845 1738.61 228.349C1736.78 226.854 1734.62 226.106 1732.12 226.106C1728.47 226.106 1725.73 227.352 1723.9 229.845V279.945Z" fill="black"/>
<path d="M1865.66 270.722L1865.41 224.112C1862.59 219.459 1858.93 217.133 1854.45 217.133C1851.62 217.133 1849.05 218.711 1846.72 221.869C1844.56 225.026 1842.9 228.931 1841.73 233.584C1840.57 238.236 1839.99 243.138 1839.99 248.29C1839.99 255.933 1841.24 262.746 1843.73 268.728C1846.22 274.71 1849.71 277.701 1854.2 277.701C1855.03 277.701 1855.86 277.618 1856.69 277.452C1857.52 277.286 1858.27 277.12 1858.93 276.954C1859.6 276.621 1860.26 276.289 1860.93 275.957C1861.59 275.458 1862.17 274.96 1862.67 274.461C1863.17 273.963 1863.67 273.381 1864.17 272.716C1864.67 272.052 1865.16 271.387 1865.66 270.722ZM1920 269.227C1920 282.687 1917.76 292.324 1913.27 298.14C1908.78 303.79 1901.89 306.615 1892.58 306.615C1881.95 306.615 1874.64 303.291 1870.65 296.645C1859.85 304.455 1846.8 308.36 1831.51 308.36C1818.55 308.36 1807.75 303.042 1799.11 292.407C1790.47 281.606 1786.15 266.9 1786.15 248.29C1786.15 229.346 1790.39 214.308 1798.86 203.175C1807.34 191.875 1818.22 186.225 1831.51 186.225C1843.48 186.225 1854.7 190.047 1865.16 197.691V165.787C1865.16 155.65 1867.66 148.173 1872.64 143.354C1877.63 138.369 1884.27 135.876 1892.58 135.876C1901.72 135.876 1908.53 137.704 1913.02 141.36C1917.67 145.015 1920 152.41 1920 163.543V269.227Z" fill="black"/>
<path opacity="0.999" d="M0 636.076V390.022L0.00191744 390.018C0.00091215 389.514 0.000919568 389.01 0.00570667 388.456C0.00824383 387.79 0.00824212 387.173 0.00948677 386.556L0.0238493 384.704C0.0286364 384.087 0.0382066 383.47 0.0477808 382.853L0.0765059 381.003C0.0860801 380.386 0.105223 379.769 0.119584 379.152C0.135861 378.536 0.150226 377.919 0.169374 377.302C0.187943 376.688 0.206986 376.075 0.226032 375.461L0.22634 375.451C0.24501 374.835 0.268949 374.218 0.292885 373.601L0.29295 373.6C0.316864 372.983 0.340776 372.367 0.369473 371.751C0.39628 371.134 0.425008 370.517 0.453731 369.9C0.483411 369.284 0.514048 368.667 0.547557 368.05L0.555111 367.909C0.585588 367.34 0.616062 366.771 0.651437 366.202C0.68734 365.586 0.72468 364.97 0.762977 364.354C0.801753 363.738 0.841003 363.122 0.884087 362.506L0.894349 362.359C0.933974 361.793 0.973582 361.227 1.01765 360.661C1.06217 360.045 1.10813 359.428 1.156 358.813C1.20339 358.197 1.25174 357.582 1.30201 356.967C1.35323 356.352 1.40637 355.737 1.46046 355.122C1.5136 354.506 1.56769 353.891 1.6237 353.276C1.68066 352.662 1.73954 352.047 1.79938 351.433C1.85874 350.819 1.91954 350.204 1.98225 349.59C2.04496 348.976 2.10959 348.362 2.17517 347.747C2.23932 347.134 2.30538 346.52 2.37288 345.907C2.44133 345.293 2.5117 344.68 2.58303 344.066C2.65436 343.453 2.72664 342.841 2.80084 342.228C2.87696 341.616 2.95451 341.003 3.0335 340.39C3.11057 339.777 3.1886 339.165 3.26854 338.552C3.34705 337.94 3.427 337.328 3.50838 336.717C3.59167 336.105 3.6764 335.494 3.76305 334.884C3.8497 334.272 3.93826 333.661 4.02778 333.051C4.11682 332.439 4.2073 331.828 4.29969 331.217C4.3916 330.607 4.48447 329.997 4.57925 329.387C4.67499 328.777 4.77265 328.168 4.87127 327.559C4.96845 326.949 5.06754 326.34 5.16807 325.731C5.26956 325.122 5.37296 324.513 5.47732 323.905C5.58168 323.296 5.68698 322.688 5.79422 322.079C5.90097 321.471 6.00868 320.863 6.11831 320.256C6.22841 319.649 6.33947 319.042 6.45245 318.435C6.56542 317.828 6.68031 317.221 6.79616 316.615C6.91201 316.008 7.02882 315.402 7.14754 314.796C7.2653 314.191 7.38497 313.585 7.50609 312.98C7.62816 312.375 7.75166 311.77 7.87709 311.165C8.00059 310.56 8.12602 309.956 8.25288 309.351C8.38069 308.748 8.50995 308.144 8.64111 307.541C8.7718 306.937 8.90344 306.335 9.037 305.732C9.1696 305.129 9.30412 304.526 9.44007 303.924C9.57651 303.322 9.7139 302.72 9.8532 302.118C9.99203 301.517 10.1323 300.915 10.274 300.315C10.4157 299.714 10.5593 299.114 10.7044 298.514C10.8499 297.914 10.9964 297.314 11.1448 296.715C11.2922 296.116 11.4416 295.516 11.5924 294.917C11.7427 294.319 11.8944 293.721 12.0476 293.123C12.2008 292.525 12.3559 291.927 12.5124 291.33C12.669 290.733 12.8274 290.137 12.9873 289.541C13.1466 288.945 13.3074 288.349 13.4697 287.753C13.6326 287.157 13.7963 286.562 13.962 285.967C14.1271 285.372 14.2937 284.777 14.4617 284.183C14.6294 283.589 14.7984 282.995 14.9688 282.402C15.1397 281.809 15.3121 281.216 15.4858 280.623C15.66 280.031 15.8356 279.439 16.0128 278.847C16.1885 278.256 16.3661 277.666 16.5447 277.076C16.7246 276.485 16.906 275.895 17.0889 275.305C17.2714 274.714 17.4553 274.125 17.6405 273.536C17.8253 272.947 18.012 272.358 18.1996 271.769C18.388 271.182 18.5776 270.595 18.7686 270.008C18.9591 269.421 19.1516 268.835 19.345 268.249C19.5388 267.663 19.7346 267.078 19.9313 266.493C20.1277 265.908 20.3259 265.323 20.525 264.739C20.724 264.155 20.9241 263.571 21.1261 262.987C21.3284 262.404 21.5323 261.821 21.7372 261.238C21.942 260.657 22.1479 260.075 22.3556 259.494C22.5636 258.913 22.7733 258.333 22.9839 257.753C23.1946 257.173 23.4062 256.593 23.6197 256.014C23.8336 255.435 24.0485 254.857 24.2654 254.28C24.4819 253.701 24.6992 253.123 24.9185 252.546C25.1371 251.969 25.3573 251.392 25.579 250.816C25.8013 250.24 26.0244 249.665 26.2494 249.09C26.4739 248.514 26.6998 247.94 26.9272 247.365C27.1543 246.792 27.3827 246.219 27.6124 245.646C27.8428 245.073 28.0744 244.501 28.3076 243.929C28.5405 243.357 28.7746 242.786 29.0101 242.215C29.2463 241.644 29.4837 241.075 29.7226 240.505C29.9604 239.936 30.1997 239.367 30.44 238.799C30.6811 238.231 30.9236 237.663 31.1673 237.097C31.4117 236.53 31.6575 235.963 31.9045 235.397C32.1513 234.831 32.3997 234.265 32.6491 233.7C32.8984 233.135 33.1489 232.571 33.4012 232.008C33.6529 231.444 33.9059 230.881 34.1606 230.318C34.4157 229.756 34.6719 229.195 34.93 228.634C35.1875 228.073 35.4463 227.513 35.7067 226.954C35.9668 226.394 36.2281 225.834 36.4909 225.274C36.7543 224.716 37.0189 224.159 37.285 223.602C37.5508 223.045 37.818 222.488 38.0865 221.932C38.3548 221.376 38.6245 220.82 38.8955 220.265C39.1663 219.711 39.4385 219.158 39.7118 218.605C39.9859 218.052 40.2614 217.499 40.5381 216.947C40.8147 216.396 41.0926 215.845 41.3717 215.295C41.6508 214.744 41.9313 214.194 42.2128 213.645C42.4943 213.096 42.777 212.548 43.0613 212C43.3453 211.452 43.6305 210.904 43.9173 210.357C44.2046 209.811 44.493 209.265 44.7831 208.72C45.0729 208.175 45.3639 207.63 45.6564 207.087C45.9486 206.543 46.2422 205.999 46.537 205.457C46.8317 204.914 47.1279 204.373 47.4252 203.831C47.7232 203.291 48.0225 202.751 48.3231 202.211C48.6228 201.672 48.9235 201.133 49.2261 200.596C49.529 200.057 49.8334 199.52 50.1389 198.983C50.4443 198.447 50.7513 197.912 51.0591 197.377C51.3671 196.842 51.6762 196.308 51.9868 195.774C52.2972 195.241 52.6089 194.708 52.9219 194.176C53.2348 193.643 53.549 193.112 53.8644 192.581C54.1806 192.05 54.4981 191.521 54.8169 190.992C55.1347 190.463 55.4539 189.934 55.7742 189.407C56.0954 188.88 56.4179 188.354 56.7415 187.828C57.0651 187.302 57.3902 186.777 57.7162 186.253C58.0414 185.728 58.3678 185.204 58.6958 184.682C59.0243 184.159 59.354 183.637 59.6853 183.116C60.0164 182.595 60.3486 182.074 60.6822 181.555C61.0158 181.035 61.3506 180.517 61.6866 179.999C62.0226 179.481 62.36 178.964 62.6984 178.448C63.0369 177.932 63.3768 177.416 63.7176 176.902C64.0586 176.387 64.401 175.873 64.7442 175.36C65.0877 174.847 65.4322 174.335 65.7783 173.824C66.1242 173.313 66.4713 172.802 66.8198 172.293C67.1682 171.783 67.5178 171.274 67.8687 170.767C68.2195 170.259 68.5717 169.751 68.925 169.245C69.2783 168.739 69.633 168.233 69.9887 167.729C70.3445 167.224 70.7018 166.72 71.0598 166.217C71.4182 165.714 71.7775 165.212 72.1384 164.711C72.4984 164.21 72.8596 163.71 73.222 163.212C73.5852 162.712 73.9496 162.213 74.3154 161.715C74.6812 161.218 75.0481 160.721 75.4162 160.226C75.7836 159.73 76.1525 159.235 76.522 158.741C76.8927 158.247 77.2648 157.754 77.6377 157.262C78.01 156.77 78.3835 156.278 78.7583 155.788C79.1331 155.298 79.5092 154.809 79.8864 154.321C80.2637 153.832 80.6422 153.343 81.0219 152.856C81.4017 152.37 81.7828 151.884 82.1648 151.399C82.547 150.914 82.9307 150.43 83.3151 149.947C83.6998 149.465 84.0855 148.983 84.4728 148.502C84.8592 148.021 85.2468 147.54 85.6355 147.06C86.0244 146.581 86.4145 146.103 86.8056 145.625C87.197 145.148 87.5897 144.671 87.9832 144.195C88.377 143.72 88.7722 143.246 89.1681 142.773C89.5644 142.299 89.9617 141.827 90.3605 141.355C90.7584 140.884 91.1576 140.413 91.5578 139.943C91.9582 139.473 92.36 139.003 92.7626 138.535C93.1654 138.068 93.5697 137.601 93.9747 137.135C94.3801 136.669 94.7869 136.204 95.1943 135.74C95.6014 135.276 96.0095 134.814 96.4188 134.352C96.8283 133.89 97.2391 133.429 97.6508 132.969C98.0628 132.509 98.4761 132.049 98.8902 131.591C99.3038 131.133 99.7185 130.677 100.134 130.221C100.551 129.766 100.968 129.311 101.386 128.858C101.805 128.403 102.225 127.95 102.645 127.497C103.066 127.046 103.487 126.596 103.91 126.147C104.332 125.696 104.756 125.247 105.181 124.798C105.606 124.351 106.033 123.905 106.46 123.46C106.887 123.014 107.315 122.568 107.744 122.124C108.173 121.681 108.604 121.239 109.035 120.798C109.467 120.356 109.9 119.915 110.334 119.475C110.767 119.036 111.202 118.598 111.638 118.161C112.073 117.723 112.509 117.286 112.946 116.85C113.384 116.415 113.823 115.982 114.262 115.549C114.702 115.116 115.144 114.683 115.586 114.253C116.028 113.821 116.471 113.391 116.914 112.961C117.359 112.533 117.804 112.106 118.25 111.68C118.696 111.252 119.143 110.826 119.591 110.401C120.039 109.977 120.489 109.553 120.939 109.132C121.389 108.709 121.84 108.288 122.292 107.868C122.745 107.448 123.199 107.029 123.653 106.611C124.107 106.193 124.562 105.775 125.018 105.359C125.475 104.943 125.933 104.528 126.391 104.115C126.85 103.701 127.309 103.289 127.769 102.878C128.229 102.466 128.69 102.056 129.152 101.646C129.615 101.237 130.078 100.83 130.542 100.424C131.007 100.017 131.471 99.6114 131.938 99.2068C132.403 98.8017 132.87 98.3977 133.338 97.9946C133.806 97.5927 134.275 97.1921 134.745 96.7924C135.216 96.3921 135.688 95.9929 136.16 95.5951C136.632 95.1972 137.105 94.8005 137.578 94.4051C138.052 94.0091 138.527 93.6142 139.003 93.2202C139.479 92.8275 139.955 92.4358 140.433 92.0452C140.911 91.654 141.39 91.2642 141.87 90.875C142.35 90.4863 142.831 90.0987 143.312 89.7124C143.794 89.3261 144.276 88.941 144.759 88.5571C145.243 88.1741 145.727 87.7923 146.212 87.4118C146.697 87.0297 147.184 86.6489 147.671 86.2688C148.158 85.8907 148.645 85.514 149.133 85.1382C149.622 84.762 150.112 84.3867 150.603 84.0128C151.094 83.6389 151.586 83.266 152.079 82.8945C152.572 82.5222 153.065 82.1513 153.559 81.7813C154.053 81.4123 154.549 81.0446 155.046 80.6779C155.541 80.3107 156.037 79.9445 156.535 79.5797C157.033 79.2148 157.532 78.851 158.031 78.4887C158.531 78.1263 159.032 77.7652 159.533 77.4052C160.034 77.0453 160.536 76.6867 161.04 76.3291C161.542 75.9717 162.046 75.6156 162.551 75.2604C163.056 74.9054 163.561 74.5515 164.067 74.1991C164.575 73.8466 165.083 73.4952 165.591 73.1453C166.099 72.7961 166.608 72.4484 167.118 72.1014C167.628 71.7538 168.139 71.4074 168.651 71.0623C169.163 70.7173 169.675 70.3735 170.188 70.0307C170.701 69.689 171.216 69.3485 171.731 69.0091C172.246 68.6682 172.761 68.3284 173.277 67.9899C173.794 67.6522 174.311 67.3157 174.829 66.9806C175.347 66.6453 175.867 66.3114 176.387 65.9787C176.907 65.646 177.427 65.3145 177.948 64.9842C178.469 64.6538 178.991 64.3251 179.514 63.9971C180.038 63.6701 180.562 63.3445 181.087 63.0199C181.612 62.6947 182.137 62.3705 182.663 62.0478C183.189 61.725 183.716 61.4032 184.244 61.0829C184.772 60.7634 185.3 60.445 185.829 60.1281C186.358 59.8111 186.888 59.4952 187.418 59.1807C187.949 58.866 188.481 58.5527 189.013 58.2406C189.546 57.9284 190.08 57.6178 190.614 57.308C191.147 56.9984 191.682 56.6901 192.217 56.3828C192.752 56.0755 193.288 55.7695 193.825 55.465C194.362 55.1603 194.899 54.8567 195.438 54.5546C195.976 54.2524 196.514 53.9515 197.053 53.6518C197.593 53.3527 198.134 53.055 198.676 52.7587C199.217 52.4622 199.759 52.167 200.301 51.8731C200.844 51.579 201.387 51.2864 201.932 50.9948C202.475 50.7033 203.019 50.4132 203.564 50.1241C204.11 49.8358 204.657 49.549 205.204 49.2632C205.75 48.9766 206.297 48.6911 206.844 48.4072C207.393 48.1239 207.942 47.8418 208.492 47.5612C209.041 47.2804 209.591 47.0008 210.142 46.7226C210.693 46.4443 211.245 46.1671 211.797 45.8914C212.35 45.6163 212.903 45.3425 213.457 45.0701C214.01 44.7967 214.565 44.5246 215.119 44.2537C215.674 43.9835 216.23 43.7149 216.787 43.4473C217.343 43.1796 217.899 42.913 218.457 42.6483C219.014 42.3831 219.572 42.119 220.131 41.8567C220.69 41.5938 221.249 41.3324 221.809 41.0724C222.369 40.813 222.929 40.5547 223.491 40.2982C224.052 40.0411 224.613 39.7854 225.175 39.5312C225.738 39.2768 226.301 39.0236 226.865 38.7718C227.429 38.5214 227.994 38.2723 228.559 38.0248C229.124 37.7752 229.689 37.5272 230.254 37.2801C230.821 37.0356 231.388 36.792 231.956 36.5503C232.523 36.3065 233.09 36.0643 233.658 35.823C234.226 35.5824 234.795 35.3436 235.365 35.1056C235.935 34.8682 236.506 34.6327 237.077 34.3981C237.648 34.1632 238.219 33.9301 238.791 33.6979C239.363 33.4654 239.935 33.2347 240.508 33.0054C241.081 32.7764 241.655 32.549 242.23 32.3226C242.804 32.0963 243.379 31.8708 243.954 31.6472C244.529 31.4231 245.105 31.2005 245.681 30.9794C246.257 30.7578 246.833 30.5376 247.41 30.3188C247.987 30.1004 248.565 29.8836 249.144 29.6682C249.722 29.4525 250.301 29.238 250.881 29.025C251.461 28.8125 252.041 28.6014 252.622 28.3917C253.202 28.1819 253.783 27.9732 254.364 27.7659C254.945 27.5591 255.528 27.3537 256.11 27.1498C256.693 26.9448 257.276 26.7413 257.859 26.5388C258.443 26.337 259.026 26.1369 259.611 25.9377C260.195 25.739 260.78 25.5423 261.365 25.3465C261.95 25.1514 262.537 24.9576 263.124 24.7651C263.709 24.5716 264.296 24.3797 264.882 24.1887C265.47 23.9985 266.058 23.8094 266.646 23.6222C267.234 23.4352 267.823 23.2499 268.413 23.0656C269.002 22.8802 269.591 22.6964 270.181 22.514C270.771 22.3327 271.362 22.1532 271.953 21.9747C272.543 21.795 273.135 21.6169 273.726 21.4403C274.318 21.2649 274.91 21.0907 275.502 20.9183C276.095 20.7446 276.688 20.5722 277.281 20.4013C277.874 20.2307 278.468 20.0617 279.062 19.8942C279.656 19.7272 280.251 19.5611 280.846 19.3969C281.441 19.2322 282.036 19.0689 282.632 18.9071C283.228 18.7456 283.824 18.5857 284.42 18.4272C285.017 18.2683 285.614 18.1108 286.212 17.9547C286.809 17.7982 287.407 17.6431 288.005 17.4894C288.602 17.3363 289.2 17.1845 289.799 17.0342C290.398 16.8844 290.997 16.7359 291.597 16.589C292.196 16.4415 292.796 16.2955 293.395 16.151C293.996 16.0069 294.597 15.8642 295.199 15.723C295.8 15.5818 296.401 15.4415 297.002 15.3027C297.604 15.1643 298.206 15.0274 298.808 14.8919C299.411 14.7565 300.013 14.622 300.617 14.4889C301.219 14.3568 301.822 14.2256 302.425 14.0959C303.028 13.9657 303.632 13.8374 304.236 13.71C304.84 13.5832 305.444 13.4577 306.049 13.3337C306.654 13.2093 307.259 13.0867 307.865 12.9651C308.47 12.844 309.077 12.7244 309.683 12.6066C310.289 12.4888 310.895 12.373 311.501 12.2576C312.108 12.1422 312.715 12.0293 313.322 11.9163C313.929 11.8024 314.535 11.6899 315.143 11.5798C315.75 11.4711 316.358 11.3634 316.966 11.2581C317.574 11.1518 318.183 11.0479 318.792 10.944C319.4 10.8401 320.008 10.7387 320.617 10.6372C321.226 10.5367 321.836 10.438 322.445 10.3404C323.055 10.2422 323.665 10.1455 324.276 10.0508C324.886 9.95597 325.496 9.86215 326.107 9.77119C326.717 9.68024 327.327 9.59024 327.937 9.50167C328.549 9.41263 329.161 9.32552 329.773 9.23935C330.384 9.15366 330.995 9.06941 331.606 8.98707C332.217 8.90377 332.829 8.82191 333.441 8.74197C334.054 8.66202 334.667 8.584 335.279 8.50692C335.892 8.43081 336.505 8.35517 337.117 8.28193C337.73 8.20773 338.343 8.13495 338.955 8.0641C339.569 7.99325 340.182 7.92336 340.796 7.85634C341.41 7.78789 342.024 7.72182 342.639 7.65576C343.252 7.59066 343.866 7.52747 344.48 7.46524C345.094 7.40253 345.708 7.34173 346.322 7.28237C346.938 7.22397 347.553 7.16701 348.168 7.11148C348.782 7.05499 349.396 6.99897 350.011 6.94583L350.264 6.92458C350.794 6.8799 351.325 6.83521 351.856 6.79266C352.472 6.74287 353.088 6.69451 353.704 6.64664L353.864 6.63429C354.426 6.59098 354.988 6.54765 355.55 6.50831C356.166 6.46379 356.782 6.41975 357.398 6.38145L357.4 6.38131C358.015 6.33971 358.63 6.2981 359.246 6.25985C359.862 6.22155 360.479 6.18421 361.096 6.1507C361.558 6.12412 362.02 6.09917 362.482 6.07421L362.944 6.04922C363.561 6.01619 364.177 5.98412 364.794 5.95539C365.411 5.92619 366.028 5.90033 366.645 5.87161C367.26 5.84487 367.875 5.82099 368.491 5.79711L368.495 5.79694L368.496 5.79691C369.113 5.77298 369.729 5.74906 370.346 5.72992C370.948 5.71169 371.55 5.69299 372.152 5.6743L372.196 5.67295C372.812 5.65383 373.429 5.63949 374.046 5.62515L374.049 5.62508C374.666 5.61072 375.282 5.60115 375.899 5.58679C376.517 5.57243 377.134 5.57242 377.752 5.55806C378.369 5.55328 378.986 5.53891 379.603 5.53891C380.22 5.53891 380.838 5.52455 381.455 5.52455C381.96 5.52355 382.467 5.52355 382.972 5.52455L382.986 5.43359V5.44797H384.837H630.532L534.791 101.189H385.057C384.891 101.189 384.725 101.189 384.56 101.189L384.362 101.189C383.898 101.188 383.435 101.188 382.971 101.189C382.597 101.188 382.223 101.188 381.848 101.189C381.385 101.189 380.921 101.203 380.458 101.203C379.995 101.203 379.533 101.218 379.07 101.218H379.069C378.606 101.223 378.143 101.227 377.68 101.242C377.217 101.251 376.755 101.256 376.292 101.27C375.829 101.28 375.367 101.29 374.904 101.304L373.517 101.347C373.054 101.363 372.591 101.377 372.129 101.396C371.666 101.415 371.203 101.434 370.741 101.453C370.278 101.474 369.816 101.494 369.353 101.513C368.891 101.536 368.428 101.561 367.965 101.585C367.503 101.61 367.04 101.633 366.578 101.662C366.115 101.686 365.652 101.712 365.19 101.741C364.728 101.769 364.266 101.798 363.804 101.832C363.343 101.862 362.881 101.894 362.419 101.928C361.957 101.961 361.495 101.998 361.034 102.032C360.572 102.066 360.11 102.1 359.648 102.138C359.282 102.167 358.915 102.198 358.549 102.228L358.266 102.252C357.805 102.293 357.344 102.338 356.883 102.381C356.421 102.423 355.959 102.464 355.497 102.507C355.037 102.552 354.577 102.598 354.117 102.646C353.657 102.693 353.197 102.74 352.737 102.789C352.276 102.839 351.815 102.888 351.354 102.94C350.893 102.99 350.433 103.043 349.973 103.096C349.514 103.149 349.055 103.203 348.595 103.259C348.136 103.314 347.677 103.37 347.218 103.427C346.757 103.485 346.297 103.543 345.837 103.603C345.379 103.663 344.92 103.725 344.462 103.788C344.084 103.839 343.706 103.891 343.328 103.943L343.086 103.977C342.628 104.042 342.169 104.108 341.711 104.175C341.253 104.241 340.796 104.309 340.338 104.378C339.88 104.447 339.423 104.517 338.965 104.588C338.507 104.659 338.05 104.73 337.592 104.803C337.134 104.877 336.677 104.952 336.219 105.028C335.763 105.104 335.307 105.179 334.851 105.256C334.394 105.334 333.937 105.414 333.481 105.494C333.025 105.573 332.57 105.654 332.115 105.736C331.66 105.818 331.204 105.901 330.749 105.986C330.294 106.07 329.839 106.154 329.384 106.24C328.929 106.327 328.473 106.414 328.018 106.503C327.564 106.591 327.11 106.681 326.655 106.772C326.202 106.864 325.748 106.956 325.295 107.049C324.841 107.142 324.387 107.236 323.934 107.331C323.481 107.427 323.028 107.523 322.576 107.621C322.124 107.718 321.672 107.817 321.22 107.915C320.767 108.016 320.315 108.117 319.862 108.22C319.411 108.321 318.96 108.423 318.509 108.527C318.058 108.631 317.607 108.737 317.156 108.843C316.705 108.948 316.254 109.055 315.803 109.162C315.353 109.271 314.903 109.381 314.454 109.491C314.005 109.601 313.555 109.713 313.106 109.825C312.657 109.938 312.209 110.051 311.761 110.167C311.312 110.282 310.865 110.398 310.417 110.516C309.969 110.633 309.522 110.75 309.074 110.87C308.626 110.988 308.178 111.108 307.731 111.228C307.284 111.35 306.838 111.473 306.392 111.597C305.946 111.72 305.5 111.845 305.054 111.971C304.608 112.096 304.163 112.222 303.718 112.349C303.273 112.478 302.829 112.607 302.385 112.737C301.94 112.867 301.496 112.997 301.051 113.129C300.608 113.261 300.165 113.395 299.723 113.529C299.28 113.663 298.837 113.798 298.395 113.935C297.951 114.071 297.508 114.209 297.066 114.348C296.625 114.486 296.184 114.626 295.743 114.766C295.301 114.906 294.86 115.047 294.419 115.189C293.979 115.332 293.54 115.476 293.101 115.622C292.661 115.767 292.221 115.913 291.782 116.06C291.343 116.206 290.905 116.354 290.466 116.503C290.028 116.652 289.59 116.802 289.152 116.953C288.715 117.105 288.278 117.257 287.841 117.411C287.404 117.564 286.967 117.718 286.53 117.873C286.094 118.029 285.659 118.186 285.224 118.343C284.788 118.502 284.353 118.661 283.918 118.821C283.484 118.981 283.05 119.141 282.617 119.303C282.183 119.465 281.749 119.627 281.315 119.791C280.883 119.955 280.451 120.119 280.019 120.285C279.587 120.452 279.155 120.619 278.723 120.788C278.292 120.955 277.861 121.123 277.432 121.292C277.001 121.463 276.57 121.634 276.14 121.807C275.71 121.979 275.281 122.152 274.851 122.326C274.422 122.501 273.993 122.677 273.565 122.853C273.137 123.029 272.709 123.207 272.281 123.385C271.854 123.564 271.428 123.743 271.002 123.924C270.576 124.105 270.151 124.286 269.726 124.468C269.3 124.651 268.874 124.833 268.449 125.018C268.025 125.203 267.601 125.39 267.178 125.577C266.753 125.763 266.329 125.95 265.906 126.138C265.483 126.328 265.061 126.518 264.639 126.71C264.218 126.9 263.796 127.091 263.375 127.284C262.954 127.476 262.534 127.67 262.114 127.865C261.694 128.06 261.275 128.257 260.857 128.454C260.438 128.651 260.019 128.848 259.6 129.048C259.183 129.246 258.766 129.446 258.349 129.646C257.931 129.847 257.514 130.049 257.097 130.252C256.681 130.456 256.265 130.66 255.85 130.866C255.435 131.07 255.02 131.276 254.606 131.482C254.191 131.689 253.778 131.898 253.364 132.108C252.951 132.316 252.539 132.525 252.127 132.736C251.715 132.947 251.303 133.159 250.893 133.372C250.481 133.585 250.071 133.8 249.661 134.015C249.25 134.229 248.84 134.444 248.431 134.661C248.022 134.877 247.614 135.095 247.207 135.314C246.799 135.533 246.391 135.753 245.985 135.974C245.577 136.195 245.171 136.417 244.765 136.64C244.359 136.862 243.953 137.086 243.548 137.31C243.144 137.535 242.741 137.761 242.338 137.988C241.934 138.216 241.531 138.444 241.128 138.673C240.725 138.901 240.323 139.131 239.921 139.361C239.52 139.591 239.119 139.822 238.719 140.053C238.318 140.286 237.918 140.521 237.519 140.756C237.119 140.991 236.72 141.227 236.322 141.464C235.925 141.699 235.528 141.936 235.132 142.174C234.735 142.412 234.338 142.651 233.942 142.891C233.547 143.132 233.152 143.373 232.757 143.616C232.362 143.858 231.968 144.101 231.575 144.346C231.181 144.59 230.787 144.834 230.395 145.08C230.002 145.326 229.611 145.573 229.22 145.82C228.829 146.068 228.439 146.317 228.049 146.567C227.659 146.817 227.269 147.067 226.879 147.319C226.491 147.571 226.103 147.823 225.717 148.076C225.329 148.331 224.943 148.586 224.556 148.843C224.17 149.098 223.784 149.353 223.399 149.61C223.015 149.867 222.631 150.125 222.248 150.384C221.864 150.643 221.481 150.903 221.098 151.163C220.716 151.425 220.334 151.687 219.953 151.95C219.571 152.213 219.19 152.477 218.81 152.742C218.43 153.006 218.051 153.272 217.672 153.538C217.294 153.805 216.916 154.073 216.539 154.342C216.161 154.61 215.785 154.879 215.408 155.149C215.033 155.418 214.657 155.689 214.283 155.96C213.908 156.232 213.534 156.505 213.16 156.779C212.787 157.053 212.415 157.327 212.044 157.603C211.671 157.878 211.299 158.154 210.928 158.431C210.557 158.709 210.187 158.988 209.818 159.268C209.448 159.546 209.08 159.826 208.712 160.106C208.343 160.387 207.976 160.669 207.608 160.952C207.242 161.235 206.877 161.518 206.512 161.803C206.147 162.088 205.781 162.373 205.417 162.659C205.053 162.945 204.69 163.232 204.328 163.52C203.966 163.809 203.605 164.098 203.245 164.388C202.883 164.678 202.522 164.968 202.161 165.259C201.801 165.551 201.442 165.844 201.082 166.137C200.725 166.43 200.368 166.724 200.011 167.018C199.654 167.313 199.298 167.609 198.943 167.906C198.587 168.203 198.233 168.5 197.879 168.799C197.524 169.098 197.17 169.397 196.818 169.697C196.466 169.997 196.114 170.298 195.764 170.6C195.413 170.902 195.062 171.204 194.712 171.508C194.363 171.811 194.014 172.116 193.666 172.421C193.318 172.726 192.971 173.032 192.625 173.339C192.278 173.645 191.931 173.953 191.586 174.261C191.241 174.57 190.897 174.879 190.554 175.189C190.209 175.499 189.866 175.81 189.522 176.122C189.18 176.434 188.839 176.748 188.498 177.062C188.158 177.375 187.818 177.689 187.479 178.004C187.14 178.319 186.802 178.635 186.465 178.952C186.127 179.268 185.79 179.586 185.453 179.904C185.117 180.223 184.781 180.543 184.446 180.864C184.111 181.183 183.777 181.503 183.444 181.824C183.112 182.146 182.781 182.469 182.45 182.793C182.118 183.117 181.786 183.441 181.455 183.766C181.126 184.09 180.797 184.415 180.468 184.74C180.141 185.068 179.815 185.396 179.489 185.725C179.161 186.052 178.835 186.381 178.509 186.71C178.184 187.039 177.86 187.37 177.537 187.702C177.213 188.032 176.89 188.364 176.567 188.696C176.246 189.029 175.925 189.363 175.605 189.698C175.284 190.032 174.964 190.367 174.645 190.702C174.327 191.039 174.009 191.376 173.693 191.714C173.375 192.051 173.059 192.388 172.743 192.726C172.428 193.066 172.114 193.406 171.8 193.747C171.486 194.087 171.173 194.428 170.86 194.769C170.548 195.111 170.238 195.455 169.927 195.798C169.617 196.141 169.307 196.485 168.997 196.83C168.689 197.175 168.381 197.522 168.075 197.869C167.767 198.214 167.46 198.561 167.154 198.908C166.849 199.256 166.545 199.605 166.241 199.954C165.937 200.304 165.634 200.654 165.331 201.006C165.029 201.357 164.728 201.709 164.428 202.062C164.128 202.414 163.828 202.767 163.53 203.121C163.232 203.475 162.934 203.829 162.637 204.184C162.339 204.539 162.042 204.894 161.747 205.251C161.451 205.607 161.157 205.964 160.863 206.322C160.571 206.68 160.279 207.038 159.988 207.398C159.696 207.758 159.405 208.119 159.114 208.481C158.824 208.842 158.535 209.203 158.246 209.565C157.957 209.927 157.67 210.29 157.383 210.654C157.097 211.017 156.811 211.382 156.527 211.747C156.242 212.112 155.959 212.479 155.676 212.845C155.393 213.211 155.111 213.577 154.83 213.944C154.549 214.312 154.268 214.68 153.989 215.049C153.709 215.419 153.43 215.789 153.153 216.16C152.875 216.53 152.598 216.901 152.321 217.273C152.046 217.645 151.771 218.017 151.498 218.389C151.223 218.763 150.949 219.137 150.676 219.512C150.405 219.887 150.134 220.262 149.865 220.638C149.594 221.013 149.325 221.389 149.056 221.766C148.787 222.144 148.519 222.522 148.252 222.901C147.985 223.279 147.718 223.658 147.453 224.037C147.188 224.417 146.924 224.798 146.661 225.18C146.398 225.56 146.136 225.941 145.875 226.323C145.613 226.705 145.352 227.089 145.093 227.473C144.834 227.856 144.576 228.239 144.319 228.623C144.061 229.008 143.805 229.394 143.549 229.781C143.294 230.166 143.039 230.552 142.785 230.939C142.531 231.326 142.278 231.715 142.025 232.104C141.773 232.492 141.522 232.88 141.271 233.269C141.021 233.659 140.772 234.05 140.524 234.442C140.275 234.832 140.028 235.223 139.782 235.614C139.536 236.007 139.291 236.4 139.047 236.794C138.803 237.187 138.559 237.58 138.317 237.974C138.074 238.369 137.831 238.764 137.59 239.159C137.35 239.555 137.111 239.952 136.873 240.349C136.633 240.745 136.395 241.142 136.158 241.539C135.922 241.937 135.687 242.336 135.453 242.736C135.217 243.135 134.983 243.534 134.75 243.934C134.517 244.334 134.286 244.735 134.055 245.136C133.824 245.537 133.594 245.938 133.365 246.34C133.135 246.743 132.907 247.146 132.679 247.55C132.453 247.954 132.227 248.358 132.002 248.762C131.776 249.167 131.552 249.571 131.329 249.977C131.106 250.383 130.884 250.79 130.663 251.197C130.442 251.603 130.222 252.011 130.003 252.419C129.783 252.826 129.565 253.234 129.347 253.643C129.13 254.053 128.914 254.462 128.699 254.873C128.484 255.283 128.269 255.693 128.056 256.105C127.843 256.515 127.631 256.925 127.42 257.337C127.209 257.749 126.998 258.162 126.789 258.576C126.58 258.989 126.371 259.402 126.163 259.815C125.956 260.23 125.75 260.644 125.545 261.06C125.339 261.474 125.135 261.889 124.931 262.304C124.728 262.721 124.526 263.138 124.325 263.556C124.124 263.972 123.923 264.39 123.724 264.807C123.524 265.225 123.326 265.643 123.128 266.062C122.931 266.481 122.736 266.901 122.542 267.321C122.346 267.74 122.152 268.16 121.958 268.58C121.764 269.001 121.573 269.422 121.382 269.844C121.191 270.266 121.001 270.688 120.813 271.111C120.623 271.533 120.436 271.956 120.249 272.38C120.061 272.804 119.875 273.229 119.689 273.654C119.504 274.078 119.319 274.503 119.135 274.928C118.953 275.353 118.772 275.778 118.591 276.204C118.41 276.631 118.23 277.058 118.052 277.486C117.873 277.912 117.695 278.34 117.517 278.767C117.341 279.195 117.165 279.624 116.991 280.053C116.816 280.482 116.643 280.911 116.471 281.34C116.298 281.769 116.127 282.199 115.956 282.629C115.786 283.06 115.616 283.491 115.447 283.923C115.278 284.354 115.111 284.786 114.945 285.219C114.779 285.651 114.614 286.083 114.45 286.515C114.286 286.948 114.122 287.382 113.96 287.816C113.797 288.249 113.636 288.682 113.475 289.115C113.315 289.55 113.156 289.986 112.998 290.421C112.84 290.856 112.683 291.292 112.528 291.727C112.373 292.163 112.219 292.599 112.065 293.036C111.911 293.473 111.758 293.91 111.605 294.347C111.453 294.785 111.302 295.223 111.153 295.661C111.003 296.099 110.855 296.538 110.707 296.977C110.559 297.416 110.412 297.855 110.267 298.295C110.122 298.735 109.979 299.176 109.837 299.616C109.693 300.056 109.55 300.496 109.409 300.937C109.268 301.378 109.129 301.819 108.991 302.261C108.852 302.702 108.714 303.144 108.578 303.587C108.44 304.029 108.304 304.472 108.169 304.915C108.035 305.358 107.903 305.8 107.771 306.244C107.638 306.688 107.506 307.132 107.375 307.577C107.245 308.021 107.115 308.466 106.987 308.91C106.859 309.355 106.732 309.801 106.606 310.246C106.48 310.692 106.356 311.138 106.232 311.585C106.107 312.03 105.984 312.477 105.861 312.923C105.74 313.37 105.62 313.818 105.5 314.266C105.381 314.713 105.262 315.16 105.144 315.607C105.027 316.055 104.91 316.504 104.795 316.953C104.68 317.4 104.567 317.848 104.454 318.296C104.341 318.746 104.23 319.196 104.12 319.647C104.008 320.096 103.898 320.545 103.789 320.995C103.68 321.445 103.573 321.895 103.467 322.346C103.361 322.796 103.255 323.247 103.15 323.699C103.046 324.15 102.943 324.601 102.841 325.052C102.739 325.504 102.639 325.955 102.539 326.408C102.439 326.86 102.34 327.313 102.242 327.766C102.144 328.218 102.047 328.671 101.95 329.124C101.856 329.576 101.761 330.029 101.668 330.482C101.574 330.936 101.481 331.39 101.389 331.845C101.299 332.298 101.21 332.752 101.122 333.206C101.032 333.661 100.944 334.116 100.857 334.571C100.77 335.026 100.685 335.481 100.6 335.937C100.516 336.392 100.432 336.847 100.35 337.302C100.267 337.757 100.185 338.213 100.105 338.668C100.024 339.124 99.9455 339.581 99.8674 340.038C99.8334 340.239 99.7995 340.441 99.766 340.642H670.194V236.685L765.935 140.944V387.003V388.525L765.93 388.609C765.932 389.224 765.932 389.839 765.93 390.454L765.916 392.307C765.911 392.924 765.902 393.54 765.892 394.157C765.883 394.774 765.873 395.391 765.859 396.008C765.849 396.625 765.835 397.241 765.82 397.858C765.804 398.475 765.79 399.092 765.771 399.708C765.752 400.325 765.733 400.942 765.714 401.559C765.692 402.176 765.668 402.793 765.644 403.409C765.621 404.026 765.594 404.643 765.57 405.26C765.543 405.877 765.512 406.493 765.483 407.11C765.453 407.727 765.42 408.344 765.387 408.961C765.354 409.577 765.319 410.193 765.285 410.808C765.249 411.425 765.212 412.04 765.174 412.656C765.135 413.272 765.096 413.888 765.052 414.504C765.01 415.12 764.964 415.737 764.921 416.352C764.877 416.968 764.831 417.585 764.783 418.2C764.735 418.816 764.685 419.431 764.635 420.046C764.584 420.661 764.532 421.276 764.479 421.891C764.425 422.506 764.37 423.122 764.313 423.737C764.256 424.351 764.199 424.965 764.14 425.58C764.08 426.194 764.019 426.808 763.957 427.423C763.894 428.037 763.83 428.651 763.764 429.266C763.698 429.879 763.632 430.493 763.563 431.106C763.495 431.72 763.424 432.333 763.353 432.947C763.281 433.559 763.208 434.172 763.133 434.785C763.059 435.397 762.983 436.01 762.905 436.623C762.828 437.235 762.75 437.847 762.67 438.458C762.59 439.07 762.507 439.682 762.423 440.294C762.34 440.905 762.254 441.516 762.168 442.127C762.082 442.738 761.995 443.349 761.906 443.96C761.817 444.571 761.726 445.182 761.634 445.793C761.542 446.403 761.447 447.014 761.352 447.624C761.257 448.233 761.16 448.843 761.062 449.452C760.964 450.061 760.864 450.671 760.763 451.28C760.662 451.889 760.56 452.497 760.456 453.106C760.353 453.714 760.247 454.323 760.14 454.931C760.033 455.539 759.926 456.147 759.816 456.754C759.706 457.362 759.595 457.968 759.482 458.575C759.37 459.182 759.256 459.789 759.14 460.396C759.024 461.002 758.906 461.608 758.787 462.214C758.669 462.82 758.549 463.425 758.428 464.03C758.307 464.635 758.184 465.241 758.06 465.846C757.934 466.45 757.807 467.055 757.678 467.659C757.552 468.263 757.424 468.867 757.295 469.47C757.164 470.073 757.031 470.676 756.897 471.278C756.765 471.881 756.631 472.484 756.496 473.086C756.36 473.689 756.222 474.291 756.083 474.892C755.943 475.494 755.8 476.095 755.657 476.696C755.516 477.296 755.373 477.897 755.229 478.497C755.084 479.097 754.937 479.696 754.789 480.295C754.642 480.894 754.494 481.493 754.344 482.091C754.193 482.69 754.04 483.289 753.886 483.887C753.732 484.485 753.576 485.083 753.418 485.681C753.262 486.277 753.105 486.873 752.946 487.469C752.787 488.066 752.626 488.662 752.464 489.258C752.301 489.854 752.137 490.449 751.971 491.044C751.806 491.639 751.64 492.233 751.472 492.828C751.304 493.422 751.135 494.015 750.964 494.609C750.794 495.202 750.621 495.795 750.447 496.387C750.273 496.98 750.098 497.572 749.92 498.164C749.744 498.754 749.566 499.345 749.386 499.935C749.207 500.526 749.026 501.116 748.844 501.706C748.662 502.296 748.478 502.886 748.293 503.475C748.108 504.063 747.921 504.651 747.734 505.239C747.545 505.827 747.356 506.415 747.165 507.002C746.974 507.589 746.782 508.176 746.588 508.761C746.394 509.347 746.199 509.933 746.002 510.518C745.806 511.103 745.607 511.687 745.408 512.272C745.209 512.856 745.009 513.44 744.807 514.023C744.605 514.606 744.401 515.188 744.196 515.77C743.991 516.352 743.783 516.935 743.575 517.516C743.368 518.097 743.159 518.678 742.949 519.258C742.739 519.838 742.527 520.417 742.314 520.997C742.1 521.576 741.885 522.155 741.668 522.733C741.451 523.312 741.234 523.89 741.015 524.467C740.796 525.044 740.576 525.621 740.354 526.197C740.132 526.773 739.909 527.348 739.684 527.923C739.459 528.499 739.233 529.073 739.006 529.648C738.779 530.221 738.551 530.794 738.321 531.367C738.091 531.94 737.859 532.512 737.626 533.084C737.393 533.656 737.159 534.227 736.923 534.798C736.687 535.368 736.449 535.938 736.211 536.507C735.972 537.077 735.732 537.646 735.491 538.214C735.25 538.782 735.007 539.35 734.763 539.916C734.52 540.483 734.275 541.05 734.029 541.616C733.782 542.182 733.534 542.748 733.284 543.313C733.035 543.878 732.784 544.442 732.532 545.005C732.279 545.569 732.025 546.132 731.77 546.695C731.516 547.257 731.26 547.818 731.003 548.379C730.746 548.94 730.487 549.5 730.227 550.059C729.966 550.619 729.704 551.178 729.44 551.736C729.177 552.295 728.913 552.853 728.648 553.411C728.382 553.968 728.115 554.525 727.847 555.081C727.578 555.636 727.309 556.191 727.038 556.746C726.767 557.3 726.495 557.854 726.221 558.408C725.947 558.961 725.672 559.514 725.395 560.065C725.119 560.618 724.841 561.17 724.562 561.721C724.283 562.271 724.002 562.821 723.72 563.371C723.439 563.92 723.156 564.468 722.872 565.016C722.587 565.564 722.301 566.111 722.013 566.658C721.727 567.205 721.439 567.751 721.15 568.296C720.86 568.841 720.569 569.385 720.277 569.928C719.985 570.473 719.691 571.016 719.396 571.559C719.102 572.101 718.805 572.643 718.508 573.184C718.21 573.725 717.911 574.265 717.61 574.804C717.31 575.344 717.008 575.882 716.705 576.42C716.403 576.957 716.099 577.494 715.794 578.03C715.489 578.567 715.182 579.103 714.874 579.638C714.566 580.173 714.257 580.708 713.946 581.241C713.636 581.775 713.324 582.307 713.011 582.839C712.698 583.371 712.383 583.902 712.066 584.432C711.751 584.963 711.434 585.494 711.116 586.023C710.798 586.552 710.478 587.079 710.157 587.606C709.836 588.134 709.515 588.661 709.192 589.187C708.868 589.713 708.543 590.238 708.217 590.763C707.891 591.287 707.563 591.811 707.235 592.334C706.907 592.857 706.578 593.378 706.248 593.9C705.917 594.421 705.585 594.941 705.251 595.461C704.917 595.98 704.583 596.499 704.247 597.017C703.911 597.534 703.573 598.052 703.235 598.568C702.896 599.084 702.557 599.599 702.216 600.114C701.875 600.629 701.532 601.142 701.189 601.655C700.846 602.168 700.501 602.68 700.155 603.191C699.809 603.703 699.462 604.213 699.113 604.723C698.765 605.232 698.416 605.741 698.065 606.249C697.714 606.757 697.362 607.264 697.008 607.77C696.655 608.277 696.3 608.782 695.945 609.287C695.589 609.791 695.232 610.295 694.873 610.798C694.515 611.3 694.156 611.802 693.795 612.302C693.434 612.804 693.072 613.304 692.709 613.804C692.346 614.304 691.983 614.803 691.618 615.301C691.252 615.798 690.885 616.294 690.517 616.79C690.15 617.285 689.781 617.78 689.411 618.274C689.041 618.768 688.668 619.261 688.296 619.753C687.923 620.246 687.55 620.737 687.175 621.228C686.8 621.718 686.424 622.207 686.047 622.695C685.67 623.184 685.291 623.672 684.911 624.159C684.532 624.646 684.151 625.132 683.768 625.616C683.386 626.101 683.003 626.585 682.618 627.068C682.233 627.551 681.848 628.032 681.46 628.513C681.074 628.995 680.686 629.476 680.298 629.955C679.909 630.435 679.519 630.913 679.128 631.39C678.736 631.868 678.344 632.344 677.95 632.82C677.556 633.295 677.161 633.77 676.765 634.243C676.369 634.716 675.972 635.188 675.573 635.66C675.175 636.132 674.776 636.602 674.375 637.073C673.975 637.543 673.573 638.012 673.171 638.48C672.768 638.948 672.364 639.414 671.959 639.88C671.553 640.346 671.146 640.812 670.739 641.276C670.332 641.739 669.924 642.202 669.514 642.663C669.105 643.125 668.694 643.586 668.282 644.046C667.87 644.506 667.457 644.964 667.043 645.422C666.629 645.88 666.215 646.338 665.799 646.795C665.383 647.25 664.965 647.704 664.547 648.158C664.128 648.612 663.709 649.066 663.288 649.518C662.868 649.97 662.446 650.42 662.024 650.869C661.6 651.319 661.175 651.769 660.75 652.217C660.325 652.664 659.9 653.11 659.473 653.555C659.046 654.002 658.618 654.447 658.189 654.891C657.76 655.334 657.329 655.776 656.898 656.217C656.466 656.659 656.033 657.101 655.599 657.541C655.166 657.98 654.731 658.418 654.296 658.854C653.86 659.292 653.424 659.728 652.987 660.163C652.548 660.599 652.109 661.033 651.668 661.467C651.229 661.9 650.789 662.332 650.347 662.763C649.906 663.193 649.463 663.623 649.019 664.052C648.575 664.481 648.129 664.909 647.683 665.336C647.237 665.762 646.79 666.188 646.342 666.612C645.894 667.037 645.445 667.461 644.994 667.884C644.544 668.306 644.093 668.728 643.641 669.148C643.188 669.568 642.735 669.987 642.28 670.405C641.826 670.823 641.371 671.24 640.915 671.656C640.458 672.072 640 672.487 639.542 672.901C639.084 673.314 638.624 673.726 638.164 674.138C637.704 674.548 637.243 674.958 636.781 675.367C636.319 675.776 635.855 676.185 635.391 676.591C634.927 676.998 634.462 677.404 633.996 677.809C633.529 678.214 633.062 678.618 632.593 679.021C632.125 679.423 631.655 679.823 631.185 680.223C630.715 680.623 630.245 681.023 629.773 681.42C629.301 681.817 628.829 682.213 628.355 682.608C627.881 683.003 627.406 683.397 626.93 683.79C626.454 684.182 625.976 684.573 625.498 684.963C625.021 685.354 624.542 685.744 624.063 686.133C623.583 686.522 623.103 686.909 622.621 687.296C622.14 687.682 621.657 688.067 621.174 688.451C620.691 688.834 620.207 689.216 619.722 689.596C619.236 689.977 618.75 690.356 618.262 690.734C617.775 691.113 617.287 691.491 616.798 691.867C616.309 692.244 615.819 692.619 615.328 692.993C614.838 693.368 614.346 693.741 613.854 694.114C613.362 694.485 612.868 694.855 612.375 695.224C611.88 695.593 611.384 695.961 610.888 696.328C610.392 696.696 609.896 697.063 609.399 697.428C608.901 697.793 608.402 698.157 607.902 698.519C607.402 698.882 606.902 699.243 606.4 699.603C605.899 699.963 605.397 700.321 604.894 700.679C604.391 701.036 603.887 701.392 603.382 701.748C602.877 702.102 602.37 702.455 601.863 702.806C601.357 703.16 600.85 703.512 600.342 703.863C599.834 704.213 599.325 704.562 598.816 704.909C598.305 705.256 597.794 705.602 597.282 705.946C596.771 706.292 596.259 706.636 595.746 706.98C595.232 707.321 594.717 707.662 594.202 708.001C593.687 708.342 593.172 708.682 592.656 709.021C592.139 709.358 591.621 709.693 591.102 710.027C590.584 710.364 590.066 710.698 589.546 711.032C589.027 711.365 588.506 711.696 587.985 712.026C587.463 712.357 586.94 712.685 586.417 713.013C585.894 713.341 585.37 713.668 584.846 713.993C584.322 714.318 583.796 714.642 583.27 714.965C582.744 715.287 582.217 715.608 581.689 715.928C581.162 716.249 580.633 716.569 580.104 716.887C579.574 717.204 579.044 717.52 578.513 717.835C577.983 718.15 577.452 718.464 576.92 718.777C576.387 719.089 575.854 719.399 575.319 719.707C574.786 720.018 574.252 720.327 573.716 720.635C573.181 720.943 572.645 721.249 572.108 721.553C571.572 721.858 571.034 722.161 570.496 722.463C569.957 722.765 569.418 723.065 568.878 723.364C568.338 723.663 567.798 723.96 567.257 724.257C566.716 724.554 566.174 724.85 565.632 725.145C565.089 725.439 564.546 725.732 564.002 726.023C563.457 726.314 562.912 726.603 562.367 726.891C561.821 727.18 561.276 727.468 560.729 727.755C560.182 728.041 559.635 728.325 559.086 728.608C558.539 728.893 557.99 729.177 557.441 729.459C556.891 729.739 556.34 730.018 555.789 730.295C555.239 730.574 554.688 730.851 554.136 731.127C553.584 731.402 553.03 731.675 552.476 731.948C551.923 732.221 551.369 732.492 550.814 732.762C550.259 733.032 549.703 733.301 549.147 733.568C548.591 733.837 548.034 734.104 547.477 734.37C546.919 734.634 546.361 734.897 545.802 735.159C545.244 735.422 544.684 735.683 544.125 735.943C543.565 736.202 543.004 736.459 542.443 736.715C541.881 736.971 541.318 737.226 540.755 737.479C540.194 737.734 539.631 737.987 539.068 738.239C538.504 738.489 537.939 738.738 537.374 738.986C536.809 739.235 536.243 739.482 535.677 739.728C535.111 739.974 534.544 740.218 533.977 740.46C533.41 740.703 532.841 740.945 532.273 741.185C531.704 741.426 531.135 741.664 530.566 741.902C529.997 742.14 529.427 742.377 528.856 742.612C528.286 742.848 527.714 743.082 527.142 743.315C526.57 743.547 525.998 743.778 525.425 744.008C524.852 744.236 524.278 744.464 523.704 744.69C523.129 744.917 522.555 745.142 521.979 745.366C521.404 745.59 520.829 745.813 520.253 746.034C519.676 746.255 519.099 746.474 518.521 746.692C517.944 746.91 517.367 747.127 516.789 747.342C516.211 747.558 515.632 747.772 515.053 747.985C514.473 748.198 513.892 748.409 513.311 748.619C512.731 748.829 512.151 749.037 511.57 749.245C510.988 749.451 510.406 749.657 509.823 749.861C509.24 750.066 508.657 750.27 508.074 750.472C507.491 750.672 506.907 750.872 506.323 751.07C505.738 751.269 505.152 751.466 504.566 751.662C503.981 751.858 503.396 752.053 502.81 752.245C502.223 752.438 501.636 752.629 501.048 752.819C500.462 753.011 499.875 753.2 499.287 753.388C498.699 753.575 498.11 753.761 497.521 753.945C496.932 754.13 496.342 754.314 495.752 754.496C495.162 754.678 494.572 754.858 493.981 755.036C493.39 755.216 492.799 755.394 492.207 755.57C491.615 755.746 491.023 755.92 490.431 756.092C489.838 756.266 489.246 756.438 488.652 756.609C488.059 756.78 487.465 756.949 486.871 757.116C486.277 757.283 485.682 757.449 485.087 757.614C484.493 757.778 483.897 757.942 483.301 758.103C482.706 758.265 482.109 758.425 481.513 758.583C480.916 758.742 480.319 758.9 479.722 759.056C479.124 759.212 478.526 759.367 477.928 759.521C477.33 759.674 476.731 759.825 476.132 759.974C475.534 760.125 474.935 760.274 474.336 760.422C473.736 760.57 473.136 760.717 472.535 760.862C471.935 761.006 471.335 761.149 470.734 761.29C470.134 761.431 469.533 761.57 468.931 761.708C468.329 761.847 467.727 761.984 467.125 762.119C466.523 762.255 465.92 762.389 465.317 762.522C464.714 762.654 464.112 762.785 463.508 762.915C462.904 763.044 462.3 763.172 461.695 763.299C461.091 763.426 460.487 763.553 459.882 763.677C459.278 763.802 458.673 763.924 458.069 764.046C457.463 764.166 456.857 764.284 456.25 764.402C455.645 764.521 455.038 764.638 454.432 764.753C453.825 764.868 453.219 764.981 452.611 765.092C452.005 765.205 451.398 765.316 450.791 765.426C450.183 765.536 449.575 765.644 448.967 765.75C448.359 765.858 447.751 765.964 447.142 766.069C446.533 766.171 445.923 766.272 445.314 766.37C444.704 766.471 444.095 766.57 443.485 766.667C442.876 766.765 442.267 766.862 441.657 766.956C441.047 767.051 440.437 767.145 439.827 767.236C439.216 767.327 438.605 767.417 437.994 767.506C437.383 767.595 436.772 767.682 436.161 767.768C435.55 767.853 434.939 767.938 434.327 768.02C433.716 768.104 433.104 768.187 432.492 768.268C431.88 768.348 431.268 768.426 430.656 768.503C430.044 768.579 429.431 768.654 428.818 768.728C428.205 768.801 427.592 768.873 426.978 768.943C426.364 769.014 425.751 769.084 425.137 769.151C424.524 769.219 423.91 769.285 423.297 769.351C422.683 769.417 422.068 769.48 421.454 769.542C420.84 769.603 420.225 769.664 419.611 769.722C418.997 769.782 418.382 769.84 417.768 769.896C417.247 769.944 416.727 769.99 416.206 770.036L415.922 770.061L415.637 770.085C415.117 770.129 414.597 770.173 414.077 770.215C413.462 770.264 412.847 770.313 412.231 770.36L411.92 770.384C411.408 770.424 410.896 770.464 410.384 770.499C409.769 770.543 409.153 770.585 408.538 770.628C407.922 770.67 407.306 770.711 406.69 770.75C406.074 770.787 405.458 770.825 404.842 770.858C404.372 770.885 403.901 770.911 403.43 770.936L402.994 770.96C402.378 770.99 401.761 771.02 401.144 771.048C400.527 771.078 399.91 771.104 399.293 771.132C398.815 771.153 398.336 771.172 397.857 771.191L397.443 771.207C396.826 771.231 396.209 771.255 395.593 771.274L394.779 771.299L393.742 771.331C393.125 771.347 392.507 771.366 391.889 771.38C391.273 771.395 390.656 771.404 390.039 771.418C389.421 771.428 388.804 771.433 388.186 771.447C387.569 771.452 386.951 771.466 386.333 771.466C385.716 771.466 385.1 771.481 384.483 771.481C383.978 771.482 383.471 771.482 382.966 771.481H135.395L231.139 675.737H382.969V675.826C383.348 675.826 383.728 675.826 384.107 675.826C384.57 675.826 385.032 675.811 385.495 675.811C385.958 675.811 386.422 675.797 386.885 675.797C387.348 675.787 387.81 675.787 388.273 675.773C388.735 675.763 389.198 675.759 389.661 675.744L389.678 675.744C390.136 675.734 390.593 675.725 391.051 675.711L392.439 675.668C392.901 675.652 393.364 675.638 393.827 675.618C394.289 675.6 394.752 675.581 395.214 675.561C395.677 675.542 396.14 675.523 396.602 675.499C397.065 675.478 397.528 675.454 397.99 675.43C398.452 675.404 398.913 675.381 399.375 675.353C399.838 675.327 400.301 675.3 400.763 675.272C401.226 675.244 401.688 675.212 402.151 675.183C402.612 675.153 403.073 675.12 403.534 675.087C403.996 675.054 404.458 675.017 404.919 674.983C405.381 674.948 405.843 674.912 406.304 674.874C406.765 674.836 407.226 674.796 407.687 674.758C408.149 674.717 408.611 674.677 409.073 674.634C409.413 674.603 409.753 674.571 410.094 674.539L410.453 674.505L410.693 674.482C411.074 674.446 411.455 674.409 411.836 674.369L412.036 674.349C412.43 674.308 412.824 674.268 413.219 674.226C413.679 674.177 414.139 674.128 414.599 674.077C415.059 674.027 415.519 673.974 415.979 673.921C416.44 673.868 416.9 673.814 417.36 673.758C417.819 673.703 418.279 673.646 418.738 673.588C419.197 673.53 419.657 673.471 420.116 673.412C420.575 673.352 421.034 673.291 421.494 673.229C421.952 673.166 422.411 673.103 422.869 673.039C423.327 672.974 423.784 672.907 424.242 672.84C424.701 672.774 425.159 672.708 425.617 672.64C426.075 672.571 426.533 672.501 426.99 672.43C427.447 672.358 427.904 672.286 428.361 672.212C428.819 672.139 429.276 672.064 429.734 671.989C430.191 671.914 430.648 671.836 431.104 671.759C431.56 671.681 432.017 671.602 432.472 671.522C432.928 671.442 433.385 671.362 433.84 671.279C434.296 671.198 434.751 671.116 435.206 671.032C435.661 670.948 436.117 670.862 436.571 670.775C437.026 670.689 437.48 670.601 437.934 670.512C438.39 670.424 438.845 670.334 439.3 670.243C439.753 670.152 440.206 670.061 440.658 669.968C441.112 669.875 441.565 669.781 442.019 669.686C442.473 669.59 442.926 669.493 443.379 669.394C443.831 669.297 444.283 669.198 444.735 669.1C445.187 668.999 445.639 668.898 446.091 668.795C446.543 668.694 446.995 668.592 447.446 668.488C447.897 668.384 448.347 668.278 448.797 668.172C449.247 668.067 449.698 667.96 450.148 667.853C450.598 667.744 451.048 667.634 451.498 667.524L451.507 667.522C451.954 667.412 452.4 667.302 452.847 667.19C453.295 667.077 453.744 666.964 454.192 666.848C454.641 666.734 455.09 666.619 455.538 666.502C455.986 666.384 456.434 666.266 456.881 666.146C457.329 666.027 457.775 665.907 458.222 665.787C458.669 665.665 459.116 665.542 459.563 665.419C460.009 665.295 460.456 665.171 460.901 665.045C461.347 664.92 461.792 664.794 462.237 664.666C462.682 664.538 463.126 664.408 463.57 664.278C464.014 664.149 464.458 664.018 464.901 663.887C465.345 663.754 465.789 663.621 466.232 663.486C466.675 663.352 467.118 663.217 467.561 663.08C468.003 662.944 468.445 662.806 468.887 662.667C469.329 662.529 469.771 662.39 470.213 662.249C470.653 662.109 471.094 661.966 471.534 661.824C471.974 661.682 472.415 661.538 472.855 661.393C473.294 661.248 473.732 661.102 474.171 660.955C474.611 660.808 475.05 660.66 475.489 660.51C475.927 660.363 476.365 660.214 476.803 660.065C477.24 659.914 477.677 659.761 478.114 659.607C478.551 659.453 478.989 659.298 479.425 659.142C479.76 659.022 480.095 658.902 480.43 658.78L480.729 658.672C481.165 658.515 481.6 658.357 482.035 658.197C482.47 658.037 482.904 657.877 483.339 657.715C483.772 657.553 484.205 657.391 484.637 657.227C485.071 657.063 485.503 656.897 485.936 656.73C486.368 656.565 486.799 656.398 487.23 656.23C487.662 656.062 488.093 655.893 488.524 655.723C488.955 655.554 489.385 655.383 489.815 655.211C490.245 655.039 490.675 654.866 491.104 654.692C491.532 654.517 491.96 654.341 492.388 654.165C492.816 653.987 493.244 653.808 493.672 653.628C494.099 653.451 494.525 653.273 494.951 653.094C495.377 652.913 495.804 652.73 496.23 652.547C496.655 652.365 497.08 652.182 497.504 651.998C497.929 651.813 498.354 651.628 498.778 651.441C499.201 651.254 499.624 651.066 500.047 650.877C500.469 650.688 500.892 650.499 501.313 650.308C501.735 650.118 502.157 649.927 502.578 649.734C502.998 649.541 503.419 649.346 503.839 649.15C504.259 648.956 504.679 648.76 505.098 648.564C505.518 648.367 505.937 648.169 506.355 647.97C506.773 647.772 507.19 647.572 507.607 647.372C508.024 647.171 508.44 646.969 508.856 646.766C509.272 646.561 509.688 646.356 510.103 646.15C510.519 645.944 510.934 645.738 511.35 645.531C511.763 645.325 512.176 645.118 512.589 644.91C513.003 644.702 513.416 644.492 513.828 644.282C514.24 644.071 514.65 643.859 515.06 643.646C515.471 643.433 515.882 643.219 516.292 643.003C516.703 642.789 517.112 642.574 517.522 642.357C517.931 642.14 518.34 641.923 518.749 641.704C519.157 641.485 519.564 641.265 519.971 641.044C520.377 640.822 520.783 640.599 521.188 640.376C521.594 640.153 522 639.93 522.405 639.706C522.81 639.481 523.214 639.256 523.617 639.03C524.021 638.802 524.424 638.574 524.827 638.345C525.23 638.117 525.632 637.887 526.034 637.657C526.435 637.426 526.836 637.195 527.236 636.962C527.637 636.73 528.037 636.496 528.436 636.262C528.835 636.026 529.233 635.789 529.631 635.552C530.029 635.315 530.427 635.078 530.823 634.84C531.221 634.601 531.617 634.362 532.013 634.122C532.409 633.882 532.804 633.642 533.198 633.4C533.593 633.157 533.987 632.914 534.381 632.67C534.774 632.427 535.166 632.183 535.558 631.938C535.951 631.691 536.344 631.444 536.736 631.195C537.126 630.947 537.517 630.698 537.906 630.448C538.296 630.199 538.685 629.948 539.073 629.696C539.462 629.445 539.851 629.193 540.239 628.94C540.625 628.686 541.011 628.431 541.396 628.175C541.783 627.92 542.169 627.665 542.554 627.408C542.939 627.15 543.323 626.891 543.707 626.631C544.091 626.373 544.474 626.113 544.857 625.852C545.24 625.591 545.622 625.329 546.003 625.065C546.383 624.803 546.763 624.539 547.143 624.274C547.524 624.01 547.904 623.745 548.283 623.48C548.662 623.213 549.039 622.945 549.416 622.676C549.794 622.408 550.171 622.139 550.547 621.869C550.923 621.6 551.298 621.329 551.673 621.058C552.048 620.785 552.422 620.511 552.796 620.237C553.168 619.963 553.54 619.688 553.911 619.413C554.284 619.137 554.656 618.861 555.027 618.584C555.397 618.307 555.767 618.029 556.135 617.75C556.505 617.47 556.873 617.189 557.241 616.907C557.609 616.627 557.977 616.345 558.344 616.063C558.711 615.78 559.078 615.497 559.443 615.212C559.808 614.928 560.172 614.643 560.536 614.356C560.901 614.07 561.264 613.783 561.627 613.495C561.989 613.207 562.35 612.917 562.711 612.627C563.072 612.339 563.432 612.049 563.792 611.759C564.151 611.467 564.51 611.174 564.868 610.881C565.227 610.588 565.586 610.294 565.944 610C566.301 609.703 566.657 609.406 567.013 609.107C567.367 608.812 567.721 608.516 568.074 608.219C568.428 607.92 568.782 607.621 569.135 607.321C569.412 607.084 569.689 606.846 569.965 606.608L570.189 606.415C570.541 606.114 570.892 605.811 571.243 605.508C571.592 605.205 571.941 604.902 572.289 604.597C572.637 604.291 572.984 603.984 573.331 603.677C573.677 603.371 574.023 603.065 574.367 602.757C574.713 602.448 575.058 602.139 575.401 601.829C575.745 601.518 576.088 601.207 576.43 600.894C576.773 600.582 577.114 600.27 577.455 599.956C577.796 599.643 578.136 599.329 578.476 599.014C578.815 598.699 579.153 598.383 579.49 598.066C579.828 597.749 580.166 597.43 580.502 597.112C580.838 596.793 581.172 596.474 581.507 596.154C581.841 595.834 582.175 595.513 582.509 595.192C582.842 594.87 583.174 594.548 583.505 594.225C583.837 593.901 584.168 593.577 584.497 593.252C584.827 592.927 585.156 592.602 585.485 592.275C585.743 592.018 586.002 591.759 586.26 591.501L586.467 591.293C586.793 590.966 587.119 590.637 587.444 590.309C587.769 589.979 588.094 589.648 588.418 589.316C588.742 588.986 589.065 588.654 589.388 588.322C589.71 587.989 590.031 587.655 590.35 587.32C590.67 586.986 590.99 586.651 591.308 586.316C591.627 585.979 591.945 585.642 592.263 585.304C592.579 584.967 592.895 584.63 593.21 584.292C593.526 583.952 593.841 583.61 594.155 583.268C594.469 582.929 594.783 582.589 595.095 582.249C595.407 581.907 595.718 581.563 596.028 581.22C596.339 580.877 596.649 580.533 596.958 580.188C597.266 579.842 597.574 579.495 597.881 579.147C598.187 578.801 598.494 578.455 598.799 578.108C599.104 577.76 599.409 577.412 599.714 577.064C600.017 576.714 600.32 576.363 600.622 576.012C600.924 575.661 601.226 575.309 601.527 574.956C601.827 574.604 602.126 574.251 602.425 573.897C602.724 573.543 603.021 573.189 603.318 572.834C603.615 572.479 603.911 572.123 604.206 571.767C604.502 571.411 604.796 571.054 605.089 570.696C605.383 570.338 605.676 569.98 605.968 569.62C606.26 569.259 606.551 568.897 606.841 568.534C607.131 568.174 607.421 567.814 607.709 567.453C607.997 567.091 608.284 566.728 608.57 566.365C608.857 566.001 609.143 565.636 609.428 565.271C609.713 564.905 609.997 564.538 610.279 564.17C610.562 563.806 610.844 563.441 611.125 563.074C611.407 562.706 611.687 562.338 611.967 561.969C612.246 561.599 612.525 561.229 612.803 560.858C613.08 560.487 613.356 560.115 613.631 559.742C613.908 559.372 614.183 559.001 614.458 558.629C614.732 558.255 615.005 557.879 615.277 557.503C615.549 557.13 615.82 556.755 616.09 556.38C616.361 556.004 616.631 555.627 616.899 555.25C617.168 554.873 617.436 554.495 617.703 554.117C617.97 553.739 618.235 553.36 618.5 552.981C618.766 552.6 619.03 552.218 619.294 551.836C619.557 551.456 619.819 551.076 620.081 550.695C620.341 550.313 620.601 549.929 620.86 549.545C621.12 549.162 621.379 548.779 621.637 548.395C621.894 548.009 622.15 547.622 622.406 547.235C622.662 546.85 622.917 546.465 623.17 546.079C623.424 545.691 623.678 545.301 623.93 544.912C624.181 544.525 624.432 544.137 624.682 543.749C624.933 543.359 625.183 542.968 625.432 542.576C625.679 542.186 625.926 541.795 626.171 541.404C626.418 541.011 626.664 540.618 626.908 540.224C627.153 539.831 627.396 539.438 627.638 539.044C627.881 538.649 628.122 538.253 628.363 537.856C628.604 537.461 628.844 537.065 629.083 536.669C629.321 536.272 629.559 535.875 629.795 535.477C630.032 535.079 630.268 534.681 630.503 534.282C630.738 533.883 630.972 533.484 631.205 533.084C631.438 532.684 631.67 532.283 631.901 531.882C632.132 531.48 632.361 531.078 632.591 530.675C632.819 530.273 633.047 529.871 633.273 529.468C633.5 529.064 633.726 528.66 633.951 528.256C634.177 527.851 634.401 527.446 634.624 527.041C634.848 526.635 635.07 526.228 635.292 525.821C635.513 525.415 635.733 525.007 635.953 524.599C636.171 524.192 636.389 523.784 636.606 523.375C636.823 522.965 637.039 522.556 637.254 522.145C637.469 521.735 637.683 521.325 637.897 520.913C638.111 520.503 638.324 520.093 638.535 519.681C638.747 519.269 638.957 518.856 639.166 518.442C639.375 518.029 639.583 517.616 639.789 517.203C639.997 516.788 640.205 516.373 640.41 515.958C640.615 515.542 640.819 515.126 641.021 514.709C641.225 514.294 641.428 513.878 641.63 513.462C641.831 513.045 642.032 512.628 642.231 512.211C642.43 511.792 642.628 511.373 642.825 510.954C643.022 510.535 643.218 510.116 643.414 509.697C643.609 509.278 643.804 508.858 643.997 508.438C644.19 508.017 644.381 507.596 644.571 507.174C644.763 506.752 644.953 506.33 645.143 505.907C645.332 505.485 645.52 505.062 645.707 504.638C645.894 504.214 646.081 503.789 646.266 503.364C646.451 502.94 646.635 502.515 646.818 502.09C647 501.665 647.181 501.24 647.362 500.814C647.542 500.387 647.723 499.96 647.901 499.532C648.08 499.105 648.258 498.677 648.435 498.248C648.612 497.821 648.788 497.393 648.962 496.964C649.137 496.536 649.311 496.107 649.484 495.678C649.657 495.249 649.828 494.819 649.999 494.389C650.169 493.958 650.338 493.527 650.506 493.095C650.675 492.664 650.844 492.232 651.011 491.799C651.177 491.367 651.342 490.936 651.505 490.503C651.67 490.07 651.833 489.636 651.995 489.202C652.158 488.768 652.32 488.335 652.48 487.901C652.639 487.466 652.797 487.032 652.955 486.597C653.113 486.162 653.269 485.726 653.425 485.291C653.581 484.854 653.736 484.417 653.89 483.979C654.044 483.544 654.196 483.107 654.347 482.671C654.46 482.348 654.572 482.024 654.683 481.701L654.8 481.357C654.95 480.919 655.098 480.48 655.246 480.041C655.393 479.602 655.539 479.163 655.684 478.723C655.829 478.283 655.973 477.842 656.116 477.402C656.259 476.961 656.401 476.52 656.542 476.078C656.684 475.638 656.823 475.198 656.963 474.757C657.102 474.315 657.239 473.873 657.376 473.431C657.511 472.989 657.645 472.546 657.779 472.103C657.913 471.66 658.047 471.218 658.18 470.774C658.313 470.329 658.445 469.884 658.576 469.439C658.706 468.995 658.835 468.551 658.964 468.108C659.092 467.663 659.219 467.217 659.345 466.772C659.47 466.326 659.595 465.88 659.718 465.433C659.842 464.988 659.965 464.542 660.087 464.095C660.209 463.647 660.33 463.2 660.451 462.752C660.57 462.305 660.688 461.858 660.804 461.411C660.922 460.963 661.038 460.514 661.153 460.065C661.268 459.617 661.382 459.168 661.495 458.719C661.608 458.27 661.72 457.821 661.831 457.371C661.942 456.922 662.051 456.473 662.16 456.023C662.268 455.573 662.375 455.123 662.482 454.672C662.589 454.221 662.696 453.769 662.801 453.317C662.905 452.867 663.008 452.417 663.11 451.966C663.212 451.514 663.312 451.062 663.412 450.61C663.512 450.158 663.611 449.705 663.709 449.252C663.806 448.799 663.903 448.345 663.998 447.892C664.094 447.44 664.189 446.988 664.283 446.536C664.376 446.082 664.467 445.628 664.557 445.173C664.649 444.72 664.74 444.266 664.829 443.812C664.918 443.357 665.005 442.902 665.092 442.447C665.179 441.991 665.264 441.535 665.349 441.079C665.434 440.625 665.519 440.17 665.602 439.716C665.683 439.261 665.764 438.805 665.844 438.35C665.924 437.893 666.003 437.435 666.081 436.977C666.115 436.778 666.149 436.578 666.183 436.379H95.7458L95.7362 540.382L53.0928 583.028L0 636.076Z" fill="black"/>
</svg>
