<svg width="1920" height="772" viewBox="0 0 1920 772" fill="none" xmlns="http://www.w3.org/2000/svg">
<path d="M1105.5 81.4372L1187.85 0.00189335L1004.8 0C948.56 0.000311828 877.047 18.1747 877.583 128.648L878.654 379.071L948.56 308.971L944.811 227.305C944.275 216.043 949.095 204.353 958.737 203.817H1032.52C1050.2 203.28 1059.43 203.708 1065.86 196.737C1072.29 190.301 1075.5 180.649 1075.5 167.778C1075.5 154.907 1070.42 149.773 1062.38 142.801C1054.35 135.83 1043.9 138.283 1029.44 137.746H958.737C946.417 137.21 941.597 120.049 942.132 108.787C942.668 90.0176 962.486 80.3646 1001.59 80.9009L1105.5 81.4372Z" fill="white"/>
<path d="M1105.5 437.143L1187.85 355.707L1004.8 355.706C948.56 355.706 877.047 373.88 877.583 484.353L878.654 734.777L948.56 664.676L944.811 583.01C944.275 571.748 949.095 560.059 958.737 559.522H1032.52C1050.2 558.986 1059.43 559.414 1065.86 552.442C1072.29 546.007 1075.5 536.354 1075.5 523.483C1075.5 510.613 1070.42 505.479 1062.38 498.507C1054.35 491.535 1043.9 493.988 1029.44 493.452H958.737C946.417 492.916 941.597 475.755 942.132 464.493C942.668 445.723 962.486 436.07 1001.59 436.606L1105.5 437.143Z" fill="white"/>
<path d="M1163.08 635.41C1163.08 645.38 1161 652.359 1156.85 656.347C1152.69 660.169 1145.3 662.08 1134.66 662.08C1124.86 662.08 1118.21 659.836 1114.72 655.35C1111.23 650.697 1109.49 643.136 1109.49 632.668V571.351C1109.49 565.702 1110.49 560.8 1112.48 556.645C1114.47 552.325 1117.38 549.002 1121.2 546.675C1125.03 544.349 1129.51 543.186 1134.66 543.186C1147.29 543.186 1155.6 546.841 1159.59 554.153C1169.23 546.841 1178.53 543.186 1187.51 543.186C1204.95 543.186 1213.68 551.494 1213.68 568.111C1213.68 574.758 1211.77 580.158 1207.94 584.313C1204.12 588.467 1199.14 590.544 1192.99 590.544C1189.33 590.544 1186.34 589.796 1184.02 588.301C1181.86 586.805 1179.78 585.31 1177.79 583.814C1175.96 582.319 1173.8 581.571 1171.3 581.571C1167.65 581.571 1164.91 582.817 1163.08 585.31V635.41Z" fill="white"/>
<path d="M1305.09 579.577C1302.27 574.758 1298.61 572.348 1294.12 572.348C1289.8 572.348 1286.31 575.506 1283.66 581.82C1281 588.134 1279.67 595.363 1279.67 603.505C1279.67 611.149 1280.91 617.962 1283.41 623.944C1285.9 629.926 1289.39 632.917 1293.88 632.917C1298.53 632.917 1302.27 630.674 1305.09 626.187V579.577ZM1271.19 663.575C1258.07 663.575 1247.18 658.258 1238.54 647.623C1229.9 636.822 1225.58 622.116 1225.58 603.505C1225.58 584.562 1229.82 569.524 1238.29 558.39C1246.93 547.091 1257.9 541.441 1271.19 541.441C1284.65 541.441 1297.12 546.177 1308.58 555.648C1313.07 547.34 1320.3 543.186 1330.27 543.186C1339.24 543.186 1346.22 545.18 1351.2 549.168C1356.19 552.99 1358.68 560.135 1358.68 570.604V635.41C1358.68 645.38 1356.6 652.359 1352.45 656.347C1348.3 660.169 1340.98 662.08 1330.52 662.08C1319.55 662.08 1312.32 659.006 1308.83 652.857C1298.2 660.003 1285.65 663.575 1271.19 663.575Z" fill="white"/>
<path d="M1453.69 595.03C1453.69 585.725 1450.03 581.072 1442.72 581.072C1439.23 581.072 1436.32 582.568 1434 585.559C1431.84 588.384 1430.59 592.206 1430.26 597.025V635.41C1430.26 645.546 1428.18 652.525 1424.03 656.347C1419.87 660.169 1412.56 662.08 1402.09 662.08C1392.29 662.08 1385.56 659.836 1381.9 655.35C1378.41 650.697 1376.67 643.136 1376.67 632.668V571.351C1376.67 562.877 1378.91 556.064 1383.4 550.913C1388.05 545.761 1394.2 543.186 1401.84 543.186C1408.16 543.186 1413.48 544.1 1417.8 545.928C1422.12 547.755 1425.36 550.913 1427.52 555.399C1440.48 546.925 1456.26 542.687 1474.87 542.687C1486.67 542.687 1495.15 547.34 1500.3 556.645C1505.62 565.951 1508.27 581.238 1508.27 602.508C1508.27 612.977 1508.03 621.534 1507.53 628.181C1507.03 634.662 1506.2 640.312 1505.03 645.13C1504.04 649.783 1502.38 653.273 1500.05 655.599C1497.72 657.925 1494.98 659.587 1491.82 660.584C1488.83 661.581 1484.93 662.08 1480.11 662.08C1470.8 662.08 1464.07 660.335 1459.92 656.845C1455.93 653.356 1453.94 648.205 1453.94 641.392L1453.69 595.03Z" fill="white"/>
<path d="M1591.57 626.686H1582.59C1582.59 635.326 1580.1 643.386 1575.12 650.863C1570.13 658.341 1563.48 662.08 1555.18 662.08C1545.87 662.08 1538.97 659.504 1534.49 654.353C1530.17 649.035 1528.01 639.73 1528.01 626.436V523.993C1528.01 516.848 1529.17 511.115 1531.5 506.795C1533.82 502.308 1536.81 499.151 1540.47 497.323C1544.29 495.495 1549.19 494.415 1555.18 494.083C1565.48 494.083 1572.37 497.572 1575.86 504.551C1579.35 511.364 1581.1 523.245 1581.1 540.195C1581.1 553.322 1580.35 564.871 1578.85 574.841C1580.02 578.497 1583.76 580.325 1590.07 580.325C1594.06 580.325 1596.72 579.494 1598.05 577.832C1599.54 576.004 1600.29 572.432 1600.29 567.114C1600.29 559.304 1602.28 553.654 1606.27 550.165C1610.43 546.675 1617.41 544.931 1627.21 544.931C1637.51 544.931 1644.41 546.841 1647.9 550.663C1651.55 554.319 1653.38 561.049 1653.38 570.853C1653.38 581.155 1650.31 589.131 1644.16 594.781C1638.01 600.431 1631.12 603.256 1623.47 603.256C1631.28 603.256 1638.18 605.665 1644.16 610.484C1650.31 615.137 1653.38 622.199 1653.38 631.671C1653.38 644.3 1651.64 652.525 1648.15 656.347C1644.82 660.169 1637.84 662.08 1627.21 662.08C1617.41 662.08 1610.43 660.335 1606.27 656.845C1602.28 653.19 1600.29 647.54 1600.29 639.896C1600.29 636.074 1599.96 633.249 1599.29 631.422C1598.63 629.427 1597.72 628.181 1596.55 627.683C1595.55 627.018 1593.89 626.686 1591.57 626.686Z" fill="white"/>
<path d="M1726.5 635.41C1726.5 645.38 1724.42 652.359 1720.26 656.347C1716.11 660.169 1708.8 662.08 1698.33 662.08C1688.53 662.08 1681.8 659.836 1678.14 655.35C1674.65 650.697 1672.91 643.136 1672.91 632.668V571.351C1672.91 562.877 1675.15 556.064 1679.64 550.913C1684.29 545.761 1690.44 543.186 1698.08 543.186C1707.05 543.186 1714.03 545.18 1719.02 549.168C1724 552.99 1726.5 560.135 1726.5 570.604V635.41ZM1672.41 508.54C1672.41 515.186 1674.98 520.005 1680.13 522.996C1685.29 525.987 1691.77 527.483 1699.58 527.483C1708.38 527.483 1715.11 526.07 1719.77 523.245C1724.42 520.421 1726.75 515.519 1726.75 508.54C1726.75 495.911 1717.69 489.596 1699.58 489.596C1690.94 489.596 1684.21 491.341 1679.39 494.831C1674.73 498.32 1672.41 502.89 1672.41 508.54Z" fill="white"/>
<path d="M1797.2 592.289C1808.67 592.122 1814.9 592.039 1815.9 592.039C1818.39 592.039 1820.22 590.544 1821.38 587.553C1822.21 585.393 1822.62 582.402 1822.62 578.58C1822.62 568.111 1819.47 562.877 1813.15 562.877C1810.83 562.877 1808.5 564.123 1806.17 566.616C1804.01 569.108 1802.1 572.681 1800.44 577.333C1798.78 581.82 1797.7 586.805 1797.2 592.289ZM1814.15 663.575C1793.88 663.575 1777.09 658.341 1763.8 647.872C1750.67 637.404 1744.11 623.113 1744.11 605.001C1744.11 585.393 1750.59 569.939 1763.55 558.639C1776.68 547.174 1793.55 541.441 1814.15 541.441C1833.59 541.441 1847.8 544.931 1856.77 551.91C1865.91 558.723 1870.48 568.111 1870.48 580.075C1870.48 582.402 1870.15 584.645 1869.48 586.805C1868.99 588.965 1868.07 591.126 1866.74 593.286C1865.58 595.28 1863.92 597.191 1861.76 599.019C1859.76 600.68 1857.44 602.259 1854.78 603.754C1852.12 605.084 1848.96 606.164 1845.31 606.995C1841.65 607.659 1837.75 607.992 1833.59 607.992L1798.45 608.241C1800.11 613.558 1803.1 617.796 1807.42 620.953C1811.74 623.944 1817.22 625.439 1823.87 625.439C1831.02 625.439 1838.33 624.526 1845.81 622.698C1848.96 621.867 1852.37 620.537 1856.02 618.71C1859.85 616.882 1862.59 615.968 1864.25 615.968C1867.08 615.968 1869.24 616.799 1870.73 618.46C1872.39 620.122 1873.22 622.199 1873.22 624.692C1873.22 627.683 1871.89 631.338 1869.24 635.659C1866.58 639.813 1862.84 644.05 1858.02 648.371C1853.37 652.525 1847.13 656.098 1839.32 659.089C1831.51 662.08 1823.12 663.575 1814.15 663.575Z" fill="white"/>
<path d="M1163.08 279.704C1163.08 289.674 1161 296.653 1156.85 300.641C1152.69 304.463 1145.38 306.374 1134.91 306.374C1125.11 306.374 1118.38 304.131 1114.72 299.644C1111.23 294.992 1109.49 287.431 1109.49 276.962V215.646C1109.49 207.171 1111.73 200.358 1116.22 195.207C1120.87 190.056 1127.02 187.48 1134.66 187.48C1143.64 187.48 1150.62 189.474 1155.6 193.462C1160.59 197.284 1163.08 204.429 1163.08 214.898V279.704ZM1108.99 152.834C1108.99 159.481 1111.57 164.3 1116.72 167.291C1121.87 170.282 1128.35 171.777 1136.16 171.777C1144.97 171.777 1151.7 170.365 1156.35 167.54C1161 164.715 1163.33 159.813 1163.33 152.834C1163.33 140.205 1154.27 133.891 1136.16 133.891C1127.52 133.891 1120.79 135.635 1115.97 139.125C1111.32 142.615 1108.99 147.184 1108.99 152.834Z" fill="white"/>
<path d="M1235.78 279.704C1235.78 289.674 1233.7 296.653 1229.55 300.641C1225.39 304.463 1218 306.374 1207.36 306.374C1197.56 306.374 1190.91 304.131 1187.42 299.644C1183.93 294.992 1182.19 287.431 1182.19 276.962V215.646C1182.19 209.996 1183.19 205.094 1185.18 200.94C1187.17 196.619 1190.08 193.296 1193.9 190.97C1197.73 188.643 1202.21 187.48 1207.36 187.48C1219.99 187.48 1228.3 191.136 1232.29 198.447C1241.93 191.136 1251.23 187.48 1260.21 187.48C1277.65 187.48 1286.38 195.789 1286.38 212.406C1286.38 219.052 1284.47 224.453 1280.64 228.607C1276.82 232.761 1271.84 234.838 1265.69 234.838C1262.03 234.838 1259.04 234.091 1256.72 232.595C1254.56 231.1 1252.48 229.604 1250.48 228.109C1248.66 226.613 1246.5 225.865 1244 225.865C1240.35 225.865 1237.61 227.112 1235.78 229.604V279.704Z" fill="white"/>
<path d="M1350.62 236.583C1362.09 236.417 1368.32 236.334 1369.32 236.334C1371.81 236.334 1373.64 234.838 1374.8 231.847C1375.63 229.687 1376.05 226.696 1376.05 222.874C1376.05 212.406 1372.89 207.171 1366.57 207.171C1364.25 207.171 1361.92 208.417 1359.59 210.91C1357.43 213.403 1355.52 216.975 1353.86 221.628C1352.2 226.115 1351.12 231.1 1350.62 236.583ZM1367.57 307.87C1347.3 307.87 1330.52 302.635 1317.22 292.167C1304.09 281.698 1297.53 267.408 1297.53 249.295C1297.53 229.687 1304.01 214.233 1316.97 202.934C1330.1 191.468 1346.97 185.735 1367.57 185.735C1387.01 185.735 1401.22 189.225 1410.19 196.204C1419.33 203.017 1423.9 212.406 1423.9 224.37C1423.9 226.696 1423.57 228.939 1422.91 231.1C1422.41 233.26 1421.49 235.42 1420.16 237.58C1419 239.574 1417.34 241.485 1415.18 243.313C1413.18 244.975 1410.86 246.553 1408.2 248.049C1405.54 249.378 1402.38 250.458 1398.73 251.289C1395.07 251.954 1391.17 252.286 1387.01 252.286L1351.87 252.535C1353.53 257.853 1356.52 262.09 1360.84 265.247C1365.16 268.238 1370.65 269.734 1377.29 269.734C1384.44 269.734 1391.75 268.82 1399.23 266.992C1402.38 266.161 1405.79 264.832 1409.45 263.004C1413.27 261.176 1416.01 260.262 1417.67 260.262C1420.5 260.262 1422.66 261.093 1424.15 262.755C1425.81 264.416 1426.64 266.494 1426.64 268.986C1426.64 271.977 1425.31 275.633 1422.66 279.953C1420 284.107 1416.26 288.345 1411.44 292.665C1406.79 296.819 1400.56 300.392 1392.75 303.383C1384.94 306.374 1376.54 307.87 1367.57 307.87Z" fill="white"/>
<path d="M1497.41 268.238C1500.4 273.888 1504.56 276.713 1509.87 276.713C1514.36 276.713 1517.85 273.888 1520.34 268.238C1522.84 262.589 1524.08 256.108 1524.08 248.797C1524.08 244.809 1523.75 240.904 1523.08 237.082C1522.42 233.26 1521.51 229.853 1520.34 226.862C1519.18 223.705 1517.68 221.213 1515.86 219.385C1514.03 217.391 1511.95 216.394 1509.62 216.394C1504.47 216.394 1500.4 219.468 1497.41 225.616C1497.41 227.776 1497.41 234.008 1497.41 244.31C1497.41 254.446 1497.41 262.422 1497.41 268.238ZM1497.16 197.7C1508.13 189.557 1520.01 185.486 1532.81 185.486C1545.77 185.486 1556.57 190.97 1565.21 201.937C1573.85 212.904 1578.17 226.779 1578.17 243.562C1578.17 263.835 1571.61 279.704 1558.48 291.17C1545.35 302.469 1528.32 308.119 1507.38 308.119C1494.59 308.119 1483.37 306.291 1473.73 302.635C1464.26 298.98 1456.78 293.496 1451.3 286.185C1445.98 278.873 1443.24 270.066 1443.07 259.764L1442.58 165.795C1442.58 155.493 1445.07 147.932 1450.05 143.113C1455.04 138.294 1461.68 135.885 1469.99 135.885C1479.3 135.885 1486.11 138.128 1490.43 142.615C1494.92 146.935 1497.16 153.914 1497.16 163.552V197.7Z" fill="white"/>
<path d="M1651.2 279.704C1651.2 289.674 1649.12 296.653 1644.97 300.641C1640.82 304.463 1633.5 306.374 1623.04 306.374C1613.23 306.374 1606.5 304.131 1602.85 299.644C1599.36 294.992 1597.61 287.431 1597.61 276.962V215.646C1597.61 207.171 1599.85 200.358 1604.34 195.207C1608.99 190.056 1615.14 187.48 1622.79 187.48C1631.76 187.48 1638.74 189.474 1643.72 193.462C1648.71 197.284 1651.2 204.429 1651.2 214.898V279.704ZM1597.11 152.834C1597.11 159.481 1599.69 164.3 1604.84 167.291C1609.99 170.282 1616.47 171.777 1624.28 171.777C1633.09 171.777 1639.82 170.365 1644.47 167.54C1649.12 164.715 1651.45 159.813 1651.45 152.834C1651.45 140.205 1642.39 133.891 1624.28 133.891C1615.64 133.891 1608.91 135.635 1604.09 139.125C1599.44 142.615 1597.11 147.184 1597.11 152.834Z" fill="white"/>
<path d="M1723.9 279.704C1723.9 289.674 1721.82 296.653 1717.67 300.641C1713.51 304.463 1706.12 306.374 1695.48 306.374C1685.68 306.374 1679.03 304.131 1675.54 299.644C1672.05 294.992 1670.31 287.431 1670.31 276.962V215.646C1670.31 209.996 1671.31 205.094 1673.3 200.94C1675.3 196.619 1678.2 193.296 1682.03 190.97C1685.85 188.643 1690.33 187.48 1695.48 187.48C1708.11 187.48 1716.42 191.136 1720.41 198.447C1730.05 191.136 1739.35 187.48 1748.33 187.48C1765.77 187.48 1774.5 195.789 1774.5 212.406C1774.5 219.052 1772.59 224.453 1768.77 228.607C1764.94 232.761 1759.96 234.838 1753.81 234.838C1750.15 234.838 1747.16 234.091 1744.84 232.595C1742.68 231.1 1740.6 229.604 1738.61 228.109C1736.78 226.613 1734.62 225.865 1732.12 225.865C1728.47 225.865 1725.73 227.112 1723.9 229.604V279.704Z" fill="white"/>
<path d="M1865.66 270.482L1865.41 223.871C1862.59 219.218 1858.93 216.892 1854.45 216.892C1851.62 216.892 1849.05 218.471 1846.72 221.628C1844.56 224.785 1842.9 228.69 1841.73 233.343C1840.57 237.996 1839.99 242.898 1839.99 248.049C1839.99 255.693 1841.24 262.505 1843.73 268.488C1846.22 274.47 1849.71 277.461 1854.2 277.461C1855.03 277.461 1855.86 277.378 1856.69 277.211C1857.52 277.045 1858.27 276.879 1858.93 276.713C1859.6 276.381 1860.26 276.048 1860.93 275.716C1861.59 275.217 1862.17 274.719 1862.67 274.22C1863.17 273.722 1863.67 273.14 1864.17 272.476C1864.67 271.811 1865.16 271.146 1865.66 270.482ZM1920 268.986C1920 282.446 1917.76 292.084 1913.27 297.9C1908.78 303.549 1901.89 306.374 1892.58 306.374C1881.95 306.374 1874.64 303.051 1870.65 296.404C1859.85 304.214 1846.8 308.119 1831.51 308.119C1818.55 308.119 1807.75 302.802 1799.11 292.167C1790.47 281.366 1786.15 266.66 1786.15 248.049C1786.15 229.106 1790.39 214.067 1798.86 202.934C1807.34 191.634 1818.22 185.985 1831.51 185.985C1843.48 185.985 1854.7 189.807 1865.16 197.45V165.546C1865.16 155.41 1867.66 147.932 1872.64 143.113C1877.63 138.128 1884.27 135.635 1892.58 135.635C1901.72 135.635 1908.53 137.463 1913.02 141.119C1917.67 144.775 1920 152.169 1920 163.303V268.986Z" fill="white"/>
<path opacity="0.999" d="M0 635.836V389.781L0.00191744 389.777C0.00091215 389.273 0.000919568 388.769 0.00570667 388.216C0.00824383 387.549 0.00824212 386.933 0.00948677 386.316L0.0238493 384.463C0.0286364 383.846 0.0382066 383.229 0.0477808 382.612L0.0765059 380.762C0.0860801 380.145 0.105223 379.528 0.119584 378.912C0.135861 378.295 0.150226 377.678 0.169374 377.061C0.187943 376.448 0.206986 375.834 0.226032 375.221L0.22634 375.211C0.24501 374.594 0.268949 373.977 0.292885 373.36L0.29295 373.359C0.316864 372.742 0.340776 372.126 0.369473 371.51C0.39628 370.893 0.425008 370.276 0.453731 369.66C0.483411 369.043 0.514048 368.426 0.547557 367.809L0.555111 367.668C0.585588 367.099 0.616062 366.53 0.651437 365.961C0.68734 365.345 0.72468 364.729 0.762977 364.113C0.801753 363.497 0.841003 362.881 0.884087 362.265L0.894349 362.119C0.933974 361.552 0.973582 360.986 1.01765 360.42C1.06217 359.804 1.10813 359.188 1.156 358.572C1.20339 357.957 1.25174 357.342 1.30201 356.727C1.35323 356.111 1.40637 355.496 1.46046 354.881C1.5136 354.266 1.56769 353.651 1.6237 353.036C1.68066 352.421 1.73954 351.807 1.79938 351.193C1.85874 350.578 1.91954 349.964 1.98225 349.35C2.04496 348.735 2.10959 348.121 2.17517 347.507C2.23932 346.893 2.30538 346.28 2.37288 345.666C2.44133 345.052 2.5117 344.439 2.58303 343.826C2.65436 343.213 2.72664 342.6 2.80084 341.988C2.87696 341.375 2.95451 340.762 3.0335 340.15C3.11057 339.537 3.1886 338.924 3.26854 338.312C3.34705 337.7 3.427 337.088 3.50838 336.476C3.59167 335.865 3.6764 335.254 3.76305 334.643C3.8497 334.032 3.93826 333.421 4.02778 332.81C4.11682 332.199 4.2073 331.588 4.29969 330.977C4.3916 330.366 4.48447 329.756 4.57925 329.146C4.67499 328.536 4.77265 327.927 4.87127 327.318C4.96845 326.708 5.06754 326.099 5.16807 325.49C5.26956 324.881 5.37296 324.272 5.47732 323.664C5.58168 323.055 5.68698 322.447 5.79422 321.838C5.90097 321.23 6.00868 320.623 6.11831 320.015C6.22841 319.408 6.33947 318.801 6.45245 318.195C6.56542 317.587 6.68031 316.98 6.79616 316.374C6.91201 315.767 7.02882 315.161 7.14754 314.556C7.2653 313.95 7.38497 313.345 7.50609 312.74C7.62816 312.134 7.75166 311.529 7.87709 310.924C8.00059 310.319 8.12602 309.715 8.25288 309.111C8.38069 308.507 8.50995 307.903 8.64111 307.3C8.7718 306.697 8.90344 306.094 9.037 305.492C9.1696 304.888 9.30412 304.286 9.44007 303.683C9.57651 303.081 9.7139 302.479 9.8532 301.877C9.99203 301.276 10.1323 300.675 10.274 300.074C10.4157 299.473 10.5593 298.873 10.7044 298.273C10.8499 297.673 10.9964 297.074 11.1448 296.475C11.2922 295.875 11.4416 295.275 11.5924 294.676C11.7427 294.078 11.8944 293.48 12.0476 292.883C12.2008 292.284 12.3559 291.687 12.5124 291.089C12.669 290.493 12.8274 289.896 12.9873 289.301C13.1466 288.704 13.3074 288.108 13.4697 287.512C13.6326 286.916 13.7963 286.321 13.962 285.726C14.1271 285.131 14.2937 284.536 14.4617 283.942C14.6294 283.348 14.7984 282.754 14.9688 282.161C15.1397 281.568 15.3121 280.975 15.4858 280.383C15.66 279.79 15.8356 279.198 16.0128 278.606C16.1885 278.015 16.3661 277.425 16.5447 276.835C16.7246 276.244 16.906 275.654 17.0889 275.064C17.2714 274.474 17.4553 273.884 17.6405 273.295C17.8253 272.706 18.012 272.117 18.1996 271.529C18.388 270.941 18.5776 270.354 18.7686 269.767C18.9591 269.181 19.1516 268.594 19.345 268.008C19.5388 267.423 19.7346 266.837 19.9313 266.252C20.1277 265.667 20.3259 265.082 20.525 264.498C20.724 263.914 20.9241 263.33 21.1261 262.747C21.3284 262.163 21.5323 261.58 21.7372 260.998C21.942 260.416 22.1479 259.835 22.3556 259.254C22.5636 258.673 22.7733 258.092 22.9839 257.512C23.1946 256.932 23.4062 256.352 23.6197 255.773C23.8336 255.195 24.0485 254.616 24.2654 254.039C24.4819 253.46 24.6992 252.882 24.9185 252.305C25.1371 251.728 25.3573 251.151 25.579 250.576C25.8013 249.999 26.0244 249.424 26.2494 248.849C26.4739 248.274 26.6998 247.699 26.9272 247.125C27.1543 246.551 27.3827 245.978 27.6124 245.405C27.8428 244.833 28.0744 244.26 28.3076 243.689C28.5405 243.117 28.7746 242.545 29.0101 241.974C29.2463 241.404 29.4837 240.834 29.7226 240.265C29.9604 239.695 30.1997 239.126 30.44 238.558C30.6811 237.99 30.9236 237.423 31.1673 236.856C31.4117 236.289 31.6575 235.722 31.9045 235.156C32.1513 234.59 32.3997 234.024 32.6491 233.459C32.8984 232.895 33.1489 232.331 33.4012 231.767C33.6529 231.204 33.9059 230.64 34.1606 230.078C34.4157 229.515 34.6719 228.954 34.93 228.393C35.1875 227.832 35.4463 227.273 35.7067 226.713C35.9668 226.153 36.2281 225.593 36.4909 225.034C36.7543 224.476 37.0189 223.918 37.285 223.361C37.5508 222.804 37.818 222.247 38.0865 221.691C38.3548 221.135 38.6245 220.579 38.8955 220.024C39.1663 219.47 39.4385 218.917 39.7118 218.364C39.9859 217.811 40.2614 217.259 40.5381 216.707C40.8147 216.155 41.0926 215.604 41.3717 215.054C41.6508 214.504 41.9313 213.954 42.2128 213.404C42.4943 212.855 42.777 212.307 43.0613 211.759C43.3453 211.211 43.6305 210.663 43.9173 210.117C44.2046 209.57 44.493 209.024 44.7831 208.479C45.0729 207.934 45.3639 207.39 45.6564 206.846C45.9486 206.302 46.2422 205.759 46.537 205.216C46.8317 204.674 47.1279 204.132 47.4252 203.591C47.7232 203.05 48.0225 202.51 48.3231 201.97C48.6228 201.431 48.9235 200.893 49.2261 200.355C49.529 199.817 49.8334 199.279 50.1389 198.742C50.4443 198.206 50.7513 197.671 51.0591 197.137C51.3671 196.601 51.6762 196.067 51.9868 195.533C52.2972 195 52.6089 194.467 52.9219 193.935C53.2348 193.403 53.549 192.871 53.8644 192.34C54.1806 191.81 54.4981 191.28 54.8169 190.752C55.1347 190.222 55.4539 189.694 55.7742 189.166C56.0954 188.639 56.4179 188.113 56.7415 187.588C57.0651 187.062 57.3902 186.536 57.7162 186.012C58.0414 185.487 58.3678 184.964 58.6958 184.441C59.0243 183.918 59.354 183.396 59.6853 182.875C60.0164 182.354 60.3486 181.834 60.6822 181.314C61.0158 180.795 61.3506 180.276 61.6866 179.758C62.0226 179.24 62.36 178.723 62.6984 178.207C63.0369 177.691 63.3768 177.175 63.7176 176.661C64.0586 176.146 64.401 175.633 64.7442 175.12C65.0877 174.607 65.4322 174.095 65.7783 173.583C66.1242 173.072 66.4713 172.562 66.8198 172.052C67.1682 171.542 67.5178 171.034 67.8687 170.526C68.2195 170.018 68.5717 169.511 68.925 169.004C69.2783 168.498 69.633 167.993 69.9887 167.488C70.3445 166.983 70.7018 166.479 71.0598 165.976C71.4182 165.473 71.7775 164.971 72.1384 164.47C72.4984 163.969 72.8596 163.47 73.222 162.971C73.5852 162.471 73.9496 161.972 74.3154 161.474C74.6812 160.977 75.0481 160.48 75.4162 159.985C75.7836 159.489 76.1525 158.995 76.522 158.501C76.8927 158.007 77.2648 157.514 77.6377 157.021C78.01 156.529 78.3835 156.037 78.7583 155.547C79.1331 155.057 79.5092 154.568 79.8864 154.08C80.2637 153.591 80.6422 153.103 81.0219 152.616C81.4017 152.129 81.7828 151.643 82.1648 151.158C82.547 150.673 82.9307 150.189 83.3151 149.706C83.6998 149.224 84.0855 148.742 84.4728 148.262C84.8592 147.78 85.2468 147.299 85.6355 146.819C86.0244 146.34 86.4145 145.862 86.8056 145.385C87.197 144.907 87.5897 144.431 87.9832 143.955C88.377 143.48 88.7722 143.005 89.1681 142.532C89.5644 142.059 89.9617 141.586 90.3605 141.115C90.7584 140.643 91.1576 140.172 91.5578 139.702C91.9582 139.232 92.36 138.763 92.7626 138.295C93.1654 137.827 93.5697 137.36 93.9747 136.895C94.3801 136.428 94.7869 135.963 95.1943 135.499C95.6014 135.036 96.0095 134.573 96.4188 134.111C96.8283 133.649 97.2391 133.189 97.6508 132.729C98.0628 132.268 98.4761 131.809 98.8902 131.351C99.3038 130.893 99.7185 130.436 100.134 129.98C100.551 129.525 100.968 129.07 101.386 128.617C101.805 128.163 102.225 127.709 102.645 127.257C103.066 126.805 103.487 126.355 103.91 125.906C104.332 125.455 104.756 125.006 105.181 124.558C105.606 124.11 106.033 123.664 106.46 123.219C106.887 122.773 107.315 122.328 107.744 121.883C108.173 121.44 108.604 120.998 109.035 120.557C109.467 120.115 109.9 119.674 110.334 119.234C110.767 118.795 111.202 118.357 111.638 117.92C112.073 117.482 112.509 117.045 112.946 116.609C113.384 116.174 113.823 115.741 114.262 115.308C114.702 114.875 115.144 114.443 115.586 114.012C116.028 113.58 116.471 113.15 116.914 112.72C117.359 112.292 117.804 111.865 118.25 111.439C118.696 111.012 119.143 110.585 119.591 110.16C120.039 109.736 120.489 109.313 120.939 108.891C121.389 108.468 121.84 108.047 122.292 107.627C122.745 107.207 123.199 106.788 123.653 106.37C124.107 105.952 124.562 105.534 125.018 105.118C125.475 104.703 125.933 104.288 126.391 103.874C126.85 103.461 127.309 103.048 127.769 102.637C128.229 102.225 128.69 101.815 129.152 101.405C129.615 100.997 130.078 100.59 130.542 100.183C131.007 99.7764 131.471 99.3706 131.938 98.9661C132.403 98.5609 132.87 98.157 133.338 97.7539C133.806 97.352 134.275 96.9514 134.745 96.5517C135.216 96.1514 135.688 95.7522 136.16 95.3544C136.632 94.9565 137.105 94.5598 137.578 94.1644C138.052 93.7683 138.527 93.3735 139.003 92.9795C139.479 92.5867 139.955 92.1951 140.433 91.8045C140.911 91.4132 141.39 91.0235 141.87 90.6343C142.35 90.2456 142.831 89.858 143.312 89.4717C143.794 89.0854 144.276 88.7003 144.759 88.3164C145.243 87.9334 145.727 87.5516 146.212 87.171C146.697 86.7889 147.184 86.4082 147.671 86.0281C148.158 85.65 148.645 85.2733 149.133 84.8975C149.622 84.5212 150.112 84.1459 150.603 83.7721C151.094 83.3981 151.586 83.0253 152.079 82.6538C152.572 82.2815 153.065 81.9106 153.559 81.5405C154.053 81.1716 154.549 80.8039 155.046 80.4372C155.541 80.0699 156.037 79.7037 156.535 79.339C157.033 78.9741 157.532 78.6103 158.031 78.2479C158.531 77.8856 159.032 77.5245 159.533 77.1645C160.034 76.8045 160.536 76.446 161.04 76.0884C161.542 75.731 162.046 75.3749 162.551 75.0197C163.056 74.6646 163.561 74.3107 164.067 73.9584C164.575 73.6059 165.083 73.2545 165.591 72.9046C166.099 72.5554 166.608 72.2077 167.118 71.8606C167.628 71.5131 168.139 71.1667 168.651 70.8216C169.163 70.4765 169.675 70.1328 170.188 69.79C170.701 69.4483 171.216 69.1078 171.731 68.7684C172.246 68.4275 172.761 68.0876 173.277 67.7492C173.794 67.4115 174.311 67.0749 174.829 66.7398C175.347 66.4046 175.867 66.0707 176.387 65.738C176.907 65.4052 177.427 65.0738 177.948 64.7435C178.469 64.4131 178.991 64.0843 179.514 63.7564C180.038 63.4294 180.562 63.1038 181.087 62.7792C181.612 62.454 182.137 62.1298 182.663 61.8071C183.189 61.4843 183.716 61.1625 184.244 60.8422C184.772 60.5227 185.3 60.2043 185.829 59.8874C186.358 59.5703 186.888 59.2545 187.418 58.94C187.949 58.6253 188.481 58.312 189.013 57.9999C189.546 57.6877 190.08 57.377 190.614 57.0673C191.147 56.7576 191.682 56.4494 192.217 56.142C192.752 55.8348 193.288 55.5288 193.825 55.2243C194.362 54.9196 194.899 54.6159 195.438 54.3139C195.976 54.0117 196.514 53.7107 197.053 53.4111C197.593 53.112 198.134 52.8143 198.676 52.518C199.217 52.2215 199.759 51.9263 200.301 51.6324C200.844 51.3383 201.387 51.0457 201.932 50.7541C202.475 50.4625 203.019 50.1725 203.564 49.8834C204.11 49.5951 204.657 49.3082 205.204 49.0224C205.75 48.7358 206.297 48.4504 206.844 48.1665C207.393 47.8831 207.942 47.601 208.492 47.3205C209.041 47.0397 209.591 46.7601 210.142 46.4819C210.693 46.2035 211.245 45.9264 211.797 45.6507C212.35 45.3756 212.903 45.1018 213.457 44.8294C214.01 44.556 214.565 44.2839 215.119 44.013C215.674 43.7428 216.23 43.4741 216.787 43.2065C217.343 42.9389 217.899 42.6723 218.457 42.4076C219.014 42.1424 219.572 41.8783 220.131 41.616C220.69 41.3531 221.249 41.0916 221.809 40.8317C222.369 40.5723 222.929 40.314 223.491 40.0574C224.052 39.8004 224.613 39.5447 225.175 39.2905C225.738 39.0361 226.301 38.7829 226.865 38.5311C227.429 38.2807 227.994 38.0315 228.559 37.784C229.124 37.5345 229.689 37.2864 230.254 37.0394C230.821 36.7948 231.388 36.5513 231.956 36.3096C232.523 36.0658 233.09 35.8236 233.658 35.5823C234.226 35.3417 234.795 35.1028 235.365 34.8649C235.935 34.6275 236.506 34.3919 237.077 34.1574C237.648 33.9225 238.219 33.6894 238.791 33.4572C239.363 33.2247 239.935 32.994 240.508 32.7647C241.081 32.5357 241.655 32.3083 242.23 32.0818C242.804 31.8556 243.379 31.6301 243.954 31.4065C244.529 31.1824 245.105 30.9598 245.681 30.7386C246.257 30.5171 246.833 30.2969 247.41 30.0781C247.987 29.8597 248.565 29.6428 249.144 29.4274C249.722 29.2118 250.301 28.9973 250.881 28.7843C251.461 28.5718 252.041 28.3607 252.622 28.151C253.202 27.9412 253.783 27.7325 254.364 27.5252C254.945 27.3184 255.528 27.113 256.11 26.9091C256.693 26.7041 257.276 26.5006 257.859 26.2981C258.443 26.0962 259.026 25.8961 259.611 25.697C260.195 25.4983 260.78 25.3015 261.365 25.1057C261.95 24.9107 262.537 24.7168 263.124 24.5244C263.709 24.3309 264.296 24.1389 264.882 23.9479C265.47 23.7578 266.058 23.5687 266.646 23.3815C267.234 23.1944 267.823 23.0092 268.413 22.8249C269.002 22.6395 269.591 22.4556 270.181 22.2733C270.771 22.092 271.362 21.9125 271.953 21.7339C272.543 21.5543 273.135 21.3762 273.726 21.1996C274.318 21.0242 274.91 20.85 275.502 20.6776C276.095 20.5038 276.688 20.3315 277.281 20.1606C277.874 19.99 278.468 19.821 279.062 19.6535C279.656 19.4865 280.251 19.3204 280.846 19.1562C281.441 18.9915 282.036 18.8282 282.632 18.6664C283.228 18.5049 283.824 18.345 284.42 18.1865C285.017 18.0276 285.614 17.8701 286.212 17.714C286.809 17.5575 287.407 17.4024 288.005 17.2487C288.602 17.0955 289.2 16.9438 289.799 16.7935C290.398 16.6436 290.997 16.4952 291.597 16.3483C292.196 16.2008 292.796 16.0548 293.395 15.9102C293.996 15.7661 294.597 15.6235 295.199 15.4823C295.8 15.3411 296.401 15.2008 297.002 15.062C297.604 14.9236 298.206 14.7867 298.808 14.6512C299.411 14.5158 300.013 14.3812 300.617 14.2482C301.219 14.116 301.822 13.9849 302.425 13.8551C303.028 13.7249 303.632 13.5966 304.236 13.4693C304.84 13.3424 305.444 13.217 306.049 13.093C306.654 12.9686 307.259 12.846 307.865 12.7244C308.47 12.6033 309.077 12.4836 309.683 12.3659C310.289 12.2481 310.895 12.1322 311.501 12.0169C312.108 11.9015 312.715 11.7886 313.322 11.6756C313.929 11.5616 314.535 11.4491 315.143 11.339C315.75 11.2304 316.358 11.1227 316.966 11.0173C317.574 10.9111 318.183 10.8072 318.792 10.7033C319.4 10.5994 320.008 10.4979 320.617 10.3965C321.226 10.2959 321.836 10.1973 322.445 10.0997C323.055 10.0015 323.665 9.90482 324.276 9.81003C324.886 9.71525 325.496 9.62143 326.107 9.53047C326.717 9.43952 327.327 9.34951 327.937 9.26095C328.549 9.17191 329.161 9.08479 329.773 8.99863C330.384 8.91294 330.995 8.82868 331.606 8.74635C332.217 8.66305 332.829 8.58119 333.441 8.50124C334.054 8.4213 334.667 8.34327 335.279 8.2662C335.892 8.19009 336.505 8.11445 337.117 8.0412C337.73 7.967 338.343 7.89423 338.955 7.82338C339.569 7.75253 340.182 7.68264 340.796 7.61562C341.41 7.54717 342.024 7.4811 342.639 7.41504C343.252 7.34993 343.866 7.28675 344.48 7.22452C345.094 7.16181 345.708 7.10101 346.322 7.04165C346.938 6.98325 347.553 6.92629 348.168 6.87076C348.782 6.81427 349.396 6.75825 350.011 6.70511L350.264 6.68386C350.794 6.63918 351.325 6.59449 351.856 6.55194C352.472 6.50215 353.088 6.45379 353.704 6.40592L353.864 6.39357C354.426 6.35025 354.988 6.30693 355.55 6.26759C356.166 6.22307 356.782 6.17902 357.398 6.14073L357.4 6.14059C358.015 6.09899 358.63 6.05738 359.246 6.01912C359.862 5.98083 360.479 5.94349 361.096 5.90998C361.558 5.8834 362.02 5.85844 362.482 5.83349L362.944 5.8085C363.561 5.77547 364.177 5.74339 364.794 5.71467C365.411 5.68547 366.028 5.65961 366.645 5.63089C367.26 5.60414 367.875 5.58027 368.491 5.55639L368.495 5.55622L368.496 5.55619C369.113 5.53226 369.729 5.50834 370.346 5.4892C370.948 5.47097 371.55 5.45227 372.152 5.43357L372.196 5.43222C372.812 5.41311 373.429 5.39877 374.046 5.38443L374.049 5.38436C374.666 5.37 375.282 5.36043 375.899 5.34607C376.517 5.3317 377.134 5.3317 377.752 5.31734C378.369 5.31255 378.986 5.29818 379.603 5.29818C380.22 5.29818 380.838 5.28383 381.455 5.28383C381.96 5.28283 382.467 5.28283 382.972 5.28383L382.986 5.19287V5.20724H384.837H630.532L534.791 100.948H385.057C384.891 100.948 384.725 100.948 384.56 100.948L384.362 100.948C383.898 100.947 383.435 100.947 382.971 100.948C382.597 100.948 382.223 100.948 381.848 100.948C381.385 100.948 380.921 100.963 380.458 100.963C379.995 100.963 379.533 100.977 379.07 100.977H379.069C378.606 100.982 378.143 100.987 377.68 101.001C377.217 101.011 376.755 101.015 376.292 101.03C375.829 101.039 375.367 101.049 374.904 101.063L373.517 101.106C373.054 101.122 372.591 101.136 372.129 101.156C371.666 101.174 371.203 101.193 370.741 101.213C370.278 101.234 369.816 101.253 369.353 101.272C368.891 101.295 368.428 101.32 367.965 101.344C367.503 101.369 367.04 101.393 366.578 101.421C366.115 101.445 365.652 101.471 365.19 101.5C364.728 101.529 364.266 101.557 363.804 101.591C363.343 101.621 362.881 101.653 362.419 101.687C361.957 101.72 361.495 101.757 361.034 101.791C360.572 101.825 360.11 101.859 359.648 101.897C359.282 101.926 358.915 101.957 358.549 101.988L358.266 102.011C357.805 102.052 357.344 102.097 356.883 102.14C356.421 102.182 355.959 102.224 355.497 102.267C355.037 102.311 354.577 102.357 354.117 102.405C353.657 102.452 353.197 102.499 352.737 102.549C352.276 102.598 351.815 102.647 351.354 102.699C350.893 102.75 350.433 102.802 349.973 102.855C349.514 102.908 349.055 102.963 348.595 103.018C348.136 103.073 347.677 103.129 347.218 103.186C346.757 103.244 346.297 103.303 345.837 103.362C345.379 103.422 344.92 103.485 344.462 103.548C344.084 103.598 343.706 103.65 343.328 103.703L343.086 103.736C342.628 103.801 342.169 103.867 341.711 103.934C341.253 104.001 340.796 104.069 340.338 104.137C339.88 104.206 339.423 104.276 338.965 104.347C338.507 104.418 338.05 104.489 337.592 104.563C337.134 104.636 336.677 104.712 336.219 104.788C335.763 104.863 335.307 104.938 334.851 105.015C334.394 105.094 333.937 105.173 333.481 105.253C333.025 105.332 332.57 105.413 332.115 105.495C331.66 105.577 331.204 105.66 330.749 105.745C330.294 105.829 329.839 105.914 329.384 106C328.929 106.086 328.473 106.173 328.018 106.262C327.564 106.351 327.11 106.44 326.655 106.532C326.202 106.623 325.748 106.715 325.295 106.809C324.841 106.902 324.387 106.995 323.934 107.091C323.481 107.186 323.028 107.283 322.576 107.38C322.124 107.477 321.672 107.576 321.22 107.675C320.767 107.775 320.315 107.877 319.862 107.979C319.411 108.081 318.96 108.182 318.509 108.286C318.058 108.39 317.607 108.496 317.156 108.602C316.705 108.708 316.254 108.814 315.803 108.922C315.353 109.03 314.903 109.141 314.454 109.251C314.005 109.361 313.555 109.472 313.106 109.585C312.657 109.697 312.209 109.811 311.761 109.926C311.312 110.041 310.865 110.157 310.417 110.275C309.969 110.392 309.522 110.51 309.074 110.629C308.626 110.747 308.178 110.867 307.731 110.987C307.284 111.109 306.838 111.232 306.392 111.356C305.946 111.48 305.5 111.604 305.054 111.73C304.608 111.855 304.163 111.981 303.718 112.109C303.273 112.237 302.829 112.367 302.385 112.497C301.94 112.626 301.496 112.757 301.051 112.888C300.608 113.02 300.165 113.154 299.723 113.289C299.28 113.423 298.837 113.558 298.395 113.694C297.951 113.83 297.508 113.968 297.066 114.107C296.625 114.245 296.184 114.385 295.743 114.525C295.301 114.665 294.86 114.806 294.419 114.948C293.979 115.091 293.54 115.235 293.101 115.381C292.661 115.526 292.221 115.672 291.782 115.819C291.343 115.965 290.905 116.113 290.466 116.262C290.028 116.411 289.59 116.561 289.152 116.712C288.715 116.864 288.278 117.016 287.841 117.17C287.404 117.323 286.967 117.477 286.53 117.632C286.094 117.788 285.659 117.945 285.224 118.102C284.788 118.261 284.353 118.42 283.918 118.58C283.484 118.74 283.05 118.901 282.617 119.063C282.183 119.224 281.749 119.386 281.315 119.55C280.883 119.714 280.451 119.879 280.019 120.045C279.587 120.211 279.155 120.378 278.723 120.547C278.292 120.714 277.861 120.882 277.432 121.051C277.001 121.222 276.57 121.393 276.14 121.566C275.71 121.738 275.281 121.911 274.851 122.085C274.422 122.26 273.993 122.436 273.565 122.613C273.137 122.789 272.709 122.966 272.281 123.144C271.854 123.323 271.428 123.503 271.002 123.684C270.576 123.864 270.151 124.045 269.726 124.228C269.3 124.41 268.874 124.593 268.449 124.777C268.025 124.962 267.601 125.149 267.178 125.336C266.753 125.522 266.329 125.71 265.906 125.898C265.483 126.087 265.061 126.278 264.639 126.469C264.218 126.66 263.796 126.851 263.375 127.043C262.954 127.236 262.534 127.43 262.114 127.624C261.694 127.82 261.275 128.016 260.857 128.213C260.438 128.41 260.019 128.608 259.6 128.807C259.183 129.005 258.766 129.205 258.349 129.405C257.931 129.607 257.514 129.809 257.097 130.012C256.681 130.215 256.265 130.42 255.85 130.625C255.435 130.829 255.02 131.035 254.606 131.241C254.191 131.449 253.778 131.657 253.364 131.867C252.951 132.075 252.539 132.285 252.127 132.495C251.715 132.706 251.303 132.918 250.893 133.131C250.481 133.344 250.071 133.559 249.661 133.774C249.25 133.989 248.84 134.204 248.431 134.42C248.022 134.636 247.614 134.854 247.207 135.073C246.799 135.292 246.391 135.512 245.985 135.733C245.577 135.954 245.171 136.176 244.765 136.399C244.359 136.621 243.953 136.845 243.548 137.069C243.144 137.294 242.741 137.52 242.338 137.747C241.934 137.975 241.531 138.203 241.128 138.432C240.725 138.661 240.323 138.89 239.921 139.12C239.52 139.35 239.119 139.581 238.719 139.813C238.318 140.046 237.918 140.28 237.519 140.515C237.119 140.75 236.72 140.986 236.322 141.223C235.925 141.459 235.528 141.696 235.132 141.933C234.735 142.171 234.338 142.41 233.942 142.65C233.547 142.891 233.152 143.132 232.757 143.375C232.362 143.617 231.968 143.861 231.575 144.105C231.181 144.349 230.787 144.594 230.395 144.84C230.002 145.085 229.611 145.332 229.22 145.579C228.829 145.827 228.439 146.076 228.049 146.326C227.659 146.576 227.269 146.827 226.879 147.078C226.491 147.33 226.103 147.582 225.717 147.835C225.329 148.09 224.943 148.346 224.556 148.602C224.17 148.857 223.784 149.113 223.399 149.369C223.015 149.626 222.631 149.884 222.248 150.143C221.864 150.402 221.481 150.662 221.098 150.923C220.716 151.184 220.334 151.446 219.953 151.709C219.571 151.972 219.19 152.236 218.81 152.501C218.43 152.766 218.051 153.031 217.672 153.298C217.294 153.565 216.916 153.833 216.539 154.102C216.161 154.369 215.785 154.638 215.408 154.908C215.033 155.178 214.657 155.448 214.283 155.719C213.908 155.991 213.534 156.264 213.16 156.538C212.787 156.812 212.415 157.087 212.044 157.362C211.671 157.637 211.299 157.914 210.928 158.191C210.557 158.469 210.187 158.747 209.818 159.027C209.448 159.306 209.08 159.585 208.712 159.866C208.343 160.147 207.976 160.429 207.608 160.712C207.242 160.994 206.877 161.278 206.512 161.563C206.147 161.847 205.781 162.132 205.417 162.418C205.053 162.705 204.69 162.992 204.328 163.279C203.966 163.568 203.605 163.857 203.245 164.148C202.883 164.437 202.522 164.727 202.161 165.018C201.801 165.31 201.442 165.603 201.082 165.897C200.725 166.189 200.368 166.483 200.011 166.777C199.654 167.073 199.298 167.369 198.943 167.665C198.587 167.962 198.233 168.26 197.879 168.558C197.524 168.857 197.17 169.156 196.818 169.456C196.466 169.757 196.114 170.057 195.764 170.359C195.413 170.661 195.062 170.964 194.712 171.267C194.363 171.571 194.014 171.875 193.666 172.18C193.318 172.485 192.971 172.791 192.625 173.098C192.278 173.405 191.931 173.712 191.586 174.021C191.241 174.329 190.897 174.638 190.554 174.948C190.209 175.258 189.866 175.569 189.522 175.881C189.18 176.193 188.839 176.507 188.498 176.821C188.158 177.134 187.818 177.448 187.479 177.763C187.14 178.078 186.802 178.395 186.465 178.711C186.127 179.028 185.79 179.345 185.453 179.663C185.117 179.983 184.781 180.302 184.446 180.623C184.111 180.942 183.777 181.262 183.444 181.583C183.112 181.906 182.781 182.229 182.45 182.553C182.118 182.876 181.786 183.2 181.455 183.525C181.126 183.849 180.797 184.174 180.468 184.5C180.141 184.827 179.815 185.155 179.489 185.484C179.161 185.812 178.835 186.14 178.509 186.469C178.184 186.799 177.86 187.129 177.537 187.461C177.213 187.792 176.89 188.123 176.567 188.455C176.246 188.788 175.925 189.122 175.605 189.457C175.284 189.791 174.964 190.126 174.645 190.461C174.327 190.798 174.009 191.135 173.693 191.473C173.375 191.81 173.059 192.147 172.743 192.485C172.428 192.825 172.114 193.165 171.8 193.507C171.486 193.847 171.173 194.187 170.86 194.528C170.548 194.871 170.238 195.214 169.927 195.558C169.617 195.901 169.307 196.244 168.997 196.589C168.689 196.935 168.381 197.281 168.075 197.628C167.767 197.974 167.46 198.32 167.154 198.667C166.849 199.015 166.545 199.364 166.241 199.713C165.937 200.063 165.634 200.413 165.331 200.765C165.029 201.116 164.728 201.468 164.428 201.821C164.128 202.174 163.828 202.526 163.53 202.88C163.232 203.234 162.934 203.588 162.637 203.944C162.339 204.298 162.042 204.654 161.747 205.01C161.451 205.366 161.157 205.723 160.863 206.081C160.571 206.439 160.279 206.798 159.988 207.157C159.696 207.518 159.405 207.879 159.114 208.241C158.824 208.601 158.535 208.962 158.246 209.324C157.957 209.686 157.67 210.049 157.383 210.413C157.097 210.776 156.811 211.141 156.527 211.506C156.242 211.872 155.959 212.238 155.676 212.604C155.393 212.97 155.111 213.336 154.83 213.703C154.549 214.071 154.268 214.439 153.989 214.809C153.709 215.178 153.43 215.548 153.153 215.919C152.875 216.29 152.598 216.661 152.321 217.033C152.046 217.404 151.771 217.776 151.498 218.148C151.223 218.522 150.949 218.897 150.676 219.271C150.405 219.646 150.134 220.021 149.865 220.397C149.594 220.772 149.325 221.148 149.056 221.525C148.787 221.903 148.519 222.281 148.252 222.661C147.985 223.038 147.718 223.417 147.453 223.796C147.188 224.176 146.924 224.557 146.661 224.939C146.398 225.319 146.136 225.7 145.875 226.082C145.613 226.465 145.352 226.848 145.093 227.232C144.834 227.615 144.576 227.999 144.319 228.382C144.061 228.768 143.805 229.153 143.549 229.54C143.294 229.925 143.039 230.312 142.785 230.698C142.531 231.086 142.278 231.474 142.025 231.863C141.773 232.251 141.522 232.639 141.271 233.028C141.021 233.418 140.772 233.809 140.524 234.201C140.275 234.591 140.028 234.982 139.782 235.373C139.536 235.766 139.291 236.159 139.047 236.553C138.803 236.946 138.559 237.339 138.317 237.733C138.074 238.128 137.831 238.523 137.59 238.918C137.35 239.314 137.111 239.711 136.873 240.108C136.633 240.504 136.395 240.901 136.158 241.298C135.922 241.697 135.687 242.096 135.453 242.495C135.217 242.894 134.983 243.293 134.75 243.693C134.517 244.093 134.286 244.494 134.055 244.895C133.824 245.296 133.594 245.698 133.365 246.1C133.135 246.502 132.907 246.905 132.679 247.309C132.453 247.713 132.227 248.117 132.002 248.522C131.776 248.926 131.552 249.331 131.329 249.736C131.106 250.142 130.884 250.549 130.663 250.956C130.442 251.363 130.222 251.77 130.003 252.178C129.783 252.586 129.565 252.994 129.347 253.402C129.13 253.812 128.914 254.222 128.699 254.632C128.484 255.042 128.269 255.453 128.056 255.864C127.843 256.274 127.631 256.685 127.42 257.096C127.209 257.509 126.998 257.922 126.789 258.335C126.58 258.748 126.371 259.161 126.163 259.575C125.956 259.989 125.75 260.403 125.545 260.819C125.339 261.233 125.135 261.648 124.931 262.063C124.728 262.48 124.526 262.897 124.325 263.315C124.124 263.732 123.923 264.149 123.724 264.567C123.524 264.984 123.326 265.403 123.128 265.821C122.931 266.24 122.736 266.66 122.542 267.08C122.346 267.499 122.152 267.919 121.958 268.339C121.764 268.76 121.573 269.182 121.382 269.603C121.191 270.025 121.001 270.447 120.813 270.87C120.623 271.293 120.436 271.715 120.249 272.139C120.061 272.563 119.875 272.988 119.689 273.413C119.504 273.837 119.319 274.262 119.135 274.687C118.953 275.112 118.772 275.538 118.591 275.964C118.41 276.39 118.23 276.817 118.052 277.245C117.873 277.672 117.695 278.099 117.517 278.526C117.341 278.955 117.165 279.383 116.991 279.813C116.816 280.241 116.643 280.67 116.471 281.099C116.298 281.528 116.127 281.958 115.956 282.388C115.786 282.819 115.616 283.25 115.447 283.682C115.278 284.113 115.111 284.545 114.945 284.978C114.779 285.41 114.614 285.842 114.45 286.274C114.286 286.708 114.122 287.141 113.96 287.576C113.797 288.008 113.636 288.441 113.475 288.874C113.315 289.309 113.156 289.745 112.998 290.181C112.84 290.615 112.683 291.051 112.528 291.487C112.373 291.922 112.219 292.359 112.065 292.795C111.911 293.232 111.758 293.669 111.605 294.106C111.453 294.544 111.302 294.982 111.153 295.42C111.003 295.858 110.855 296.297 110.707 296.736C110.559 297.175 110.412 297.615 110.267 298.055C110.122 298.495 109.979 298.935 109.837 299.376C109.693 299.816 109.55 300.256 109.409 300.697C109.268 301.137 109.129 301.579 108.991 302.02C108.852 302.462 108.714 302.904 108.578 303.346C108.44 303.788 108.304 304.231 108.169 304.674C108.035 305.117 107.903 305.56 107.771 306.003C107.638 306.447 107.506 306.892 107.375 307.336C107.245 307.78 107.115 308.225 106.987 308.67C106.859 309.115 106.732 309.56 106.606 310.005C106.48 310.451 106.356 310.897 106.232 311.344C106.107 311.79 105.984 312.236 105.861 312.682C105.74 313.13 105.62 313.578 105.5 314.026C105.381 314.472 105.262 314.919 105.144 315.366C105.027 315.815 104.91 316.263 104.795 316.712C104.68 317.159 104.567 317.607 104.454 318.055C104.341 318.505 104.23 318.956 104.12 319.406C104.008 319.855 103.898 320.305 103.789 320.754C103.68 321.204 103.573 321.655 103.467 322.105C103.361 322.556 103.255 323.007 103.15 323.458C103.046 323.909 102.943 324.36 102.841 324.811C102.739 325.263 102.639 325.715 102.539 326.167C102.439 326.619 102.34 327.072 102.242 327.525C102.144 327.978 102.047 328.43 101.95 328.883C101.856 329.336 101.761 329.788 101.668 330.241C101.574 330.695 101.481 331.15 101.389 331.604C101.299 332.058 101.21 332.511 101.122 332.965C101.032 333.42 100.944 333.875 100.857 334.33C100.77 334.785 100.685 335.241 100.6 335.696C100.516 336.151 100.432 336.606 100.35 337.062C100.267 337.517 100.185 337.972 100.105 338.427C100.024 338.884 99.9455 339.34 99.8674 339.798C99.8334 339.999 99.7995 340.2 99.766 340.401H670.194V236.445L765.935 140.703V386.763V388.284L765.93 388.368C765.932 388.983 765.932 389.598 765.93 390.213L765.916 392.066C765.911 392.683 765.902 393.3 765.892 393.917C765.883 394.533 765.873 395.15 765.859 395.767C765.849 396.384 765.835 397.001 765.82 397.617C765.804 398.234 765.79 398.851 765.771 399.468C765.752 400.085 765.733 400.701 765.714 401.318C765.692 401.935 765.668 402.552 765.644 403.169C765.621 403.785 765.594 404.402 765.57 405.019C765.543 405.636 765.512 406.253 765.483 406.869C765.453 407.486 765.42 408.103 765.387 408.72C765.354 409.336 765.319 409.952 765.285 410.568C765.249 411.184 765.212 411.8 765.174 412.416C765.135 413.032 765.096 413.648 765.052 414.264C765.01 414.88 764.964 415.496 764.921 416.112C764.877 416.728 764.831 417.344 764.783 417.96C764.735 418.575 764.685 419.19 764.635 419.805C764.584 420.42 764.532 421.035 764.479 421.65C764.425 422.266 764.37 422.881 764.313 423.496C764.256 424.11 764.199 424.725 764.14 425.339C764.08 425.953 764.019 426.568 763.957 427.182C763.894 427.796 763.83 428.411 763.764 429.025C763.698 429.639 763.632 430.252 763.563 430.865C763.495 431.479 763.424 432.093 763.353 432.706C763.281 433.319 763.208 433.931 763.133 434.544C763.059 435.157 762.983 435.769 762.905 436.382C762.828 436.994 762.75 437.606 762.67 438.217C762.59 438.829 762.507 439.441 762.423 440.053C762.34 440.664 762.254 441.275 762.168 441.886C762.082 442.497 761.995 443.108 761.906 443.719C761.817 444.33 761.726 444.941 761.634 445.552C761.542 446.163 761.447 446.773 761.352 447.383C761.257 447.992 761.16 448.602 761.062 449.211C760.964 449.821 760.864 450.43 760.763 451.039C760.662 451.648 760.56 452.257 760.456 452.865C760.353 453.474 760.247 454.082 760.14 454.691C760.033 455.299 759.926 455.906 759.816 456.514C759.706 457.121 759.595 457.728 759.482 458.334C759.37 458.942 759.256 459.549 759.14 460.155C759.024 460.762 758.906 461.368 758.787 461.974C758.669 462.579 758.549 463.184 758.428 463.789C758.307 464.395 758.184 465 758.06 465.605C757.934 466.21 757.807 466.814 757.678 467.418C757.552 468.022 757.424 468.626 757.295 469.229C757.164 469.832 757.031 470.435 756.897 471.037C756.765 471.641 756.631 472.243 756.496 472.846C756.36 473.448 756.222 474.05 756.083 474.652C755.943 475.253 755.8 475.854 755.657 476.455C755.516 477.056 755.373 477.656 755.229 478.256C755.084 478.856 754.937 479.455 754.789 480.054C754.642 480.653 754.494 481.252 754.344 481.85C754.193 482.45 754.04 483.048 753.886 483.646C753.732 484.245 753.576 484.842 753.418 485.44C753.262 486.036 753.105 486.633 752.946 487.229C752.787 487.825 752.626 488.421 752.464 489.017C752.301 489.613 752.137 490.208 751.971 490.803C751.806 491.398 751.64 491.993 751.472 492.587C751.304 493.181 751.135 493.775 750.964 494.368C750.794 494.961 750.621 495.554 750.447 496.147C750.273 496.739 750.098 497.331 749.92 497.923C749.744 498.514 749.566 499.104 749.386 499.694C749.207 500.285 749.026 500.875 748.844 501.465C748.662 502.055 748.478 502.645 748.293 503.234C748.108 503.822 747.921 504.41 747.734 504.998C747.545 505.586 747.356 506.174 747.165 506.762C746.974 507.349 746.782 507.935 746.588 508.521C746.394 509.107 746.199 509.692 746.002 510.277C745.806 510.862 745.607 511.447 745.408 512.031C745.209 512.615 745.009 513.199 744.807 513.782C744.605 514.365 744.401 514.947 744.196 515.529C743.991 516.112 743.783 516.694 743.575 517.275C743.368 517.856 743.159 518.437 742.949 519.017C742.739 519.597 742.527 520.177 742.314 520.756C742.1 521.335 741.885 521.914 741.668 522.493C741.451 523.071 741.234 523.649 741.015 524.227C740.796 524.804 740.576 525.38 740.354 525.956C740.132 526.532 739.909 527.108 739.684 527.683C739.459 528.258 739.233 528.833 739.006 529.407C738.779 529.981 738.551 530.554 738.321 531.126C738.091 531.699 737.859 532.271 737.626 532.843C737.393 533.415 737.159 533.986 736.923 534.557C736.687 535.128 736.449 535.698 736.211 536.267C735.972 536.836 735.732 537.405 735.491 537.974C735.25 538.542 735.007 539.109 734.763 539.676C734.52 540.243 734.275 540.809 734.029 541.375C733.782 541.941 733.534 542.507 733.284 543.072C733.035 543.637 732.784 544.201 732.532 544.764C732.279 545.328 732.025 545.891 731.77 546.454C731.516 547.016 731.26 547.578 731.003 548.139C730.746 548.699 730.487 549.259 730.227 549.818C729.966 550.378 729.704 550.937 729.44 551.495C729.177 552.054 728.913 552.613 728.648 553.17C728.382 553.728 728.115 554.284 727.847 554.84C727.578 555.396 727.309 555.951 727.038 556.505C726.767 557.06 726.495 557.614 726.221 558.167C725.947 558.72 725.672 559.273 725.395 559.825C725.119 560.377 724.841 560.929 724.562 561.48C724.283 562.031 724.002 562.581 723.72 563.13C723.439 563.679 723.156 564.227 722.872 564.775C722.587 565.323 722.301 565.871 722.013 566.417C721.727 566.964 721.439 567.51 721.15 568.055C720.86 568.6 720.569 569.144 720.277 569.688C719.985 570.232 719.691 570.775 719.396 571.318C719.102 571.861 718.805 572.402 718.508 572.943C718.21 573.484 717.911 574.024 717.61 574.564C717.31 575.103 717.008 575.641 716.705 576.179C716.403 576.717 716.099 577.253 715.794 577.79C715.489 578.326 715.182 578.862 714.874 579.397C714.566 579.933 714.257 580.467 713.946 581.001C713.636 581.534 713.324 582.067 713.011 582.599C712.698 583.13 712.383 583.661 712.066 584.192C711.751 584.723 711.434 585.253 711.116 585.782C710.798 586.311 710.478 586.839 710.157 587.366C709.836 587.893 709.515 588.42 709.192 588.946C708.868 589.472 708.543 589.998 708.217 590.522C707.891 591.047 707.563 591.57 707.235 592.093C706.907 592.616 706.578 593.138 706.248 593.659C705.917 594.18 705.585 594.7 705.251 595.22C704.917 595.739 704.583 596.258 704.247 596.776C703.911 597.294 703.573 597.811 703.235 598.327C702.896 598.843 702.557 599.359 702.216 599.873C701.875 600.388 701.532 600.902 701.189 601.414C700.846 601.927 700.501 602.439 700.155 602.951C699.809 603.462 699.462 603.972 699.113 604.482C698.765 604.992 698.416 605.5 698.065 606.008C697.714 606.516 697.362 607.023 697.008 607.53C696.655 608.036 696.3 608.541 695.945 609.046C695.589 609.551 695.232 610.055 694.873 610.558C694.515 611.06 694.156 611.561 693.795 612.062C693.434 612.563 693.072 613.063 692.709 613.563C692.346 614.063 691.983 614.562 691.618 615.06C691.252 615.557 690.885 616.054 690.517 616.549C690.15 617.045 689.781 617.539 689.411 618.033C689.041 618.527 688.668 619.021 688.296 619.513C687.923 620.005 687.55 620.497 687.175 620.987C686.8 621.477 686.424 621.966 686.047 622.454C685.67 622.943 685.291 623.431 684.911 623.919C684.532 624.405 684.151 624.891 683.768 625.376C683.386 625.861 683.003 626.345 682.618 626.828C682.233 627.31 681.848 627.792 681.46 628.272C681.074 628.754 680.686 629.235 680.298 629.715C679.909 630.194 679.519 630.672 679.128 631.149C678.736 631.627 678.344 632.104 677.95 632.579C677.556 633.055 677.161 633.529 676.765 634.002C676.369 634.475 675.972 634.948 675.573 635.419C675.175 635.891 674.776 636.362 674.375 636.832C673.975 637.302 673.573 637.771 673.171 638.239C672.768 638.707 672.364 639.174 671.959 639.64C671.553 640.106 671.146 640.571 670.739 641.035C670.332 641.498 669.924 641.961 669.514 642.423C669.105 642.884 668.694 643.345 668.282 643.805C667.87 644.265 667.457 644.723 667.043 645.181C666.629 645.64 666.215 646.097 665.799 646.554C665.383 647.009 664.965 647.464 664.547 647.917C664.128 648.372 663.709 648.825 663.288 649.278C662.868 649.729 662.446 650.179 662.024 650.628C661.6 651.079 661.175 651.528 660.75 651.976C660.325 652.424 659.9 652.87 659.473 653.315C659.046 653.761 658.618 654.206 658.189 654.651C657.76 655.094 657.329 655.536 656.898 655.977C656.466 656.419 656.033 656.86 655.599 657.3C655.166 657.739 654.731 658.177 654.296 658.614C653.86 659.051 653.424 659.487 652.987 659.922C652.548 660.358 652.109 660.792 651.668 661.226C651.229 661.659 650.789 662.091 650.347 662.522C649.906 662.953 649.463 663.383 649.019 663.811C648.575 664.24 648.129 664.668 647.683 665.095C647.237 665.522 646.79 665.947 646.342 666.371C645.894 666.796 645.445 667.22 644.994 667.643C644.544 668.066 644.093 668.487 643.641 668.907C643.188 669.327 642.735 669.746 642.28 670.164C641.826 670.582 641.371 671 640.915 671.416C640.458 671.831 640 672.246 639.542 672.66C639.084 673.073 638.624 673.486 638.164 673.897C637.704 674.308 637.243 674.717 636.781 675.126C636.319 675.536 635.855 675.944 635.391 676.351C634.927 676.758 634.462 677.164 633.996 677.568C633.529 677.973 633.062 678.377 632.593 678.78C632.125 679.182 631.655 679.583 631.185 679.982C630.715 680.383 630.245 680.782 629.773 681.18C629.301 681.577 628.829 681.973 628.355 682.367C627.881 682.762 627.406 683.157 626.93 683.55C626.454 683.942 625.976 684.333 625.498 684.722C625.021 685.113 624.542 685.504 624.063 685.892C623.583 686.281 623.103 686.669 622.621 687.055C622.14 687.441 621.657 687.826 621.174 688.21C620.691 688.593 620.207 688.975 619.722 689.356C619.236 689.736 618.75 690.115 618.262 690.494C617.775 690.872 617.287 691.25 616.798 691.627C616.309 692.003 615.819 692.378 615.328 692.752C614.838 693.127 614.346 693.5 613.854 693.873C613.362 694.244 612.868 694.615 612.375 694.984C611.88 695.353 611.384 695.72 610.888 696.087C610.392 696.455 609.896 696.822 609.399 697.188C608.901 697.553 608.402 697.916 607.902 698.279C607.402 698.641 606.902 699.002 606.4 699.362C605.899 699.722 605.397 700.081 604.894 700.438C604.391 700.796 603.887 701.152 603.382 701.507C602.877 701.861 602.37 702.214 601.863 702.566C601.357 702.919 600.85 703.271 600.342 703.622C599.834 703.972 599.325 704.321 598.816 704.668C598.305 705.015 597.794 705.361 597.282 705.705C596.771 706.051 596.259 706.395 595.746 706.739C595.232 707.081 594.717 707.421 594.202 707.761C593.687 708.102 593.172 708.441 592.656 708.78C592.139 709.117 591.621 709.453 591.102 709.787C590.584 710.123 590.066 710.457 589.546 710.791C589.027 711.124 588.506 711.455 587.985 711.786C587.463 712.116 586.94 712.445 586.417 712.773C585.894 713.101 585.37 713.427 584.846 713.752C584.322 714.078 583.796 714.401 583.27 714.724C582.744 715.047 582.217 715.367 581.689 715.687C581.162 716.008 580.633 716.328 580.104 716.647C579.574 716.964 579.044 717.28 578.513 717.594C577.983 717.91 577.452 718.224 576.92 718.537C576.387 718.848 575.854 719.158 575.319 719.467C574.786 719.777 574.252 720.087 573.716 720.395C573.181 720.702 572.645 721.008 572.108 721.312C571.572 721.617 571.034 721.92 570.496 722.223C569.957 722.524 569.418 722.824 568.878 723.123C568.338 723.422 567.798 723.72 567.257 724.016C566.716 724.313 566.174 724.609 565.632 724.904C565.089 725.198 564.546 725.491 564.002 725.782C563.457 726.073 562.912 726.362 562.367 726.651C561.821 726.94 561.276 727.228 560.729 727.514C560.182 727.8 559.635 728.084 559.086 728.368C558.539 728.653 557.99 728.936 557.441 729.219C556.891 729.499 556.34 729.777 555.789 730.055C555.239 730.333 554.688 730.61 554.136 730.886C553.584 731.161 553.03 731.435 552.476 731.707C551.923 731.98 551.369 732.251 550.814 732.521C550.259 732.791 549.703 733.06 549.147 733.328C548.591 733.596 548.034 733.863 547.477 734.129C546.919 734.393 546.361 734.656 545.802 734.918C545.244 735.181 544.684 735.442 544.125 735.702C543.565 735.961 543.004 736.218 542.443 736.474C541.881 736.73 541.318 736.985 540.755 737.239C540.194 737.493 539.631 737.746 539.068 737.998C538.504 738.248 537.939 738.498 537.374 738.745C536.809 738.994 536.243 739.241 535.677 739.487C535.111 739.733 534.544 739.977 533.977 740.219C533.41 740.463 532.841 740.704 532.273 740.944C531.704 741.185 531.135 741.424 530.566 741.662C529.997 741.9 529.427 742.137 528.856 742.372C528.286 742.607 527.714 742.842 527.142 743.074C526.57 743.306 525.998 743.538 525.425 743.767C524.852 743.996 524.278 744.224 523.704 744.45C523.129 744.676 522.555 744.901 521.979 745.125C521.404 745.349 520.829 745.572 520.253 745.793C519.676 746.014 519.099 746.233 518.521 746.451C517.944 746.669 517.367 746.886 516.789 747.102C516.211 747.317 515.632 747.532 515.053 747.745C514.473 747.957 513.892 748.168 513.311 748.378C512.731 748.588 512.151 748.797 511.57 749.004C510.988 749.211 510.406 749.416 509.823 749.62C509.24 749.825 508.657 750.029 508.074 750.231C507.491 750.432 506.907 750.631 506.323 750.83C505.738 751.028 505.152 751.225 504.566 751.421C503.981 751.617 503.396 751.812 502.81 752.005C502.223 752.198 501.636 752.389 501.048 752.579C500.462 752.77 499.875 752.959 499.287 753.148C498.699 753.335 498.11 753.52 497.521 753.704C496.932 753.89 496.342 754.073 495.752 754.256C495.162 754.437 494.572 754.617 493.981 754.795C493.39 754.975 492.799 755.153 492.207 755.33C491.615 755.505 491.023 755.679 490.431 755.852C489.838 756.025 489.246 756.198 488.652 756.369C488.059 756.539 487.465 756.708 486.871 756.876C486.277 757.043 485.682 757.209 485.087 757.373C484.493 757.538 483.897 757.701 483.301 757.863C482.706 758.024 482.109 758.184 481.513 758.343C480.916 758.502 480.319 758.659 479.722 758.815C479.124 758.972 478.526 759.127 477.928 759.28C477.33 759.433 476.731 759.584 476.132 759.733C475.534 759.884 474.935 760.033 474.336 760.181C473.736 760.33 473.136 760.477 472.535 760.622C471.935 760.766 471.335 760.908 470.734 761.05C470.134 761.19 469.533 761.33 468.931 761.468C468.329 761.606 467.727 761.743 467.125 761.878C466.523 762.014 465.92 762.148 465.317 762.281C464.714 762.414 464.112 762.545 463.508 762.674C462.904 762.804 462.3 762.931 461.695 763.058C461.091 763.186 460.487 763.313 459.882 763.437C459.278 763.561 458.673 763.684 458.069 763.805C457.463 763.925 456.857 764.044 456.25 764.161C455.645 764.28 455.038 764.397 454.432 764.513C453.825 764.627 453.219 764.74 452.611 764.852C452.005 764.964 451.398 765.075 450.791 765.185C450.183 765.295 449.575 765.403 448.967 765.509C448.359 765.617 447.751 765.723 447.142 765.828C446.533 765.93 445.923 766.031 445.314 766.13C444.704 766.23 444.095 766.329 443.485 766.427C442.876 766.524 442.267 766.621 441.657 766.716C441.047 766.81 440.437 766.904 439.827 766.995C439.216 767.086 438.605 767.176 437.994 767.265C437.383 767.354 436.772 767.441 436.161 767.527C435.55 767.613 434.939 767.697 434.327 767.779C433.716 767.864 433.104 767.946 432.492 768.027C431.88 768.107 431.268 768.185 430.656 768.262C430.044 768.338 429.431 768.414 428.818 768.487C428.205 768.56 427.592 768.632 426.978 768.702C426.364 768.773 425.751 768.843 425.137 768.91C424.524 768.979 423.91 769.045 423.297 769.111C422.683 769.176 422.068 769.239 421.454 769.301C420.84 769.362 420.225 769.423 419.611 769.482C418.997 769.541 418.382 769.599 417.768 769.655C417.247 769.703 416.727 769.749 416.206 769.795L415.922 769.821L415.637 769.845C415.117 769.888 414.597 769.932 414.077 769.974C413.462 770.024 412.847 770.072 412.231 770.12L411.92 770.144C411.408 770.183 410.896 770.223 410.384 770.259C409.769 770.303 409.153 770.344 408.538 770.387C407.922 770.429 407.306 770.471 406.69 770.509C406.074 770.547 405.458 770.584 404.842 770.618C404.372 770.645 403.901 770.67 403.43 770.696L402.994 770.719C402.378 770.749 401.761 770.779 401.144 770.808C400.527 770.837 399.91 770.863 399.293 770.892C398.815 770.912 398.336 770.931 397.857 770.95L397.443 770.966C396.826 770.99 396.209 771.014 395.593 771.033L394.779 771.058L393.742 771.09C393.125 771.106 392.507 771.125 391.889 771.139C391.273 771.154 390.656 771.163 390.039 771.178C389.421 771.187 388.804 771.192 388.186 771.206C387.569 771.211 386.951 771.226 386.333 771.226C385.716 771.226 385.1 771.24 384.483 771.24C383.978 771.241 383.471 771.241 382.966 771.24H135.395L231.139 675.496H382.969V675.585C383.348 675.586 383.728 675.586 384.107 675.585C384.57 675.585 385.032 675.571 385.495 675.571C385.958 675.571 386.422 675.556 386.885 675.556C387.348 675.547 387.81 675.547 388.273 675.532C388.735 675.523 389.198 675.518 389.661 675.503L389.678 675.503C390.136 675.494 390.593 675.484 391.051 675.47L392.439 675.427C392.901 675.411 393.364 675.397 393.827 675.378C394.289 675.359 394.752 675.34 395.214 675.321C395.677 675.302 396.14 675.282 396.602 675.258C397.065 675.237 397.528 675.213 397.99 675.189C398.452 675.164 398.913 675.141 399.375 675.112C399.838 675.087 400.301 675.06 400.763 675.031C401.226 675.003 401.688 674.971 402.151 674.943C402.612 674.912 403.073 674.88 403.534 674.846C403.996 674.813 404.458 674.776 404.919 674.742C405.381 674.707 405.843 674.672 406.304 674.633C406.765 674.595 407.226 674.555 407.687 674.517C408.149 674.477 408.611 674.436 409.073 674.393C409.413 674.362 409.753 674.33 410.094 674.298L410.453 674.265L410.693 674.242C411.074 674.205 411.455 674.168 411.836 674.129L412.036 674.108C412.43 674.068 412.824 674.027 413.219 673.985C413.679 673.937 414.139 673.887 414.599 673.837C415.059 673.786 415.519 673.734 415.979 673.681C416.44 673.627 416.9 673.573 417.36 673.517C417.819 673.462 418.279 673.405 418.738 673.347C419.197 673.289 419.657 673.231 420.116 673.171C420.575 673.111 421.034 673.051 421.494 672.988C421.952 672.926 422.411 672.862 422.869 672.798C423.327 672.733 423.784 672.667 424.242 672.6C424.701 672.534 425.159 672.467 425.617 672.399C426.075 672.33 426.533 672.26 426.99 672.189C427.447 672.118 427.904 672.045 428.361 671.971C428.819 671.898 429.276 671.823 429.734 671.748C430.191 671.673 430.648 671.595 431.104 671.518C431.56 671.44 432.017 671.361 432.472 671.281C432.928 671.201 433.385 671.121 433.84 671.039C434.296 670.957 434.751 670.875 435.206 670.791C435.661 670.707 436.117 670.622 436.571 670.534C437.026 670.448 437.48 670.36 437.934 670.272C438.39 670.183 438.845 670.093 439.3 670.002C439.753 669.912 440.206 669.82 440.658 669.727C441.112 669.635 441.565 669.54 442.019 669.445C442.473 669.349 442.926 669.252 443.379 669.154C443.831 669.056 444.283 668.958 444.735 668.859C445.187 668.758 445.639 668.657 446.091 668.555C446.543 668.453 446.995 668.352 447.446 668.248C447.897 668.143 448.347 668.038 448.797 667.931C449.247 667.826 449.698 667.72 450.148 667.612C450.598 667.503 451.048 667.393 451.498 667.283L451.507 667.281C451.954 667.171 452.4 667.061 452.847 666.949C453.295 666.836 453.744 666.723 454.192 666.608C454.641 666.493 455.09 666.378 455.538 666.261C455.986 666.143 456.434 666.025 456.881 665.905C457.329 665.787 457.775 665.667 458.222 665.546C458.669 665.425 459.116 665.302 459.563 665.178C460.009 665.054 460.456 664.93 460.901 664.804C461.347 664.679 461.792 664.553 462.237 664.426C462.682 664.297 463.126 664.168 463.57 664.037C464.014 663.908 464.458 663.777 464.901 663.646C465.345 663.514 465.789 663.38 466.232 663.246C466.675 663.111 467.118 662.976 467.561 662.84C468.003 662.703 468.445 662.565 468.887 662.427C469.329 662.288 469.771 662.149 470.213 662.009C470.653 661.868 471.094 661.726 471.534 661.583C471.974 661.441 472.415 661.297 472.855 661.153C473.294 661.008 473.732 660.862 474.171 660.715C474.611 660.567 475.05 660.419 475.489 660.27C475.927 660.122 476.365 659.974 476.803 659.824C477.24 659.673 477.677 659.52 478.114 659.367C478.551 659.213 478.989 659.057 479.425 658.901C479.76 658.782 480.095 658.661 480.43 658.54L480.729 658.431C481.165 658.274 481.6 658.116 482.035 657.956C482.47 657.797 482.904 657.636 483.339 657.474C483.772 657.313 484.205 657.15 484.637 656.987C485.071 656.822 485.503 656.656 485.936 656.489C486.368 656.324 486.799 656.157 487.23 655.99C487.662 655.822 488.093 655.653 488.524 655.483C488.955 655.313 489.385 655.142 489.815 654.971C490.245 654.799 490.675 654.625 491.104 654.451C491.532 654.276 491.96 654.101 492.388 653.924C492.816 653.746 493.244 653.567 493.672 653.387C494.099 653.21 494.525 653.032 494.951 652.853C495.377 652.672 495.804 652.49 496.23 652.306C496.655 652.124 497.08 651.941 497.504 651.757C497.929 651.572 498.354 651.387 498.778 651.2C499.201 651.014 499.624 650.825 500.047 650.636C500.469 650.448 500.892 650.258 501.313 650.067C501.735 649.877 502.157 649.686 502.578 649.493C502.998 649.3 503.419 649.105 503.839 648.91C504.259 648.715 504.679 648.52 505.098 648.323C505.518 648.127 505.937 647.928 506.355 647.73C506.773 647.531 507.19 647.332 507.607 647.131C508.024 646.93 508.44 646.728 508.856 646.525C509.272 646.321 509.688 646.115 510.103 645.909C510.519 645.704 510.934 645.498 511.35 645.29C511.763 645.084 512.176 644.877 512.589 644.67C513.003 644.461 513.416 644.252 513.828 644.041C514.24 643.831 514.65 643.618 515.06 643.405C515.471 643.192 515.882 642.978 516.292 642.762C516.703 642.548 517.112 642.333 517.522 642.117C517.931 641.9 518.34 641.682 518.749 641.464C519.157 641.244 519.564 641.024 519.971 640.803C520.377 640.581 520.783 640.359 521.188 640.135C521.594 639.912 522 639.689 522.405 639.465C522.81 639.24 523.214 639.015 523.617 638.789C524.021 638.562 524.424 638.333 524.827 638.104C525.23 637.876 525.632 637.647 526.034 637.416C526.435 637.186 526.836 636.954 527.236 636.721C527.637 636.489 528.037 636.255 528.436 636.021C528.835 635.786 529.233 635.549 529.631 635.311C530.029 635.075 530.427 634.837 530.823 634.599C531.221 634.361 531.617 634.122 532.013 633.881C532.409 633.642 532.804 633.401 533.198 633.159C533.593 632.917 533.987 632.673 534.381 632.429C534.774 632.186 535.166 631.942 535.558 631.697C535.951 631.451 536.344 631.203 536.736 630.955C537.126 630.707 537.517 630.458 537.906 630.208C538.296 629.958 538.685 629.707 539.073 629.456C539.462 629.204 539.851 628.952 540.239 628.699C540.625 628.445 541.011 628.19 541.396 627.934C541.783 627.68 542.169 627.424 542.554 627.167C542.939 626.909 543.323 626.651 543.707 626.391C544.091 626.132 544.474 625.872 544.857 625.611C545.24 625.35 545.622 625.088 546.003 624.825C546.383 624.562 546.763 624.298 547.143 624.033C547.524 623.769 547.904 623.505 548.283 623.239C548.662 622.972 549.039 622.704 549.416 622.435C549.794 622.167 550.171 621.898 550.547 621.629C550.923 621.359 551.298 621.089 551.673 620.817C552.048 620.544 552.422 620.271 552.796 619.996C553.168 619.722 553.54 619.447 553.911 619.172C554.284 618.897 554.656 618.621 555.027 618.343C555.397 618.066 555.767 617.788 556.135 617.51C556.505 617.229 556.873 616.948 557.241 616.666C557.609 616.386 557.977 616.105 558.344 615.823C558.711 615.54 559.078 615.256 559.443 614.972C559.808 614.687 560.172 614.402 560.536 614.116C560.901 613.83 561.264 613.542 561.627 613.255C561.989 612.966 562.35 612.677 562.711 612.387C563.072 612.098 563.432 611.808 563.792 611.518C564.151 611.226 564.51 610.933 564.868 610.64C565.227 610.347 565.586 610.054 565.944 609.759C566.301 609.462 566.657 609.165 567.013 608.866C567.367 608.571 567.721 608.275 568.074 607.978C568.428 607.68 568.782 607.38 569.135 607.08C569.412 606.843 569.689 606.606 569.965 606.368L570.189 606.175C570.541 605.873 570.892 605.57 571.243 605.267C571.592 604.964 571.941 604.661 572.289 604.356C572.637 604.051 572.984 603.744 573.331 603.436C573.677 603.13 574.023 602.824 574.367 602.516C574.713 602.208 575.058 601.898 575.401 601.588C575.745 601.277 576.088 600.966 576.43 600.653C576.773 600.341 577.114 600.029 577.455 599.716C577.796 599.402 578.136 599.088 578.476 598.773C578.815 598.458 579.153 598.142 579.49 597.826C579.828 597.508 580.166 597.19 580.502 596.871C580.838 596.552 581.172 596.233 581.507 595.913C581.841 595.593 582.175 595.273 582.509 594.951C582.842 594.629 583.174 594.307 583.505 593.984C583.837 593.661 584.168 593.337 584.497 593.012C584.827 592.687 585.156 592.361 585.485 592.034C585.743 591.777 586.002 591.518 586.26 591.26L586.467 591.052C586.793 590.725 587.119 590.397 587.444 590.068C587.769 589.738 588.094 589.408 588.418 589.076C588.742 588.745 589.065 588.414 589.388 588.081C589.71 587.748 590.031 587.414 590.35 587.079C590.67 586.745 590.99 586.411 591.308 586.075C591.627 585.738 591.945 585.401 592.263 585.063C592.579 584.727 592.895 584.39 593.21 584.052C593.526 583.711 593.841 583.37 594.155 583.027C594.469 582.688 594.783 582.349 595.095 582.008C595.407 581.666 595.718 581.323 596.028 580.979C596.339 580.636 596.649 580.292 596.958 579.947C597.266 579.601 597.574 579.254 597.881 578.906C598.187 578.56 598.494 578.214 598.799 577.867C599.104 577.52 599.409 577.172 599.714 576.823C600.017 576.473 600.32 576.123 600.622 575.772C600.924 575.42 601.226 575.068 601.527 574.715C601.827 574.363 602.126 574.01 602.425 573.656C602.724 573.303 603.021 572.948 603.318 572.593C603.615 572.238 603.911 571.883 604.206 571.527C604.502 571.17 604.796 570.813 605.089 570.456C605.383 570.098 605.676 569.739 605.968 569.379C606.26 569.018 606.551 568.656 606.841 568.293C607.131 567.934 607.421 567.573 607.709 567.212C607.997 566.85 608.284 566.487 608.57 566.124C608.857 565.76 609.143 565.396 609.428 565.03C609.713 564.664 609.997 564.297 610.279 563.93C610.562 563.565 610.844 563.2 611.125 562.834C611.407 562.466 611.687 562.097 611.967 561.728C612.246 561.358 612.525 560.988 612.803 560.617C613.08 560.246 613.356 559.874 613.631 559.502C613.908 559.131 614.183 558.76 614.458 558.388C614.732 558.014 615.005 557.638 615.277 557.263C615.549 556.889 615.82 556.514 616.09 556.14C616.361 555.763 616.631 555.386 616.899 555.009C617.168 554.632 617.436 554.254 617.703 553.876C617.97 553.498 618.235 553.12 618.5 552.741C618.766 552.359 619.03 551.978 619.294 551.595C619.557 551.216 619.819 550.835 620.081 550.455C620.341 550.072 620.601 549.688 620.86 549.304C621.12 548.922 621.379 548.538 621.637 548.154C621.894 547.768 622.15 547.381 622.406 546.994C622.662 546.609 622.917 546.224 623.17 545.839C623.424 545.45 623.678 545.061 623.93 544.671C624.181 544.284 624.432 543.897 624.682 543.508C624.933 543.118 625.183 542.727 625.432 542.336C625.679 541.945 625.926 541.555 626.171 541.163C626.418 540.77 626.664 540.377 626.908 539.983C627.153 539.59 627.396 539.197 627.638 538.803C627.881 538.408 628.122 538.012 628.363 537.616C628.604 537.221 628.844 536.825 629.083 536.428C629.321 536.031 629.559 535.634 629.795 535.236C630.032 534.838 630.268 534.44 630.503 534.041C630.738 533.642 630.972 533.243 631.205 532.844C631.438 532.443 631.67 532.043 631.901 531.641C632.132 531.24 632.361 530.837 632.591 530.434C632.819 530.032 633.047 529.63 633.273 529.227C633.5 528.823 633.726 528.419 633.951 528.015C634.177 527.611 634.401 527.206 634.624 526.8C634.848 526.394 635.07 525.988 635.292 525.581C635.513 525.174 635.733 524.767 635.953 524.359C636.171 523.951 636.389 523.543 636.606 523.134C636.823 522.725 637.039 522.315 637.254 521.905C637.469 521.495 637.683 521.084 637.897 520.673C638.111 520.262 638.324 519.852 638.535 519.441C638.747 519.028 638.957 518.615 639.166 518.201C639.375 517.789 639.583 517.375 639.789 516.962C639.997 516.548 640.205 516.133 640.41 515.718C640.615 515.302 640.819 514.885 641.021 514.468C641.225 514.053 641.428 513.638 641.63 513.221C641.831 512.805 642.032 512.388 642.231 511.97C642.43 511.551 642.628 511.132 642.825 510.713C643.022 510.295 643.218 509.876 643.414 509.456C643.609 509.037 643.804 508.618 643.997 508.197C644.19 507.776 644.381 507.355 644.571 506.933C644.763 506.511 644.953 506.089 645.143 505.667C645.332 505.244 645.52 504.821 645.707 504.397C645.894 503.973 646.081 503.549 646.266 503.123C646.451 502.699 646.635 502.275 646.818 501.85C647 501.424 647.181 500.999 647.362 500.573C647.542 500.146 647.723 499.719 647.901 499.291C648.08 498.864 648.258 498.436 648.435 498.008C648.612 497.58 648.788 497.152 648.962 496.724C649.137 496.295 649.311 495.867 649.484 495.437C649.657 495.008 649.828 494.578 649.999 494.149C650.169 493.718 650.338 493.286 650.506 492.855C650.675 492.423 650.844 491.991 651.011 491.558C651.177 491.127 651.342 490.695 651.505 490.262C651.67 489.829 651.833 489.395 651.995 488.961C652.158 488.528 652.32 488.094 652.48 487.66C652.639 487.226 652.797 486.791 652.955 486.356C653.113 485.921 653.269 485.486 653.425 485.05C653.581 484.613 653.736 484.176 653.89 483.739C654.044 483.303 654.196 482.867 654.347 482.43C654.46 482.107 654.572 481.784 654.683 481.46L654.8 481.116C654.95 480.678 655.098 480.239 655.246 479.8C655.393 479.361 655.539 478.922 655.684 478.482C655.829 478.042 655.973 477.602 656.116 477.161C656.259 476.72 656.401 476.279 656.542 475.837C656.684 475.397 656.823 474.957 656.963 474.516C657.102 474.075 657.239 473.633 657.376 473.19C657.511 472.748 657.645 472.305 657.779 471.862C657.913 471.42 658.047 470.977 658.18 470.534C658.313 470.089 658.445 469.643 658.576 469.198C658.706 468.754 658.835 468.311 658.964 467.867C659.092 467.422 659.219 466.977 659.345 466.531C659.47 466.085 659.595 465.639 659.718 465.193C659.842 464.747 659.965 464.301 660.087 463.854C660.209 463.407 660.33 462.959 660.451 462.511C660.57 462.064 660.688 461.617 660.804 461.17C660.922 460.722 661.038 460.274 661.153 459.825C661.268 459.376 661.382 458.928 661.495 458.479C661.608 458.03 661.72 457.58 661.831 457.13C661.942 456.681 662.051 456.232 662.16 455.782C662.268 455.332 662.375 454.882 662.482 454.432C662.589 453.98 662.696 453.528 662.801 453.076C662.905 452.626 663.008 452.176 663.11 451.725C663.212 451.274 663.312 450.821 663.412 450.37C663.512 449.917 663.611 449.464 663.709 449.011C663.806 448.558 663.903 448.105 663.998 447.651C664.094 447.199 664.189 446.747 664.283 446.295C664.376 445.841 664.467 445.387 664.557 444.932C664.649 444.479 664.74 444.025 664.829 443.572C664.918 443.117 665.005 442.661 665.092 442.206C665.179 441.75 665.264 441.294 665.349 440.838C665.434 440.384 665.519 439.93 665.602 439.475C665.683 439.02 665.764 438.565 665.844 438.11C665.924 437.652 666.003 437.194 666.081 436.736C666.115 436.537 666.149 436.337 666.183 436.138H95.7458L95.7362 540.141L53.0928 582.787L0 635.836Z" fill="white"/>
</svg>
