<svg width="1920" height="1378" viewBox="0 0 1920 1378" fill="none" xmlns="http://www.w3.org/2000/svg">
<path d="M443.701 829.343L595.384 679.35L258.232 679.347C154.646 679.347 22.9296 712.822 23.9162 916.299L25.8893 1377.55L154.646 1248.43L147.74 1098.01C146.754 1077.27 155.632 1055.74 173.39 1054.75H309.294C341.849 1053.76 358.859 1054.55 370.697 1041.71C382.536 1029.86 388.455 1012.08 388.455 988.371C388.455 964.665 379.087 955.209 364.289 942.368C349.491 929.527 330.249 934.045 303.613 933.057H173.39C150.7 932.069 141.821 900.461 142.808 879.719C143.794 845.147 180.296 827.368 252.313 828.355L443.701 829.343Z" fill="#082120"/>
<path d="M443.701 174.181L595.384 24.1881L258.232 24.1846C154.646 24.1851 22.9296 57.66 23.9162 261.137L25.8893 722.383L154.646 593.267L147.74 442.849C146.754 422.107 155.632 400.576 173.39 399.588H309.294C341.849 398.6 358.859 399.388 370.697 386.548C382.536 374.695 388.455 356.915 388.455 333.209C388.455 309.503 379.087 300.047 364.289 287.206C349.491 274.365 330.249 278.883 303.613 277.895H173.39C150.7 276.907 141.821 245.299 142.808 224.556C143.794 189.985 180.296 172.206 252.313 173.193L443.701 174.181Z" fill="#082120"/>
<path d="M419.79 150.27L571.474 0.276925L234.321 0.273438C130.736 0.274012 -0.981028 33.7489 0.00550883 237.226L1.97864 698.472L130.735 569.356L123.83 418.938C122.843 398.196 131.722 376.664 149.479 375.677H285.383C317.939 374.689 334.948 375.477 346.786 362.637C358.625 350.783 364.544 333.004 364.544 309.298C364.544 285.592 355.177 276.136 340.379 263.295C325.581 250.454 306.339 254.972 279.702 253.984H149.479C126.789 252.996 117.91 221.388 118.897 200.645C119.883 166.074 156.385 148.294 228.402 149.282L419.79 150.27Z" fill="#FFD27F"/>
<path d="M419.79 805.432L571.474 655.439L234.321 655.436C130.736 655.436 -0.981028 688.911 0.00550883 892.388L1.97864 1353.63L130.735 1224.52L123.83 1074.1C122.843 1053.36 131.722 1031.83 149.479 1030.84H285.383C317.939 1029.85 334.948 1030.64 346.786 1017.8C358.625 1005.95 364.544 988.166 364.544 964.46C364.544 940.754 355.177 931.298 340.379 918.457C325.581 905.616 306.339 910.134 279.702 909.146H149.479C126.789 908.158 117.91 876.55 118.897 855.807C119.883 821.236 156.385 803.457 228.402 804.444L419.79 805.432Z" fill="#FFD27F"/>
<path d="M525.852 1170.61C525.852 1188.98 522.027 1201.83 514.375 1209.18C506.724 1216.22 493.104 1219.74 473.516 1219.74C455.458 1219.74 443.216 1215.6 436.789 1207.34C430.361 1198.77 427.148 1184.84 427.148 1165.56V1052.63C427.148 1042.22 428.984 1033.19 432.657 1025.54C436.33 1017.58 441.686 1011.46 448.725 1007.18C455.764 1002.89 464.028 1000.75 473.516 1000.75C496.777 1000.75 512.08 1007.48 519.425 1020.95C537.177 1007.48 554.316 1000.75 570.843 1000.75C602.98 1000.75 619.048 1016.05 619.048 1046.66C619.048 1058.9 615.528 1068.85 608.489 1076.5C601.45 1084.15 592.268 1087.98 580.943 1087.98C574.21 1087.98 568.701 1086.6 564.416 1083.84C560.437 1081.09 556.612 1078.34 552.939 1075.58C549.572 1072.83 545.593 1071.45 541.002 1071.45C534.269 1071.45 529.219 1073.74 525.852 1078.34V1170.61Z" fill="#082120"/>
<path d="M787.42 1067.78C782.217 1058.9 775.484 1054.46 767.22 1054.46C759.262 1054.46 752.835 1060.28 747.938 1071.91C743.041 1083.54 740.593 1096.85 740.593 1111.85C740.593 1125.93 742.888 1138.48 747.479 1149.49C752.07 1160.51 758.497 1166.02 766.761 1166.02C775.331 1166.02 782.217 1161.89 787.42 1153.63V1067.78ZM724.984 1222.49C700.805 1222.49 680.758 1212.7 664.842 1193.11C648.927 1173.21 640.97 1146.13 640.97 1111.85C640.97 1076.96 648.774 1049.26 664.383 1028.75C680.299 1007.94 700.499 997.535 724.984 997.535C749.775 997.535 772.729 1006.26 793.847 1023.7C802.111 1008.4 815.425 1000.75 833.788 1000.75C850.316 1000.75 863.17 1004.42 872.352 1011.77C881.534 1018.81 886.125 1031.97 886.125 1051.25V1170.61C886.125 1188.98 882.299 1201.83 874.647 1209.18C866.996 1216.22 853.529 1219.74 834.247 1219.74C814.047 1219.74 800.734 1214.07 794.306 1202.75C774.718 1215.91 751.611 1222.49 724.984 1222.49Z" fill="#082120"/>
<path d="M1061.12 1096.24C1061.12 1079.1 1054.38 1070.53 1040.92 1070.53C1034.49 1070.53 1029.13 1073.29 1024.85 1078.79C1020.87 1084 1018.57 1091.04 1017.96 1099.91V1170.61C1017.96 1189.28 1014.13 1202.14 1006.48 1209.18C998.832 1216.22 985.365 1219.74 966.083 1219.74C948.026 1219.74 935.63 1215.6 928.897 1207.34C922.47 1198.77 919.256 1184.84 919.256 1165.56V1052.63C919.256 1037.02 923.388 1024.47 931.651 1014.98C940.221 1005.49 951.545 1000.75 965.624 1000.75C977.255 1000.75 987.048 1002.43 995.006 1005.8C1002.96 1009.17 1008.93 1014.98 1012.91 1023.24C1036.78 1007.64 1065.86 999.831 1100.14 999.831C1121.87 999.831 1137.48 1008.4 1146.97 1025.54C1156.76 1042.68 1161.66 1070.84 1161.66 1110.01C1161.66 1129.29 1161.2 1145.06 1160.28 1157.3C1159.36 1169.24 1157.83 1179.64 1155.69 1188.52C1153.85 1197.09 1150.79 1203.51 1146.51 1207.8C1142.22 1212.08 1137.17 1215.14 1131.36 1216.98C1125.85 1218.82 1118.65 1219.74 1109.78 1219.74C1092.64 1219.74 1080.24 1216.52 1072.59 1210.09C1065.25 1203.67 1061.57 1194.18 1061.57 1181.63L1061.12 1096.24Z" fill="#082120"/>
<path d="M1315.07 1154.54H1298.54C1298.54 1170.46 1293.95 1185.3 1284.77 1199.08C1275.59 1212.85 1263.35 1219.74 1248.04 1219.74C1230.9 1219.74 1218.2 1214.99 1209.94 1205.5C1201.98 1195.71 1198 1178.57 1198 1154.09V965.399C1198 952.238 1200.14 941.679 1204.43 933.722C1208.71 925.458 1214.22 919.643 1220.96 916.276C1228 912.909 1237.02 910.92 1248.04 910.308C1267.02 910.308 1279.72 916.735 1286.15 929.59C1292.57 942.138 1295.79 964.022 1295.79 995.24C1295.79 1019.42 1294.41 1040.69 1291.66 1059.05C1293.8 1065.79 1300.68 1069.15 1312.32 1069.15C1319.66 1069.15 1324.56 1067.62 1327.01 1064.56C1329.76 1061.2 1331.14 1054.62 1331.14 1044.82C1331.14 1030.44 1334.81 1020.03 1342.16 1013.6C1349.81 1007.18 1362.66 1003.96 1380.72 1003.96C1399.7 1003.96 1412.4 1007.48 1418.82 1014.52C1425.56 1021.26 1428.92 1033.65 1428.92 1051.71C1428.92 1070.68 1423.26 1085.38 1411.94 1095.78C1400.61 1106.19 1387.91 1111.39 1373.83 1111.39C1388.22 1111.39 1400.92 1115.83 1411.94 1124.7C1423.26 1133.27 1428.92 1146.28 1428.92 1163.73C1428.92 1186.99 1425.71 1202.14 1419.28 1209.18C1413.16 1216.22 1400.31 1219.74 1380.72 1219.74C1362.66 1219.74 1349.81 1216.52 1342.16 1210.09C1334.81 1203.36 1331.14 1192.96 1331.14 1178.88C1331.14 1171.84 1330.53 1166.63 1329.3 1163.27C1328.08 1159.59 1326.39 1157.3 1324.25 1156.38C1322.42 1155.16 1319.35 1154.54 1315.07 1154.54Z" fill="#082120"/>
<path d="M1563.59 1170.61C1563.59 1188.98 1559.77 1201.83 1552.11 1209.18C1544.46 1216.22 1531 1219.74 1511.71 1219.74C1493.66 1219.74 1481.26 1215.6 1474.53 1207.34C1468.1 1198.77 1464.89 1184.84 1464.89 1165.56V1052.63C1464.89 1037.02 1469.02 1024.47 1477.28 1014.98C1485.85 1005.49 1497.18 1000.75 1511.25 1000.75C1527.78 1000.75 1540.64 1004.42 1549.82 1011.77C1559 1018.81 1563.59 1031.97 1563.59 1051.25V1170.61ZM1463.97 936.935C1463.97 949.178 1468.71 958.053 1478.2 963.563C1487.69 969.072 1499.62 971.826 1514.01 971.826C1530.23 971.826 1542.63 969.225 1551.2 964.022C1559.77 958.819 1564.05 949.79 1564.05 936.935C1564.05 913.675 1547.37 902.044 1514.01 902.044C1498.09 902.044 1485.7 905.258 1476.82 911.685C1468.25 918.112 1463.97 926.529 1463.97 936.935Z" fill="#082120"/>
<path d="M1693.82 1091.19C1714.94 1090.88 1726.42 1090.73 1728.25 1090.73C1732.84 1090.73 1736.21 1087.98 1738.35 1082.47C1739.88 1078.49 1740.65 1072.98 1740.65 1065.94C1740.65 1046.66 1734.83 1037.02 1723.2 1037.02C1718.92 1037.02 1714.63 1039.31 1710.35 1043.9C1706.37 1048.49 1702.85 1055.07 1699.79 1063.64C1696.73 1071.91 1694.74 1081.09 1693.82 1091.19ZM1725.04 1222.49C1687.7 1222.49 1656.79 1212.85 1632.3 1193.57C1608.12 1174.29 1596.03 1147.96 1596.03 1114.6C1596.03 1078.49 1607.97 1050.02 1631.84 1029.21C1656.02 1008.09 1687.09 997.535 1725.04 997.535C1760.85 997.535 1787.02 1003.96 1803.54 1016.82C1820.38 1029.37 1828.79 1046.66 1828.79 1068.69C1828.79 1072.98 1828.18 1077.11 1826.96 1081.09C1826.04 1085.07 1824.36 1089.05 1821.91 1093.03C1819.76 1096.7 1816.7 1100.22 1812.73 1103.59C1809.05 1106.65 1804.77 1109.55 1799.87 1112.31C1794.97 1114.76 1789.16 1116.75 1782.43 1118.28C1775.69 1119.5 1768.5 1120.11 1760.85 1120.11L1696.12 1120.57C1699.18 1130.37 1704.69 1138.17 1712.64 1143.99C1720.6 1149.49 1730.7 1152.25 1742.94 1152.25C1756.1 1152.25 1769.57 1150.57 1783.34 1147.2C1789.16 1145.67 1795.43 1143.22 1802.17 1139.85C1809.21 1136.49 1814.26 1134.8 1817.32 1134.8C1822.52 1134.8 1826.5 1136.33 1829.25 1139.39C1832.31 1142.46 1833.84 1146.28 1833.84 1150.87C1833.84 1156.38 1831.4 1163.11 1826.5 1171.07C1821.6 1178.72 1814.71 1186.53 1805.84 1194.49C1797.27 1202.14 1785.79 1208.72 1771.41 1214.23C1757.02 1219.74 1741.57 1222.49 1725.04 1222.49Z" fill="#082120"/>
<path d="M525.852 515.451C525.852 533.814 522.027 546.669 514.375 554.014C506.724 561.054 493.257 564.573 473.975 564.573C455.917 564.573 443.522 560.442 436.789 552.178C430.361 543.608 427.148 529.682 427.148 510.401V397.464C427.148 381.855 431.28 369.306 439.543 359.818C448.113 350.331 459.437 345.587 473.516 345.587C490.043 345.587 502.898 349.259 512.08 356.605C521.262 363.644 525.852 376.805 525.852 396.087V515.451ZM426.229 281.773C426.229 294.015 430.973 302.891 440.461 308.4C449.949 313.909 461.886 316.664 476.271 316.664C492.492 316.664 504.887 314.062 513.457 308.859C522.027 303.656 526.312 294.627 526.312 281.773C526.312 258.512 509.631 246.882 476.271 246.882C460.355 246.882 447.96 250.095 439.084 256.523C430.514 262.95 426.229 271.367 426.229 281.773Z" fill="#082120"/>
<path d="M659.754 515.451C659.754 533.814 655.928 546.669 648.277 554.014C640.625 561.054 627.006 564.573 607.418 564.573C589.36 564.573 577.118 560.442 570.69 552.178C564.263 543.608 561.049 529.682 561.049 510.401V397.464C561.049 387.058 562.886 378.029 566.559 370.378C570.231 362.42 575.587 356.299 582.627 352.014C589.666 347.729 597.93 345.587 607.418 345.587C630.678 345.587 645.981 352.32 653.327 365.787C671.078 352.32 688.218 345.587 704.745 345.587C736.882 345.587 752.95 360.89 752.95 391.496C752.95 403.738 749.43 413.685 742.391 421.337C735.351 428.988 726.17 432.814 714.845 432.814C708.112 432.814 702.603 431.437 698.318 428.682C694.339 425.928 690.513 423.173 686.841 420.419C683.474 417.664 679.495 416.287 674.904 416.287C668.171 416.287 663.121 418.582 659.754 423.173V515.451Z" fill="#082120"/>
<path d="M871.281 436.028C892.399 435.722 903.876 435.569 905.713 435.569C910.304 435.569 913.67 432.814 915.813 427.305C917.343 423.326 918.108 417.817 918.108 410.778C918.108 391.496 912.293 381.855 900.663 381.855C896.378 381.855 892.093 384.15 887.808 388.741C883.829 393.332 880.31 399.912 877.249 408.482C874.188 416.746 872.199 425.928 871.281 436.028ZM902.499 567.328C865.16 567.328 834.247 557.687 809.762 538.405C785.584 519.123 773.494 492.802 773.494 459.441C773.494 423.326 785.431 394.862 809.303 374.05C833.482 352.932 864.547 342.373 902.499 342.373C938.308 342.373 964.476 348.8 981.004 361.655C997.837 374.203 1006.25 391.496 1006.25 413.532C1006.25 417.817 1005.64 421.949 1004.42 425.928C1003.5 429.906 1001.82 433.885 999.367 437.864C997.225 441.537 994.164 445.057 990.186 448.423C986.513 451.484 982.228 454.391 977.331 457.146C972.434 459.594 966.619 461.584 959.886 463.114C953.152 464.338 945.96 464.951 938.308 464.951L873.576 465.41C876.637 475.204 882.146 483.008 890.104 488.823C898.061 494.332 908.161 497.087 920.404 497.087C933.564 497.087 947.031 495.404 960.804 492.037C966.619 490.507 972.893 488.058 979.626 484.691C986.666 481.325 991.716 479.641 994.777 479.641C999.98 479.641 1003.96 481.172 1006.71 484.232C1009.77 487.293 1011.3 491.119 1011.3 495.71C1011.3 501.219 1008.86 507.952 1003.96 515.91C999.061 523.561 992.175 531.366 983.299 539.323C974.729 546.975 963.252 553.555 948.867 559.064C934.482 564.573 919.026 567.328 902.499 567.328Z" fill="#082120"/>
<path d="M1141.65 494.332C1147.16 504.738 1154.81 509.942 1164.6 509.942C1172.87 509.942 1179.29 504.738 1183.88 494.332C1188.48 483.926 1190.77 471.99 1190.77 458.523C1190.77 451.178 1190.16 443.985 1188.93 436.946C1187.71 429.906 1186.03 423.632 1183.88 418.123C1181.74 412.308 1178.99 407.717 1175.62 404.35C1172.25 400.678 1168.43 398.841 1164.14 398.841C1154.66 398.841 1147.16 404.503 1141.65 415.828C1141.65 419.806 1141.65 431.284 1141.65 450.26C1141.65 468.929 1141.65 483.62 1141.65 494.332ZM1141.19 364.409C1161.39 349.412 1183.27 341.914 1206.84 341.914C1230.71 341.914 1250.61 352.014 1266.52 372.214C1282.44 392.414 1290.39 417.97 1290.39 448.882C1290.39 486.222 1278.3 515.451 1254.13 536.569C1229.95 557.381 1198.58 567.787 1160.01 567.787C1136.44 567.787 1115.79 564.42 1098.03 557.687C1080.59 550.954 1066.82 540.854 1056.72 527.387C1046.92 513.92 1041.87 497.699 1041.57 478.723L1040.65 305.646C1040.65 286.67 1045.24 272.744 1054.42 263.868C1063.6 254.992 1075.84 250.555 1091.15 250.555C1108.29 250.555 1120.84 254.686 1128.79 262.95C1137.06 270.908 1141.19 283.762 1141.19 301.514V364.409Z" fill="#082120"/>
<path d="M1424.91 515.451C1424.91 533.814 1421.08 546.669 1413.43 554.014C1405.78 561.054 1392.31 564.573 1373.03 564.573C1354.97 564.573 1342.58 560.442 1335.84 552.178C1329.42 543.608 1326.2 529.682 1326.2 510.401V397.464C1326.2 381.855 1330.33 369.306 1338.6 359.818C1347.17 350.331 1358.49 345.587 1372.57 345.587C1389.1 345.587 1401.95 349.259 1411.13 356.605C1420.32 363.644 1424.91 376.805 1424.91 396.087V515.451ZM1325.28 281.773C1325.28 294.015 1330.03 302.891 1339.52 308.4C1349 313.909 1360.94 316.664 1375.33 316.664C1391.55 316.664 1403.94 314.062 1412.51 308.859C1421.08 303.656 1425.37 294.627 1425.37 281.773C1425.37 258.512 1408.69 246.882 1375.33 246.882C1359.41 246.882 1347.01 250.095 1338.14 256.523C1329.57 262.95 1325.28 271.367 1325.28 281.773Z" fill="#082120"/>
<path d="M1558.81 515.451C1558.81 533.814 1554.98 546.669 1547.33 554.014C1539.68 561.054 1526.06 564.573 1506.47 564.573C1488.42 564.573 1476.17 560.442 1469.75 552.178C1463.32 543.608 1460.1 529.682 1460.1 510.401V397.464C1460.1 387.058 1461.94 378.029 1465.61 370.378C1469.29 362.42 1474.64 356.299 1481.68 352.014C1488.72 347.729 1496.98 345.587 1506.47 345.587C1529.73 345.587 1545.04 352.32 1552.38 365.787C1570.13 352.32 1587.27 345.587 1603.8 345.587C1635.94 345.587 1652 360.89 1652 391.496C1652 403.738 1648.49 413.685 1641.45 421.337C1634.41 428.988 1625.22 432.814 1613.9 432.814C1607.17 432.814 1601.66 431.437 1597.37 428.682C1593.39 425.928 1589.57 423.173 1585.9 420.419C1582.53 417.664 1578.55 416.287 1573.96 416.287C1567.23 416.287 1562.18 418.582 1558.81 423.173V515.451Z" fill="#082120"/>
<path d="M1819.92 498.464L1819.46 412.614C1814.26 404.044 1807.52 399.759 1799.26 399.759C1794.06 399.759 1789.31 402.667 1785.03 408.482C1781.05 414.297 1777.99 421.49 1775.84 430.06C1773.7 438.629 1772.63 447.658 1772.63 457.146C1772.63 471.225 1774.93 483.773 1779.52 494.791C1784.11 505.81 1790.54 511.319 1798.8 511.319C1800.33 511.319 1801.86 511.166 1803.39 510.86C1804.92 510.554 1806.3 510.248 1807.52 509.942C1808.75 509.329 1809.97 508.717 1811.19 508.105C1812.42 507.187 1813.49 506.269 1814.41 505.351C1815.33 504.432 1816.24 503.361 1817.16 502.137C1818.08 500.913 1819 499.688 1819.92 498.464ZM1920 495.71C1920 520.501 1915.87 538.252 1907.6 548.964C1899.34 559.37 1886.64 564.573 1869.5 564.573C1849.91 564.573 1836.44 558.452 1829.1 546.21C1809.21 560.595 1785.18 567.787 1757.02 567.787C1733.15 567.787 1713.26 557.993 1697.34 538.405C1681.42 518.511 1673.47 491.425 1673.47 457.146C1673.47 422.255 1681.27 394.556 1696.88 374.05C1712.49 353.238 1732.54 342.832 1757.02 342.832C1779.06 342.832 1799.72 349.871 1819 363.95V305.187C1819 286.517 1823.59 272.744 1832.77 263.868C1841.95 254.686 1854.2 250.095 1869.5 250.095C1886.33 250.095 1898.88 253.462 1907.15 260.195C1915.71 266.929 1920 280.549 1920 301.055V495.71Z" fill="#082120"/>
</svg>
