<svg width="1920" height="1354" viewBox="0 0 1920 1354" fill="none" xmlns="http://www.w3.org/2000/svg">
<path d="M419.79 149.997L571.474 0.00348729L234.322 0C130.736 0.000574346 -0.981028 33.4755 0.00550884 236.952L1.97864 698.199L130.735 569.083L123.83 418.665C122.843 397.922 131.722 376.391 149.48 375.403H285.383C317.939 374.416 334.948 375.204 346.787 362.363C358.625 350.51 364.544 332.731 364.544 309.025C364.544 285.319 355.177 275.862 340.379 263.022C325.581 250.181 306.339 254.698 279.702 253.711H149.48C126.789 252.723 117.91 221.115 118.897 200.372C119.884 165.801 156.385 148.021 228.402 149.009L419.79 149.997Z" fill="white"/>
<path d="M419.79 805.159L571.474 655.166L234.322 655.163C130.736 655.163 -0.981028 688.638 0.00550884 892.115L1.97864 1353.36L130.735 1224.25L123.83 1073.83C122.843 1053.09 131.722 1031.55 149.48 1030.57H285.383C317.939 1029.58 334.948 1030.37 346.787 1017.53C358.625 1005.67 364.544 987.893 364.544 964.187C364.544 940.481 355.177 931.025 340.379 918.184C325.581 905.344 306.339 909.861 279.702 908.873H149.48C126.789 907.886 117.91 876.278 118.897 855.535C119.884 820.963 156.385 803.184 228.402 804.172L419.79 805.159Z" fill="white"/>
<path d="M525.852 1170.34C525.852 1188.7 522.026 1201.56 514.375 1208.9C506.723 1215.94 493.103 1219.46 473.515 1219.46C455.458 1219.46 443.215 1215.33 436.788 1207.07C430.361 1198.5 427.147 1184.57 427.147 1165.29V1052.35C427.147 1041.95 428.983 1032.92 432.656 1025.27C436.329 1017.31 441.685 1011.19 448.724 1006.9C455.764 1002.62 464.027 1000.48 473.515 1000.48C496.776 1000.48 512.079 1007.21 519.424 1020.68C537.176 1007.21 554.316 1000.48 570.843 1000.48C602.979 1000.48 619.047 1015.78 619.047 1046.39C619.047 1058.63 615.528 1068.58 608.488 1076.23C601.449 1083.88 592.267 1087.7 580.943 1087.7C574.21 1087.7 568.7 1086.33 564.416 1083.57C560.437 1080.82 556.611 1078.06 552.938 1075.31C549.572 1072.55 545.593 1071.18 541.002 1071.18C534.268 1071.18 529.218 1073.47 525.852 1078.06V1170.34Z" fill="white"/>
<path d="M787.42 1067.5C782.217 1058.63 775.483 1054.19 767.22 1054.19C759.262 1054.19 752.835 1060.01 747.938 1071.64C743.041 1083.27 740.592 1096.58 740.592 1111.58C740.592 1125.66 742.888 1138.2 747.479 1149.22C752.069 1160.24 758.497 1165.75 766.76 1165.75C775.33 1165.75 782.217 1161.62 787.42 1153.35V1067.5ZM724.983 1222.22C700.804 1222.22 680.757 1212.42 664.842 1192.84C648.927 1172.94 640.969 1145.86 640.969 1111.58C640.969 1076.69 648.774 1048.99 664.383 1028.48C680.298 1007.67 700.498 997.263 724.983 997.263C749.774 997.263 772.729 1005.99 793.847 1023.43C802.11 1008.13 815.424 1000.48 833.788 1000.48C850.315 1000.48 863.17 1004.15 872.352 1011.49C881.533 1018.53 886.124 1031.69 886.124 1050.98V1170.34C886.124 1188.7 882.299 1201.56 874.647 1208.9C866.995 1215.94 853.529 1219.46 834.247 1219.46C814.047 1219.46 800.733 1213.8 794.306 1202.48C774.718 1215.64 751.61 1222.22 724.983 1222.22Z" fill="white"/>
<path d="M1061.11 1095.97C1061.11 1078.83 1054.38 1070.26 1040.91 1070.26C1034.49 1070.26 1029.13 1073.01 1024.85 1078.52C1020.87 1083.73 1018.57 1090.76 1017.96 1099.64V1170.34C1017.96 1189.01 1014.13 1201.86 1006.48 1208.9C998.831 1215.94 985.365 1219.46 966.083 1219.46C948.025 1219.46 935.63 1215.33 928.896 1207.07C922.469 1198.5 919.255 1184.57 919.255 1165.29V1052.35C919.255 1036.74 923.387 1024.2 931.651 1014.71C940.221 1005.22 951.545 1000.48 965.624 1000.48C977.254 1000.48 987.048 1002.16 995.006 1005.53C1002.96 1008.89 1008.93 1014.71 1012.91 1022.97C1036.78 1007.36 1065.86 999.558 1100.14 999.558C1121.87 999.558 1137.48 1008.13 1146.97 1025.27C1156.76 1042.41 1161.66 1070.56 1161.66 1109.74C1161.66 1129.02 1161.2 1144.78 1160.28 1157.03C1159.36 1168.96 1157.83 1179.37 1155.69 1188.25C1153.85 1196.81 1150.79 1203.24 1146.51 1207.53C1142.22 1211.81 1137.17 1214.87 1131.36 1216.71C1125.85 1218.55 1118.65 1219.46 1109.78 1219.46C1092.64 1219.46 1080.24 1216.25 1072.59 1209.82C1065.25 1203.4 1061.57 1193.91 1061.57 1181.36L1061.11 1095.97Z" fill="white"/>
<path d="M1315.07 1154.27H1298.54C1298.54 1170.19 1293.95 1185.03 1284.77 1198.8C1275.59 1212.58 1263.35 1219.46 1248.04 1219.46C1230.9 1219.46 1218.2 1214.72 1209.94 1205.23C1201.98 1195.44 1198 1178.3 1198 1153.81V965.126C1198 951.966 1200.14 941.407 1204.43 933.449C1208.71 925.185 1214.22 919.37 1220.96 916.004C1227.99 912.637 1237.02 910.647 1248.04 910.035C1267.02 910.035 1279.72 916.463 1286.15 929.317C1292.57 941.866 1295.79 963.749 1295.79 994.967C1295.79 1019.15 1294.41 1040.42 1291.66 1058.78C1293.8 1065.51 1300.68 1068.88 1312.31 1068.88C1319.66 1068.88 1324.56 1067.35 1327.01 1064.29C1329.76 1060.92 1331.14 1054.34 1331.14 1044.55C1331.14 1030.16 1334.81 1019.76 1342.16 1013.33C1349.81 1006.9 1362.66 1003.69 1380.72 1003.69C1399.7 1003.69 1412.4 1007.21 1418.82 1014.25C1425.56 1020.98 1428.92 1033.38 1428.92 1051.44C1428.92 1070.41 1423.26 1085.1 1411.94 1095.51C1400.61 1105.91 1387.91 1111.12 1373.83 1111.12C1388.22 1111.12 1400.92 1115.56 1411.94 1124.43C1423.26 1133 1428.92 1146.01 1428.92 1163.45C1428.92 1186.71 1425.71 1201.86 1419.28 1208.9C1413.16 1215.94 1400.31 1219.46 1380.72 1219.46C1362.66 1219.46 1349.81 1216.25 1342.16 1209.82C1334.81 1203.09 1331.14 1192.68 1331.14 1178.6C1331.14 1171.56 1330.53 1166.36 1329.3 1163C1328.08 1159.32 1326.39 1157.03 1324.25 1156.11C1322.42 1154.88 1319.35 1154.27 1315.07 1154.27Z" fill="white"/>
<path d="M1563.59 1170.34C1563.59 1188.7 1559.77 1201.56 1552.11 1208.9C1544.46 1215.94 1531 1219.46 1511.71 1219.46C1493.66 1219.46 1481.26 1215.33 1474.53 1207.07C1468.1 1198.5 1464.89 1184.57 1464.89 1165.29V1052.35C1464.89 1036.74 1469.02 1024.2 1477.28 1014.71C1485.85 1005.22 1497.18 1000.48 1511.25 1000.48C1527.78 1000.48 1540.64 1004.15 1549.82 1011.49C1559 1018.53 1563.59 1031.69 1563.59 1050.98V1170.34ZM1463.97 936.663C1463.97 948.905 1468.71 957.781 1478.2 963.29C1487.69 968.799 1499.62 971.554 1514.01 971.554C1530.23 971.554 1542.63 968.952 1551.2 963.749C1559.77 958.546 1564.05 949.517 1564.05 936.663C1564.05 913.402 1547.37 901.772 1514.01 901.772C1498.09 901.772 1485.7 904.985 1476.82 911.413C1468.25 917.84 1463.97 926.257 1463.97 936.663Z" fill="white"/>
<path d="M1693.82 1090.92C1714.94 1090.61 1726.42 1090.46 1728.25 1090.46C1732.84 1090.46 1736.21 1087.7 1738.35 1082.19C1739.88 1078.22 1740.65 1072.71 1740.65 1065.67C1740.65 1046.39 1734.83 1036.74 1723.2 1036.74C1718.92 1036.74 1714.63 1039.04 1710.35 1043.63C1706.37 1048.22 1702.85 1054.8 1699.79 1063.37C1696.73 1071.64 1694.74 1080.82 1693.82 1090.92ZM1725.04 1222.22C1687.7 1222.22 1656.79 1212.58 1632.3 1193.3C1608.12 1174.01 1596.03 1147.69 1596.03 1114.33C1596.03 1078.22 1607.97 1049.75 1631.84 1028.94C1656.02 1007.82 1687.09 997.263 1725.04 997.263C1760.85 997.263 1787.02 1003.69 1803.54 1016.54C1820.38 1029.09 1828.79 1046.39 1828.79 1068.42C1828.79 1072.71 1828.18 1076.84 1826.96 1080.82C1826.04 1084.8 1824.36 1088.78 1821.91 1092.75C1819.76 1096.43 1816.7 1099.95 1812.73 1103.31C1809.05 1106.37 1804.77 1109.28 1799.87 1112.04C1794.97 1114.48 1789.16 1116.47 1782.43 1118C1775.69 1119.23 1768.5 1119.84 1760.85 1119.84L1696.12 1120.3C1699.18 1130.09 1704.69 1137.9 1712.64 1143.71C1720.6 1149.22 1730.7 1151.98 1742.94 1151.98C1756.1 1151.98 1769.57 1150.29 1783.34 1146.93C1789.16 1145.4 1795.43 1142.95 1802.17 1139.58C1809.21 1136.21 1814.26 1134.53 1817.32 1134.53C1822.52 1134.53 1826.5 1136.06 1829.25 1139.12C1832.31 1142.18 1833.84 1146.01 1833.84 1150.6C1833.84 1156.11 1831.4 1162.84 1826.5 1170.8C1821.6 1178.45 1814.71 1186.26 1805.84 1194.21C1797.27 1201.86 1785.79 1208.45 1771.41 1213.95C1757.02 1219.46 1741.57 1222.22 1725.04 1222.22Z" fill="white"/>
<path d="M525.852 515.178C525.852 533.542 522.026 546.396 514.375 553.742C506.723 560.781 493.256 564.301 473.974 564.301C455.917 564.301 443.521 560.169 436.788 551.905C430.361 543.336 427.147 529.41 427.147 510.128V397.191C427.147 381.582 431.279 369.034 439.542 359.546C448.112 350.058 459.436 345.314 473.515 345.314C490.043 345.314 502.897 348.987 512.079 356.332C521.261 363.371 525.852 376.532 525.852 395.814V515.178ZM426.229 281.5C426.229 293.742 430.973 302.618 440.461 308.127C449.949 313.636 461.885 316.391 476.27 316.391C492.491 316.391 504.887 313.789 513.456 308.586C522.026 303.383 526.311 294.355 526.311 281.5C526.311 258.239 509.631 246.609 476.27 246.609C460.355 246.609 447.959 249.823 439.083 256.25C430.514 262.677 426.229 271.094 426.229 281.5Z" fill="white"/>
<path d="M659.754 515.178C659.754 533.542 655.928 546.396 648.276 553.742C640.625 560.781 627.005 564.301 607.417 564.301C589.36 564.301 577.117 560.169 570.69 551.905C564.263 543.336 561.049 529.41 561.049 510.128V397.191C561.049 386.785 562.885 377.756 566.558 370.105C570.231 362.147 575.587 356.026 582.626 351.741C589.666 347.456 597.929 345.314 607.417 345.314C630.678 345.314 645.981 352.047 653.326 365.514C671.078 352.047 688.217 345.314 704.745 345.314C736.881 345.314 752.949 360.617 752.949 391.223C752.949 403.465 749.43 413.412 742.39 421.064C735.351 428.716 726.169 432.541 714.845 432.541C708.111 432.541 702.602 431.164 698.317 428.409C694.339 425.655 690.513 422.9 686.84 420.146C683.474 417.391 679.495 416.014 674.904 416.014C668.17 416.014 663.12 418.309 659.754 422.9V515.178Z" fill="white"/>
<path d="M871.28 435.755C892.399 435.449 903.876 435.296 905.712 435.296C910.303 435.296 913.67 432.541 915.812 427.032C917.343 423.053 918.108 417.544 918.108 410.505C918.108 391.223 912.293 381.582 900.662 381.582C896.377 381.582 892.093 383.878 887.808 388.468C883.829 393.059 880.309 399.64 877.249 408.209C874.188 416.473 872.199 425.655 871.28 435.755ZM902.499 567.055C865.159 567.055 834.247 557.414 809.762 538.133C785.583 518.851 773.494 492.529 773.494 459.169C773.494 423.053 785.43 394.59 809.303 373.777C833.482 352.659 864.547 342.1 902.499 342.1C938.308 342.1 964.476 348.527 981.003 361.382C997.837 373.931 1006.25 391.223 1006.25 413.259C1006.25 417.544 1005.64 421.676 1004.42 425.655C1003.5 429.634 1001.82 433.613 999.367 437.591C997.225 441.264 994.164 444.784 990.185 448.15C986.513 451.211 982.228 454.119 977.331 456.873C972.434 459.322 966.619 461.311 959.885 462.841C953.152 464.066 945.959 464.678 938.308 464.678L873.576 465.137C876.636 474.931 882.146 482.735 890.103 488.551C898.061 494.06 908.161 496.814 920.403 496.814C933.564 496.814 947.031 495.131 960.803 491.764C966.619 490.234 972.893 487.785 979.626 484.419C986.666 481.052 991.716 479.369 994.776 479.369C999.979 479.369 1003.96 480.899 1006.71 483.96C1009.77 487.02 1011.3 490.846 1011.3 495.437C1011.3 500.946 1008.86 507.679 1003.96 515.637C999.061 523.289 992.175 531.093 983.299 539.051C974.729 546.702 963.252 553.283 948.867 558.792C934.482 564.301 919.026 567.055 902.499 567.055Z" fill="white"/>
<path d="M1141.65 494.06C1147.16 504.466 1154.81 509.669 1164.6 509.669C1172.87 509.669 1179.29 504.466 1183.88 494.06C1188.47 483.654 1190.77 471.717 1190.77 458.25C1190.77 450.905 1190.16 443.713 1188.93 436.673C1187.71 429.634 1186.03 423.359 1183.88 417.85C1181.74 412.035 1178.99 407.444 1175.62 404.078C1172.25 400.405 1168.43 398.568 1164.14 398.568C1154.66 398.568 1147.16 404.231 1141.65 415.555C1141.65 419.534 1141.65 431.011 1141.65 449.987C1141.65 468.657 1141.65 483.348 1141.65 494.06ZM1141.19 364.137C1161.39 349.14 1183.27 341.641 1206.84 341.641C1230.71 341.641 1250.61 351.741 1266.52 371.941C1282.44 392.141 1290.39 417.697 1290.39 448.61C1290.39 485.949 1278.3 515.178 1254.12 536.296C1229.95 557.108 1198.57 567.514 1160.01 567.514C1136.44 567.514 1115.79 564.148 1098.03 557.414C1080.59 550.681 1066.82 540.581 1056.72 527.114C1046.92 513.648 1041.87 497.426 1041.57 478.451L1040.65 305.373C1040.65 286.397 1045.24 272.471 1054.42 263.595C1063.6 254.72 1075.84 250.282 1091.15 250.282C1108.29 250.282 1120.84 254.414 1128.79 262.677C1137.06 270.635 1141.19 283.489 1141.19 301.241V364.137Z" fill="white"/>
<path d="M1424.91 515.178C1424.91 533.542 1421.08 546.396 1413.43 553.742C1405.78 560.781 1392.31 564.301 1373.03 564.301C1354.97 564.301 1342.58 560.169 1335.84 551.905C1329.42 543.336 1326.2 529.41 1326.2 510.128V397.191C1326.2 381.582 1330.33 369.034 1338.6 359.546C1347.17 350.058 1358.49 345.314 1372.57 345.314C1389.1 345.314 1401.95 348.987 1411.13 356.332C1420.32 363.371 1424.91 376.532 1424.91 395.814V515.178ZM1325.28 281.5C1325.28 293.742 1330.03 302.618 1339.52 308.127C1349 313.636 1360.94 316.391 1375.33 316.391C1391.55 316.391 1403.94 313.789 1412.51 308.586C1421.08 303.383 1425.37 294.355 1425.37 281.5C1425.37 258.239 1408.69 246.609 1375.33 246.609C1359.41 246.609 1347.01 249.823 1338.14 256.25C1329.57 262.677 1325.28 271.094 1325.28 281.5Z" fill="white"/>
<path d="M1558.81 515.178C1558.81 533.542 1554.98 546.396 1547.33 553.742C1539.68 560.781 1526.06 564.301 1506.47 564.301C1488.41 564.301 1476.17 560.169 1469.75 551.905C1463.32 543.336 1460.1 529.41 1460.1 510.128V397.191C1460.1 386.785 1461.94 377.756 1465.61 370.105C1469.29 362.147 1474.64 356.026 1481.68 351.741C1488.72 347.456 1496.98 345.314 1506.47 345.314C1529.73 345.314 1545.04 352.047 1552.38 365.514C1570.13 352.047 1587.27 345.314 1603.8 345.314C1635.94 345.314 1652 360.617 1652 391.223C1652 403.465 1648.49 413.412 1641.45 421.064C1634.41 428.716 1625.22 432.541 1613.9 432.541C1607.17 432.541 1601.66 431.164 1597.37 428.409C1593.39 425.655 1589.57 422.9 1585.9 420.146C1582.53 417.391 1578.55 416.014 1573.96 416.014C1567.23 416.014 1562.18 418.309 1558.81 422.9V515.178Z" fill="white"/>
<path d="M1819.92 498.191L1819.46 412.341C1814.26 403.772 1807.52 399.487 1799.26 399.487C1794.06 399.487 1789.31 402.394 1785.03 408.209C1781.05 414.025 1777.99 421.217 1775.84 429.787C1773.7 438.357 1772.63 447.385 1772.63 456.873C1772.63 470.952 1774.93 483.501 1779.52 494.519C1784.11 505.537 1790.54 511.046 1798.8 511.046C1800.33 511.046 1801.86 510.893 1803.39 510.587C1804.92 510.281 1806.3 509.975 1807.52 509.669C1808.75 509.057 1809.97 508.445 1811.19 507.832C1812.42 506.914 1813.49 505.996 1814.41 505.078C1815.33 504.16 1816.25 503.088 1817.16 501.864C1818.08 500.64 1819 499.416 1819.92 498.191ZM1920 495.437C1920 520.228 1915.87 537.979 1907.6 548.692C1899.34 559.098 1886.64 564.301 1869.5 564.301C1849.91 564.301 1836.45 558.18 1829.1 545.937C1809.21 560.322 1785.18 567.514 1757.02 567.514C1733.15 567.514 1713.26 557.72 1697.34 538.133C1681.43 518.239 1673.47 491.152 1673.47 456.873C1673.47 421.982 1681.27 394.284 1696.88 373.777C1712.49 352.965 1732.54 342.559 1757.02 342.559C1779.06 342.559 1799.72 349.599 1819 363.677V304.914C1819 286.244 1823.59 272.471 1832.77 263.595C1841.95 254.414 1854.2 249.823 1869.5 249.823C1886.33 249.823 1898.88 253.189 1907.15 259.923C1915.71 266.656 1920 280.276 1920 300.782V495.437Z" fill="white"/>
</svg>
