<svg width="1920" height="1378" viewBox="0 0 1920 1378" fill="none" xmlns="http://www.w3.org/2000/svg">
<path d="M443.701 829.07L595.384 679.077L258.232 679.073C154.646 679.074 22.9296 712.549 23.9162 916.026L25.8893 1377.27L154.646 1248.16L147.74 1097.74C146.754 1077 155.632 1055.46 173.39 1054.48H309.294C341.849 1053.49 358.859 1054.28 370.697 1041.44C382.536 1029.58 388.455 1011.8 388.455 988.098C388.455 964.392 379.087 954.935 364.289 942.095C349.491 929.254 330.249 933.771 303.613 932.784H173.39C150.7 931.796 141.821 900.188 142.808 879.445C143.794 844.874 180.296 827.094 252.313 828.082L443.701 829.07Z" fill="#2CB5B2"/>
<path d="M443.701 173.908L595.384 23.9146L258.232 23.9111C154.646 23.9117 22.9296 57.3866 23.9162 260.863L25.8893 722.11L154.646 592.994L147.74 442.576C146.754 421.833 155.632 400.302 173.39 399.314H309.294C341.849 398.327 358.859 399.115 370.697 386.274C382.536 374.421 388.455 356.642 388.455 332.936C388.455 309.23 379.087 299.773 364.289 286.933C349.491 274.092 330.249 278.609 303.613 277.622H173.39C150.7 276.634 141.821 245.026 142.808 224.283C143.794 189.712 180.296 171.932 252.313 172.92L443.701 173.908Z" fill="#2CB5B2"/>
<path d="M419.79 149.997L571.474 0.00348729L234.321 0C130.736 0.000574346 -0.981028 33.4754 0.00550883 236.952L1.97864 698.199L130.735 569.083L123.83 418.665C122.843 397.922 131.722 376.391 149.479 375.403H285.383C317.939 374.415 334.948 375.204 346.786 362.363C358.625 350.51 364.544 332.731 364.544 309.024C364.544 285.318 355.177 275.862 340.379 263.021C325.581 250.181 306.339 254.698 279.702 253.71H149.479C126.789 252.723 117.91 221.115 118.897 200.372C119.883 165.801 156.385 148.021 228.402 149.009L419.79 149.997Z" fill="#FFD27F"/>
<path d="M419.79 805.16L571.474 655.167L234.321 655.163C130.736 655.164 -0.981028 688.639 0.00550883 892.115L1.97864 1353.36L130.735 1224.25L123.83 1073.83C122.843 1053.09 131.722 1031.55 149.479 1030.57H285.383C317.939 1029.58 334.948 1030.37 346.786 1017.53C358.625 1005.67 364.544 987.894 364.544 964.188C364.544 940.482 355.177 931.025 340.379 918.184C325.581 905.344 306.339 909.861 279.702 908.874H149.479C126.789 907.886 117.91 876.278 118.897 855.535C119.883 820.964 156.385 803.184 228.402 804.172L419.79 805.16Z" fill="#FFD27F"/>
<path d="M525.852 1170.34C525.852 1188.7 522.027 1201.56 514.375 1208.9C506.724 1215.94 493.104 1219.46 473.516 1219.46C455.458 1219.46 443.216 1215.33 436.789 1207.07C430.361 1198.5 427.148 1184.57 427.148 1165.29V1052.35C427.148 1041.95 428.984 1032.92 432.657 1025.27C436.33 1017.31 441.686 1011.19 448.725 1006.9C455.764 1002.62 464.028 1000.48 473.516 1000.48C496.777 1000.48 512.08 1007.21 519.425 1020.68C537.177 1007.21 554.316 1000.48 570.843 1000.48C602.98 1000.48 619.048 1015.78 619.048 1046.38C619.048 1058.63 615.528 1068.57 608.489 1076.23C601.45 1083.88 592.268 1087.7 580.943 1087.7C574.21 1087.7 568.701 1086.33 564.416 1083.57C560.437 1080.82 556.612 1078.06 552.939 1075.31C549.572 1072.55 545.593 1071.18 541.002 1071.18C534.269 1071.18 529.219 1073.47 525.852 1078.06V1170.34Z" fill="#2CB5B2"/>
<path d="M787.42 1067.5C782.217 1058.63 775.484 1054.19 767.22 1054.19C759.262 1054.19 752.835 1060 747.938 1071.63C743.041 1083.27 740.593 1096.58 740.593 1111.58C740.593 1125.65 742.888 1138.2 747.479 1149.22C752.07 1160.24 758.497 1165.75 766.761 1165.75C775.331 1165.75 782.217 1161.62 787.42 1153.35V1067.5ZM724.984 1222.22C700.805 1222.22 680.758 1212.42 664.842 1192.84C648.927 1172.94 640.97 1145.85 640.97 1111.58C640.97 1076.68 648.774 1048.99 664.383 1028.48C680.299 1007.67 700.499 997.262 724.984 997.262C749.775 997.262 772.729 1005.98 793.847 1023.43C802.111 1008.13 815.425 1000.48 833.788 1000.48C850.316 1000.48 863.17 1004.15 872.352 1011.49C881.534 1018.53 886.125 1031.69 886.125 1050.98V1170.34C886.125 1188.7 882.299 1201.56 874.647 1208.9C866.996 1215.94 853.529 1219.46 834.247 1219.46C814.047 1219.46 800.734 1213.8 794.306 1202.48C774.718 1215.64 751.611 1222.22 724.984 1222.22Z" fill="#2CB5B2"/>
<path d="M1061.12 1095.97C1061.12 1078.83 1054.38 1070.26 1040.92 1070.26C1034.49 1070.26 1029.13 1073.01 1024.85 1078.52C1020.87 1083.72 1018.57 1090.76 1017.96 1099.64V1170.34C1017.96 1189.01 1014.13 1201.86 1006.48 1208.9C998.832 1215.94 985.365 1219.46 966.083 1219.46C948.026 1219.46 935.63 1215.33 928.897 1207.07C922.47 1198.5 919.256 1184.57 919.256 1165.29V1052.35C919.256 1036.74 923.388 1024.2 931.651 1014.71C940.221 1005.22 951.545 1000.48 965.624 1000.48C977.255 1000.48 987.048 1002.16 995.006 1005.53C1002.96 1008.89 1008.93 1014.71 1012.91 1022.97C1036.78 1007.36 1065.86 999.557 1100.14 999.557C1121.87 999.557 1137.48 1008.13 1146.97 1025.27C1156.76 1042.41 1161.66 1070.56 1161.66 1109.74C1161.66 1129.02 1161.2 1144.78 1160.28 1157.03C1159.36 1168.96 1157.83 1179.37 1155.69 1188.24C1153.85 1196.81 1150.79 1203.24 1146.51 1207.53C1142.22 1211.81 1137.17 1214.87 1131.36 1216.71C1125.85 1218.54 1118.65 1219.46 1109.78 1219.46C1092.64 1219.46 1080.24 1216.25 1072.59 1209.82C1065.25 1203.39 1061.57 1193.91 1061.57 1181.36L1061.12 1095.97Z" fill="#2CB5B2"/>
<path d="M1315.07 1154.27H1298.54C1298.54 1170.19 1293.95 1185.03 1284.77 1198.8C1275.59 1212.58 1263.35 1219.46 1248.04 1219.46C1230.9 1219.46 1218.2 1214.72 1209.94 1205.23C1201.98 1195.44 1198 1178.3 1198 1153.81V965.125C1198 951.965 1200.14 941.406 1204.43 933.448C1208.71 925.184 1214.22 919.369 1220.96 916.003C1228 912.636 1237.02 910.647 1248.04 910.034C1267.02 910.034 1279.72 916.462 1286.15 929.316C1292.57 941.865 1295.79 963.748 1295.79 994.966C1295.79 1019.15 1294.41 1040.42 1291.66 1058.78C1293.8 1065.51 1300.68 1068.88 1312.32 1068.88C1319.66 1068.88 1324.56 1067.35 1327.01 1064.29C1329.76 1060.92 1331.14 1054.34 1331.14 1044.55C1331.14 1030.16 1334.81 1019.76 1342.16 1013.33C1349.81 1006.9 1362.66 1003.69 1380.72 1003.69C1399.7 1003.69 1412.4 1007.21 1418.82 1014.25C1425.56 1020.98 1428.92 1033.38 1428.92 1051.43C1428.92 1070.41 1423.26 1085.1 1411.94 1095.51C1400.61 1105.91 1387.91 1111.12 1373.83 1111.12C1388.22 1111.12 1400.92 1115.55 1411.94 1124.43C1423.26 1133 1428.92 1146.01 1428.92 1163.45C1428.92 1186.71 1425.71 1201.86 1419.28 1208.9C1413.16 1215.94 1400.31 1219.46 1380.72 1219.46C1362.66 1219.46 1349.81 1216.25 1342.16 1209.82C1334.81 1203.09 1331.14 1192.68 1331.14 1178.6C1331.14 1171.56 1330.53 1166.36 1329.3 1162.99C1328.08 1159.32 1326.39 1157.03 1324.25 1156.11C1322.42 1154.88 1319.35 1154.27 1315.07 1154.27Z" fill="#2CB5B2"/>
<path d="M1563.59 1170.34C1563.59 1188.7 1559.77 1201.56 1552.11 1208.9C1544.46 1215.94 1531 1219.46 1511.71 1219.46C1493.66 1219.46 1481.26 1215.33 1474.53 1207.07C1468.1 1198.5 1464.89 1184.57 1464.89 1165.29V1052.35C1464.89 1036.74 1469.02 1024.2 1477.28 1014.71C1485.85 1005.22 1497.18 1000.48 1511.25 1000.48C1527.78 1000.48 1540.64 1004.15 1549.82 1011.49C1559 1018.53 1563.59 1031.69 1563.59 1050.98V1170.34ZM1463.97 936.662C1463.97 948.904 1468.71 957.78 1478.2 963.289C1487.69 968.798 1499.62 971.553 1514.01 971.553C1530.23 971.553 1542.63 968.951 1551.2 963.748C1559.77 958.545 1564.05 949.516 1564.05 936.662C1564.05 913.401 1547.37 901.771 1514.01 901.771C1498.09 901.771 1485.7 904.984 1476.82 911.412C1468.25 917.839 1463.97 926.256 1463.97 936.662Z" fill="#2CB5B2"/>
<path d="M1693.82 1090.92C1714.94 1090.61 1726.42 1090.46 1728.25 1090.46C1732.84 1090.46 1736.21 1087.7 1738.35 1082.19C1739.88 1078.22 1740.65 1072.71 1740.65 1065.67C1740.65 1046.38 1734.83 1036.74 1723.2 1036.74C1718.92 1036.74 1714.63 1039.04 1710.35 1043.63C1706.37 1048.22 1702.85 1054.8 1699.79 1063.37C1696.73 1071.63 1694.74 1080.82 1693.82 1090.92ZM1725.04 1222.22C1687.7 1222.22 1656.79 1212.58 1632.3 1193.29C1608.12 1174.01 1596.03 1147.69 1596.03 1114.33C1596.03 1078.22 1607.97 1049.75 1631.84 1028.94C1656.02 1007.82 1687.09 997.262 1725.04 997.262C1760.85 997.262 1787.02 1003.69 1803.54 1016.54C1820.38 1029.09 1828.79 1046.38 1828.79 1068.42C1828.79 1072.71 1828.18 1076.84 1826.96 1080.82C1826.04 1084.8 1824.36 1088.77 1821.91 1092.75C1819.76 1096.43 1816.7 1099.95 1812.73 1103.31C1809.05 1106.37 1804.77 1109.28 1799.87 1112.03C1794.97 1114.48 1789.16 1116.47 1782.43 1118C1775.69 1119.23 1768.5 1119.84 1760.85 1119.84L1696.12 1120.3C1699.18 1130.09 1704.69 1137.9 1712.64 1143.71C1720.6 1149.22 1730.7 1151.98 1742.94 1151.98C1756.1 1151.98 1769.57 1150.29 1783.34 1146.93C1789.16 1145.4 1795.43 1142.95 1802.17 1139.58C1809.21 1136.21 1814.26 1134.53 1817.32 1134.53C1822.52 1134.53 1826.5 1136.06 1829.25 1139.12C1832.31 1142.18 1833.84 1146.01 1833.84 1150.6C1833.84 1156.11 1831.4 1162.84 1826.5 1170.8C1821.6 1178.45 1814.71 1186.25 1805.84 1194.21C1797.27 1201.86 1785.79 1208.44 1771.41 1213.95C1757.02 1219.46 1741.57 1222.22 1725.04 1222.22Z" fill="#2CB5B2"/>
<path d="M525.852 515.177C525.852 533.541 522.027 546.395 514.375 553.741C506.724 560.78 493.257 564.3 473.975 564.3C455.917 564.3 443.522 560.168 436.789 551.905C430.361 543.335 427.148 529.409 427.148 510.127V397.191C427.148 381.581 431.28 369.033 439.543 359.545C448.113 350.057 459.437 345.313 473.516 345.313C490.043 345.313 502.898 348.986 512.08 356.331C521.262 363.371 525.852 376.531 525.852 395.813V515.177ZM426.229 281.499C426.229 293.742 430.973 302.618 440.461 308.127C449.949 313.636 461.886 316.39 476.271 316.39C492.492 316.39 504.887 313.789 513.457 308.586C522.027 303.383 526.312 294.354 526.312 281.499C526.312 258.239 509.631 246.608 476.271 246.608C460.355 246.608 447.96 249.822 439.084 256.249C430.514 262.677 426.229 271.093 426.229 281.499Z" fill="#2CB5B2"/>
<path d="M659.754 515.177C659.754 533.541 655.928 546.395 648.277 553.741C640.625 560.78 627.006 564.3 607.418 564.3C589.36 564.3 577.118 560.168 570.69 551.905C564.263 543.335 561.049 529.409 561.049 510.127V397.191C561.049 386.784 562.886 377.756 566.559 370.104C570.231 362.147 575.587 356.025 582.627 351.74C589.666 347.456 597.93 345.313 607.418 345.313C630.678 345.313 645.981 352.047 653.327 365.513C671.078 352.047 688.218 345.313 704.745 345.313C736.882 345.313 752.95 360.616 752.95 391.222C752.95 403.465 749.43 413.412 742.391 421.063C735.351 428.715 726.17 432.541 714.845 432.541C708.112 432.541 702.603 431.163 698.318 428.409C694.339 425.654 690.513 422.9 686.841 420.145C683.474 417.391 679.495 416.013 674.904 416.013C668.171 416.013 663.121 418.309 659.754 422.9V515.177Z" fill="#2CB5B2"/>
<path d="M871.281 435.754C892.399 435.448 903.876 435.295 905.713 435.295C910.304 435.295 913.67 432.541 915.813 427.032C917.343 423.053 918.108 417.544 918.108 410.504C918.108 391.222 912.293 381.581 900.663 381.581C896.378 381.581 892.093 383.877 887.808 388.468C883.829 393.059 880.31 399.639 877.249 408.209C874.188 416.472 872.199 425.654 871.281 435.754ZM902.499 567.055C865.16 567.055 834.247 557.414 809.762 538.132C785.584 518.85 773.494 492.529 773.494 459.168C773.494 423.053 785.431 394.589 809.303 373.777C833.482 352.659 864.547 342.1 902.499 342.1C938.308 342.1 964.476 348.527 981.004 361.381C997.837 373.93 1006.25 391.222 1006.25 413.259C1006.25 417.544 1005.64 421.675 1004.42 425.654C1003.5 429.633 1001.82 433.612 999.367 437.591C997.225 441.263 994.164 444.783 990.186 448.15C986.513 451.21 982.228 454.118 977.331 456.873C972.434 459.321 966.619 461.31 959.886 462.841C953.152 464.065 945.96 464.677 938.308 464.677L873.576 465.136C876.637 474.93 882.146 482.735 890.104 488.55C898.061 494.059 908.161 496.814 920.404 496.814C933.564 496.814 947.031 495.13 960.804 491.764C966.619 490.233 972.893 487.785 979.626 484.418C986.666 481.051 991.716 479.368 994.777 479.368C999.98 479.368 1003.96 480.898 1006.71 483.959C1009.77 487.02 1011.3 490.845 1011.3 495.436C1011.3 500.945 1008.86 507.679 1003.96 515.636C999.061 523.288 992.175 531.092 983.299 539.05C974.729 546.702 963.252 553.282 948.867 558.791C934.482 564.3 919.026 567.055 902.499 567.055Z" fill="#2CB5B2"/>
<path d="M1141.65 494.059C1147.16 504.465 1154.81 509.668 1164.6 509.668C1172.87 509.668 1179.29 504.465 1183.88 494.059C1188.48 483.653 1190.77 471.716 1190.77 458.25C1190.77 450.904 1190.16 443.712 1188.93 436.672C1187.71 429.633 1186.03 423.359 1183.88 417.85C1181.74 412.035 1178.99 407.444 1175.62 404.077C1172.25 400.404 1168.43 398.568 1164.14 398.568C1154.66 398.568 1147.16 404.23 1141.65 415.554C1141.65 419.533 1141.65 431.01 1141.65 449.986C1141.65 468.656 1141.65 483.347 1141.65 494.059ZM1141.19 364.136C1161.39 349.139 1183.27 341.64 1206.84 341.64C1230.71 341.64 1250.61 351.74 1266.52 371.94C1282.44 392.141 1290.39 417.697 1290.39 448.609C1290.39 485.948 1278.3 515.177 1254.13 536.295C1229.95 557.108 1198.58 567.514 1160.01 567.514C1136.44 567.514 1115.79 564.147 1098.03 557.414C1080.59 550.68 1066.82 540.58 1056.72 527.114C1046.92 513.647 1041.87 497.426 1041.57 478.45L1040.65 305.372C1040.65 286.396 1045.24 272.471 1054.42 263.595C1063.6 254.719 1075.84 250.281 1091.15 250.281C1108.29 250.281 1120.84 254.413 1128.79 262.677C1137.06 270.634 1141.19 283.489 1141.19 301.24V364.136Z" fill="#2CB5B2"/>
<path d="M1424.91 515.177C1424.91 533.541 1421.08 546.395 1413.43 553.741C1405.78 560.78 1392.31 564.3 1373.03 564.3C1354.97 564.3 1342.58 560.168 1335.84 551.905C1329.42 543.335 1326.2 529.409 1326.2 510.127V397.191C1326.2 381.581 1330.33 369.033 1338.6 359.545C1347.17 350.057 1358.49 345.313 1372.57 345.313C1389.1 345.313 1401.95 348.986 1411.13 356.331C1420.32 363.371 1424.91 376.531 1424.91 395.813V515.177ZM1325.28 281.499C1325.28 293.742 1330.03 302.618 1339.52 308.127C1349 313.636 1360.94 316.39 1375.33 316.39C1391.55 316.39 1403.94 313.789 1412.51 308.586C1421.08 303.383 1425.37 294.354 1425.37 281.499C1425.37 258.239 1408.69 246.608 1375.33 246.608C1359.41 246.608 1347.01 249.822 1338.14 256.249C1329.57 262.677 1325.28 271.093 1325.28 281.499Z" fill="#2CB5B2"/>
<path d="M1558.81 515.177C1558.81 533.541 1554.98 546.395 1547.33 553.741C1539.68 560.78 1526.06 564.3 1506.47 564.3C1488.42 564.3 1476.17 560.168 1469.75 551.905C1463.32 543.335 1460.1 529.409 1460.1 510.127V397.191C1460.1 386.784 1461.94 377.756 1465.61 370.104C1469.29 362.147 1474.64 356.025 1481.68 351.74C1488.72 347.456 1496.98 345.313 1506.47 345.313C1529.73 345.313 1545.04 352.047 1552.38 365.513C1570.13 352.047 1587.27 345.313 1603.8 345.313C1635.94 345.313 1652 360.616 1652 391.222C1652 403.465 1648.49 413.412 1641.45 421.063C1634.41 428.715 1625.22 432.541 1613.9 432.541C1607.17 432.541 1601.66 431.163 1597.37 428.409C1593.39 425.654 1589.57 422.9 1585.9 420.145C1582.53 417.391 1578.55 416.013 1573.96 416.013C1567.23 416.013 1562.18 418.309 1558.81 422.9V515.177Z" fill="#2CB5B2"/>
<path d="M1819.92 498.191L1819.46 412.341C1814.26 403.771 1807.52 399.486 1799.26 399.486C1794.06 399.486 1789.31 402.394 1785.03 408.209C1781.05 414.024 1777.99 421.216 1775.84 429.786C1773.7 438.356 1772.63 447.385 1772.63 456.873C1772.63 470.951 1774.93 483.5 1779.52 494.518C1784.11 505.536 1790.54 511.045 1798.8 511.045C1800.33 511.045 1801.86 510.892 1803.39 510.586C1804.92 510.28 1806.3 509.974 1807.52 509.668C1808.75 509.056 1809.97 508.444 1811.19 507.832C1812.42 506.914 1813.49 505.995 1814.41 505.077C1815.33 504.159 1816.24 503.088 1817.16 501.864C1818.08 500.639 1819 499.415 1819.92 498.191ZM1920 495.436C1920 520.227 1915.87 537.979 1907.6 548.691C1899.34 559.097 1886.64 564.3 1869.5 564.3C1849.91 564.3 1836.44 558.179 1829.1 545.936C1809.21 560.321 1785.18 567.514 1757.02 567.514C1733.15 567.514 1713.26 557.72 1697.34 538.132C1681.42 518.238 1673.47 491.151 1673.47 456.873C1673.47 421.982 1681.27 394.283 1696.88 373.777C1712.49 352.965 1732.54 342.559 1757.02 342.559C1779.06 342.559 1799.72 349.598 1819 363.677V304.913C1819 286.243 1823.59 272.471 1832.77 263.595C1841.95 254.413 1854.2 249.822 1869.5 249.822C1886.33 249.822 1898.88 253.189 1907.15 259.922C1915.71 266.655 1920 280.275 1920 300.781V495.436Z" fill="#2CB5B2"/>
</svg>
