<svg width="1920" height="1354" viewBox="0 0 1920 1354" fill="none" xmlns="http://www.w3.org/2000/svg">
<path d="M419.79 150.27L571.474 0.276925L234.322 0.273438C130.736 0.274012 -0.981028 33.7489 0.00550884 237.226L1.97864 698.473L130.735 569.356L123.83 418.939C122.843 398.196 131.722 376.665 149.48 375.677H285.383C317.939 374.689 334.948 375.478 346.787 362.637C358.625 350.784 364.544 333.004 364.544 309.298C364.544 285.592 355.177 276.136 340.379 263.295C325.581 250.454 306.339 254.972 279.702 253.984H149.48C126.789 252.996 117.91 221.388 118.897 200.645C119.884 166.074 156.385 148.294 228.402 149.282L419.79 150.27Z" fill="black"/>
<path d="M419.79 805.433L571.474 655.44L234.322 655.436C130.736 655.437 -0.981028 688.912 0.00550884 892.389L1.97864 1353.64L130.735 1224.52L123.83 1074.1C122.843 1053.36 131.722 1031.83 149.48 1030.84H285.383C317.939 1029.85 334.948 1030.64 346.787 1017.8C358.625 1005.95 364.544 988.167 364.544 964.461C364.544 940.755 355.177 931.299 340.379 918.458C325.581 905.617 306.339 910.134 279.702 909.147H149.48C126.789 908.159 117.91 876.551 118.897 855.808C119.884 821.237 156.385 803.457 228.402 804.445L419.79 805.433Z" fill="black"/>
<path d="M525.852 1170.61C525.852 1188.98 522.026 1201.83 514.375 1209.18C506.723 1216.22 493.103 1219.74 473.515 1219.74C455.458 1219.74 443.215 1215.61 436.788 1207.34C430.361 1198.77 427.147 1184.85 427.147 1165.56V1052.63C427.147 1042.22 428.983 1033.19 432.656 1025.54C436.329 1017.58 441.685 1011.46 448.724 1007.18C455.764 1002.89 464.027 1000.75 473.515 1000.75C496.776 1000.75 512.079 1007.48 519.424 1020.95C537.176 1007.48 554.316 1000.75 570.843 1000.75C602.979 1000.75 619.047 1016.05 619.047 1046.66C619.047 1058.9 615.528 1068.85 608.488 1076.5C601.449 1084.15 592.267 1087.98 580.943 1087.98C574.21 1087.98 568.7 1086.6 564.416 1083.85C560.437 1081.09 556.611 1078.34 552.938 1075.58C549.572 1072.83 545.593 1071.45 541.002 1071.45C534.268 1071.45 529.218 1073.75 525.852 1078.34V1170.61Z" fill="black"/>
<path d="M787.42 1067.78C782.217 1058.9 775.483 1054.46 767.22 1054.46C759.262 1054.46 752.835 1060.28 747.938 1071.91C743.041 1083.54 740.592 1096.85 740.592 1111.85C740.592 1125.93 742.888 1138.48 747.479 1149.5C752.069 1160.51 758.497 1166.02 766.76 1166.02C775.33 1166.02 782.217 1161.89 787.42 1153.63V1067.78ZM724.983 1222.49C700.804 1222.49 680.757 1212.7 664.842 1193.11C648.927 1173.22 640.969 1146.13 640.969 1111.85C640.969 1076.96 648.774 1049.26 664.383 1028.75C680.298 1007.94 700.498 997.536 724.983 997.536C749.774 997.536 772.729 1006.26 793.847 1023.7C802.11 1008.4 815.424 1000.75 833.788 1000.75C850.315 1000.75 863.17 1004.42 872.352 1011.77C881.533 1018.81 886.124 1031.97 886.124 1051.25V1170.61C886.124 1188.98 882.299 1201.83 874.647 1209.18C866.995 1216.22 853.529 1219.74 834.247 1219.74C814.047 1219.74 800.733 1214.07 794.306 1202.75C774.718 1215.91 751.61 1222.49 724.983 1222.49Z" fill="black"/>
<path d="M1061.11 1096.24C1061.11 1079.1 1054.38 1070.53 1040.91 1070.53C1034.49 1070.53 1029.13 1073.29 1024.85 1078.8C1020.87 1084 1018.57 1091.04 1017.96 1099.91V1170.61C1017.96 1189.28 1014.13 1202.14 1006.48 1209.18C998.831 1216.22 985.365 1219.74 966.083 1219.74C948.025 1219.74 935.63 1215.61 928.896 1207.34C922.469 1198.77 919.255 1184.85 919.255 1165.56V1052.63C919.255 1037.02 923.387 1024.47 931.651 1014.98C940.221 1005.49 951.545 1000.75 965.624 1000.75C977.254 1000.75 987.048 1002.43 995.006 1005.8C1002.96 1009.17 1008.93 1014.98 1012.91 1023.25C1036.78 1007.64 1065.86 999.832 1100.14 999.832C1121.87 999.832 1137.48 1008.4 1146.97 1025.54C1156.76 1042.68 1161.66 1070.84 1161.66 1110.01C1161.66 1129.3 1161.2 1145.06 1160.28 1157.3C1159.36 1169.24 1157.83 1179.64 1155.69 1188.52C1153.85 1197.09 1150.79 1203.52 1146.51 1207.8C1142.22 1212.09 1137.17 1215.15 1131.36 1216.98C1125.85 1218.82 1118.65 1219.74 1109.78 1219.74C1092.64 1219.74 1080.24 1216.52 1072.59 1210.1C1065.25 1203.67 1061.57 1194.18 1061.57 1181.63L1061.11 1096.24Z" fill="black"/>
<path d="M1315.07 1154.55H1298.54C1298.54 1170.46 1293.95 1185.31 1284.77 1199.08C1275.59 1212.85 1263.35 1219.74 1248.04 1219.74C1230.9 1219.74 1218.2 1214.99 1209.94 1205.51C1201.98 1195.71 1198 1178.57 1198 1154.09V965.4C1198 952.239 1200.14 941.68 1204.43 933.723C1208.71 925.459 1214.22 919.644 1220.96 916.277C1227.99 912.91 1237.02 910.921 1248.04 910.309C1267.02 910.309 1279.72 916.736 1286.15 929.591C1292.57 942.139 1295.79 964.023 1295.79 995.241C1295.79 1019.42 1294.41 1040.69 1291.66 1059.05C1293.8 1065.79 1300.68 1069.15 1312.31 1069.15C1319.66 1069.15 1324.56 1067.62 1327.01 1064.56C1329.76 1061.2 1331.14 1054.62 1331.14 1044.82C1331.14 1030.44 1334.81 1020.03 1342.16 1013.6C1349.81 1007.18 1362.66 1003.96 1380.72 1003.96C1399.7 1003.96 1412.4 1007.48 1418.82 1014.52C1425.56 1021.26 1428.92 1033.65 1428.92 1051.71C1428.92 1070.69 1423.26 1085.38 1411.94 1095.78C1400.61 1106.19 1387.91 1111.39 1373.83 1111.39C1388.22 1111.39 1400.92 1115.83 1411.94 1124.7C1423.26 1133.27 1428.92 1146.28 1428.92 1163.73C1428.92 1186.99 1425.71 1202.14 1419.28 1209.18C1413.16 1216.22 1400.31 1219.74 1380.72 1219.74C1362.66 1219.74 1349.81 1216.52 1342.16 1210.1C1334.81 1203.36 1331.14 1192.96 1331.14 1178.88C1331.14 1171.84 1330.53 1166.64 1329.3 1163.27C1328.08 1159.6 1326.39 1157.3 1324.25 1156.38C1322.42 1155.16 1319.35 1154.55 1315.07 1154.55Z" fill="black"/>
<path d="M1563.59 1170.61C1563.59 1188.98 1559.77 1201.83 1552.11 1209.18C1544.46 1216.22 1531 1219.74 1511.71 1219.74C1493.66 1219.74 1481.26 1215.61 1474.53 1207.34C1468.1 1198.77 1464.89 1184.85 1464.89 1165.56V1052.63C1464.89 1037.02 1469.02 1024.47 1477.28 1014.98C1485.85 1005.49 1497.18 1000.75 1511.25 1000.75C1527.78 1000.75 1540.64 1004.42 1549.82 1011.77C1559 1018.81 1563.59 1031.97 1563.59 1051.25V1170.61ZM1463.97 936.936C1463.97 949.179 1468.71 958.054 1478.2 963.563C1487.69 969.073 1499.62 971.827 1514.01 971.827C1530.23 971.827 1542.63 969.226 1551.2 964.023C1559.77 958.82 1564.05 949.791 1564.05 936.936C1564.05 913.676 1547.37 902.045 1514.01 902.045C1498.09 902.045 1485.7 905.259 1476.82 911.686C1468.25 918.113 1463.97 926.53 1463.97 936.936Z" fill="black"/>
<path d="M1693.82 1091.19C1714.94 1090.89 1726.42 1090.73 1728.25 1090.73C1732.84 1090.73 1736.21 1087.98 1738.35 1082.47C1739.88 1078.49 1740.65 1072.98 1740.65 1065.94C1740.65 1046.66 1734.83 1037.02 1723.2 1037.02C1718.92 1037.02 1714.63 1039.31 1710.35 1043.9C1706.37 1048.5 1702.85 1055.08 1699.79 1063.65C1696.73 1071.91 1694.74 1081.09 1693.82 1091.19ZM1725.04 1222.49C1687.7 1222.49 1656.79 1212.85 1632.3 1193.57C1608.12 1174.29 1596.03 1147.97 1596.03 1114.6C1596.03 1078.49 1607.97 1050.03 1631.84 1029.21C1656.02 1008.1 1687.09 997.536 1725.04 997.536C1760.85 997.536 1787.02 1003.96 1803.54 1016.82C1820.38 1029.37 1828.79 1046.66 1828.79 1068.7C1828.79 1072.98 1828.18 1077.11 1826.96 1081.09C1826.04 1085.07 1824.36 1089.05 1821.91 1093.03C1819.76 1096.7 1816.7 1100.22 1812.73 1103.59C1809.05 1106.65 1804.77 1109.55 1799.87 1112.31C1794.97 1114.76 1789.16 1116.75 1782.43 1118.28C1775.69 1119.5 1768.5 1120.11 1760.85 1120.11L1696.12 1120.57C1699.18 1130.37 1704.69 1138.17 1712.64 1143.99C1720.6 1149.5 1730.7 1152.25 1742.94 1152.25C1756.1 1152.25 1769.57 1150.57 1783.34 1147.2C1789.16 1145.67 1795.43 1143.22 1802.17 1139.85C1809.21 1136.49 1814.26 1134.8 1817.32 1134.8C1822.52 1134.8 1826.5 1136.34 1829.25 1139.4C1832.31 1142.46 1833.84 1146.28 1833.84 1150.87C1833.84 1156.38 1831.4 1163.12 1826.5 1171.07C1821.6 1178.72 1814.71 1186.53 1805.84 1194.49C1797.27 1202.14 1785.79 1208.72 1771.41 1214.23C1757.02 1219.74 1741.57 1222.49 1725.04 1222.49Z" fill="black"/>
<path d="M525.852 515.451C525.852 533.815 522.026 546.67 514.375 554.015C506.723 561.055 493.256 564.574 473.974 564.574C455.917 564.574 443.521 560.442 436.788 552.179C430.361 543.609 427.147 529.683 427.147 510.401V397.465C427.147 381.856 431.279 369.307 439.542 359.819C448.112 350.331 459.436 345.587 473.515 345.587C490.043 345.587 502.897 349.26 512.079 356.605C521.261 363.645 525.852 376.806 525.852 396.087V515.451ZM426.229 281.773C426.229 294.016 430.973 302.892 440.461 308.401C449.949 313.91 461.885 316.664 476.27 316.664C492.491 316.664 504.887 314.063 513.456 308.86C522.026 303.657 526.311 294.628 526.311 281.773C526.311 258.513 509.631 246.882 476.27 246.882C460.355 246.882 447.959 250.096 439.083 256.523C430.514 262.951 426.229 271.367 426.229 281.773Z" fill="black"/>
<path d="M659.754 515.451C659.754 533.815 655.928 546.67 648.276 554.015C640.625 561.055 627.005 564.574 607.417 564.574C589.36 564.574 577.117 560.442 570.69 552.179C564.263 543.609 561.049 529.683 561.049 510.401V397.465C561.049 387.059 562.885 378.03 566.558 370.378C570.231 362.421 575.587 356.299 582.626 352.014C589.666 347.73 597.929 345.587 607.417 345.587C630.678 345.587 645.981 352.321 653.326 365.787C671.078 352.321 688.217 345.587 704.745 345.587C736.881 345.587 752.949 360.89 752.949 391.496C752.949 403.739 749.43 413.686 742.39 421.337C735.351 428.989 726.169 432.815 714.845 432.815C708.111 432.815 702.602 431.437 698.317 428.683C694.339 425.928 690.513 423.174 686.84 420.419C683.474 417.665 679.495 416.287 674.904 416.287C668.17 416.287 663.12 418.583 659.754 423.174V515.451Z" fill="black"/>
<path d="M871.28 436.028C892.399 435.722 903.876 435.569 905.712 435.569C910.303 435.569 913.67 432.815 915.812 427.306C917.343 423.327 918.108 417.818 918.108 410.778C918.108 391.496 912.293 381.856 900.662 381.856C896.377 381.856 892.093 384.151 887.808 388.742C883.829 393.333 880.309 399.913 877.249 408.483C874.188 416.747 872.199 425.928 871.28 436.028ZM902.499 567.329C865.159 567.329 834.247 557.688 809.762 538.406C785.583 519.124 773.494 492.803 773.494 459.442C773.494 423.327 785.43 394.863 809.303 374.051C833.482 352.933 864.547 342.374 902.499 342.374C938.308 342.374 964.476 348.801 981.003 361.655C997.837 374.204 1006.25 391.496 1006.25 413.533C1006.25 417.818 1005.64 421.95 1004.42 425.928C1003.5 429.907 1001.82 433.886 999.367 437.865C997.225 441.538 994.164 445.057 990.185 448.424C986.513 451.484 982.228 454.392 977.331 457.147C972.434 459.595 966.619 461.585 959.885 463.115C953.152 464.339 945.959 464.951 938.308 464.951L873.576 465.41C876.636 475.204 882.146 483.009 890.103 488.824C898.061 494.333 908.161 497.088 920.403 497.088C933.564 497.088 947.031 495.404 960.803 492.038C966.619 490.507 972.893 488.059 979.626 484.692C986.666 481.325 991.716 479.642 994.776 479.642C999.979 479.642 1003.96 481.172 1006.71 484.233C1009.77 487.294 1011.3 491.119 1011.3 495.71C1011.3 501.219 1008.86 507.953 1003.96 515.91C999.061 523.562 992.175 531.367 983.299 539.324C974.729 546.976 963.252 553.556 948.867 559.065C934.482 564.574 919.026 567.329 902.499 567.329Z" fill="black"/>
<path d="M1141.65 494.333C1147.16 504.739 1154.81 509.942 1164.6 509.942C1172.87 509.942 1179.29 504.739 1183.88 494.333C1188.47 483.927 1190.77 471.991 1190.77 458.524C1190.77 451.178 1190.16 443.986 1188.93 436.947C1187.71 429.907 1186.03 423.633 1183.88 418.124C1181.74 412.309 1178.99 407.718 1175.62 404.351C1172.25 400.678 1168.43 398.842 1164.14 398.842C1154.66 398.842 1147.16 404.504 1141.65 415.828C1141.65 419.807 1141.65 431.284 1141.65 450.26C1141.65 468.93 1141.65 483.621 1141.65 494.333ZM1141.19 364.41C1161.39 349.413 1183.27 341.915 1206.84 341.915C1230.71 341.915 1250.61 352.015 1266.52 372.215C1282.44 392.415 1290.39 417.971 1290.39 448.883C1290.39 486.222 1278.3 515.451 1254.12 536.57C1229.95 557.382 1198.57 567.788 1160.01 567.788C1136.44 567.788 1115.79 564.421 1098.03 557.688C1080.59 550.954 1066.82 540.854 1056.72 527.388C1046.92 513.921 1041.87 497.7 1041.57 478.724L1040.65 305.646C1040.65 286.67 1045.24 272.745 1054.42 263.869C1063.6 254.993 1075.84 250.555 1091.15 250.555C1108.29 250.555 1120.84 254.687 1128.79 262.951C1137.06 270.908 1141.19 283.763 1141.19 301.514V364.41Z" fill="black"/>
<path d="M1424.91 515.451C1424.91 533.815 1421.08 546.67 1413.43 554.015C1405.78 561.055 1392.31 564.574 1373.03 564.574C1354.97 564.574 1342.58 560.442 1335.84 552.179C1329.42 543.609 1326.2 529.683 1326.2 510.401V397.465C1326.2 381.856 1330.33 369.307 1338.6 359.819C1347.17 350.331 1358.49 345.587 1372.57 345.587C1389.1 345.587 1401.95 349.26 1411.13 356.605C1420.32 363.645 1424.91 376.806 1424.91 396.087V515.451ZM1325.28 281.773C1325.28 294.016 1330.03 302.892 1339.52 308.401C1349 313.91 1360.94 316.664 1375.33 316.664C1391.55 316.664 1403.94 314.063 1412.51 308.86C1421.08 303.657 1425.37 294.628 1425.37 281.773C1425.37 258.513 1408.69 246.882 1375.33 246.882C1359.41 246.882 1347.01 250.096 1338.14 256.523C1329.57 262.951 1325.28 271.367 1325.28 281.773Z" fill="black"/>
<path d="M1558.81 515.451C1558.81 533.815 1554.98 546.67 1547.33 554.015C1539.68 561.055 1526.06 564.574 1506.47 564.574C1488.41 564.574 1476.17 560.442 1469.75 552.179C1463.32 543.609 1460.1 529.683 1460.1 510.401V397.465C1460.1 387.059 1461.94 378.03 1465.61 370.378C1469.29 362.421 1474.64 356.299 1481.68 352.014C1488.72 347.73 1496.98 345.587 1506.47 345.587C1529.73 345.587 1545.04 352.321 1552.38 365.787C1570.13 352.321 1587.27 345.587 1603.8 345.587C1635.94 345.587 1652 360.89 1652 391.496C1652 403.739 1648.49 413.686 1641.45 421.337C1634.41 428.989 1625.22 432.815 1613.9 432.815C1607.17 432.815 1601.66 431.437 1597.37 428.683C1593.39 425.928 1589.57 423.174 1585.9 420.419C1582.53 417.665 1578.55 416.287 1573.96 416.287C1567.23 416.287 1562.18 418.583 1558.81 423.174V515.451Z" fill="black"/>
<path d="M1819.92 498.465L1819.46 412.615C1814.26 404.045 1807.52 399.76 1799.26 399.76C1794.06 399.76 1789.31 402.668 1785.03 408.483C1781.05 414.298 1777.99 421.49 1775.84 430.06C1773.7 438.63 1772.63 447.659 1772.63 457.147C1772.63 471.225 1774.93 483.774 1779.52 494.792C1784.11 505.81 1790.54 511.32 1798.8 511.32C1800.33 511.32 1801.86 511.166 1803.39 510.86C1804.92 510.554 1806.3 510.248 1807.52 509.942C1808.75 509.33 1809.97 508.718 1811.19 508.106C1812.42 507.188 1813.49 506.27 1814.41 505.351C1815.33 504.433 1816.25 503.362 1817.16 502.138C1818.08 500.913 1819 499.689 1819.92 498.465ZM1920 495.71C1920 520.501 1915.87 538.253 1907.6 548.965C1899.34 559.371 1886.64 564.574 1869.5 564.574C1849.91 564.574 1836.45 558.453 1829.1 546.211C1809.21 560.595 1785.18 567.788 1757.02 567.788C1733.15 567.788 1713.26 557.994 1697.34 538.406C1681.43 518.512 1673.47 491.426 1673.47 457.147C1673.47 422.256 1681.27 394.557 1696.88 374.051C1712.49 353.239 1732.54 342.833 1757.02 342.833C1779.06 342.833 1799.72 349.872 1819 363.951V305.187C1819 286.517 1823.59 272.745 1832.77 263.869C1841.95 254.687 1854.2 250.096 1869.5 250.096C1886.33 250.096 1898.88 253.463 1907.15 260.196C1915.71 266.929 1920 280.549 1920 301.055V495.71Z" fill="black"/>
</svg>
